<?xml version="1.0" encoding="UTF-8"?>
<svg id="Layer_1" xmlns="http://www.w3.org/2000/svg" version="1.1" viewBox="0 0 688.32 941.9">
  <!-- Generator: Adobe Illustrator 30.6.0, SVG Export Plug-In . SVG Version: 2.1.4 Build 109)  -->
  <defs>
    <style>
      .st0 {
        fill: #f19414;
      }

      .st1 {
        fill: #3b3431;
      }

      .st2 {
        fill: #0c0c0f;
      }

      .st3 {
        fill: #37312e;
      }

      .st4 {
        fill: #f9f1e7;
      }

      .st5 {
        fill: #ec9723;
      }

      .st6 {
        fill: #f8efe3;
      }

      .st7 {
        fill: #f9f2e8;
      }

      .st8 {
        fill: #121316;
      }

      .st9 {
        fill: #383330;
      }

      .st10 {
        fill: #ed9418;
      }

      .st11 {
        fill: #0e1012;
      }

      .st12 {
        fill: #16100c;
      }

      .st13 {
        fill: #6e532f;
      }

      .st14 {
        fill: #f7f0e5;
      }

      .st15 {
        fill: #f5eee4;
      }

      .st16 {
        fill: #f7a319;
      }

      .st17 {
        fill: #f7f1e6;
      }

      .st18 {
        fill: #38322f;
      }

      .st19 {
        fill: #0e0f13;
      }

      .st20 {
        fill: #e99724;
      }

      .st21 {
        fill: #38332f;
      }

      .st22 {
        fill: #f6f0e6;
      }

      .st23 {
        fill: #f3ece3;
      }

      .st24 {
        fill: #f4f0e6;
      }

      .st25 {
        fill: #ee9519;
      }

      .st26 {
        fill: #faf2e7;
      }

      .st27 {
        fill: #e89724;
      }

      .st28 {
        fill: #f9f1e8;
      }

      .st29 {
        fill: #eb9920;
      }

      .st30 {
        fill: #f5ede3;
      }

      .st31 {
        fill: #0f1115;
      }

      .st32 {
        fill: #4b3f36;
      }

      .st33 {
        fill: #f9f2e6;
      }

      .st34 {
        fill: #ed941a;
      }

      .st35 {
        fill: #f5eee5;
      }

      .st36 {
        fill: #ec971e;
      }

      .st37 {
        fill: #f9f0e6;
      }

      .st38 {
        fill: #f7f1e7;
      }

      .st39 {
        fill: #ed9114;
      }

      .st40 {
        fill: #3b3430;
      }

      .st41 {
        fill: #f8f0e6;
      }

      .st42 {
        fill: #161619;
      }

      .st43 {
        fill: #ea9c25;
      }

      .st44 {
        fill: #101115;
      }

      .st45 {
        fill: #0f1014;
      }

      .st46 {
        fill: #f1971a;
      }

      .st47 {
        fill: #ea9726;
      }

      .st48 {
        fill: #e29726;
      }

      .st49 {
        fill: #e99622;
      }

      .st50 {
        fill: #f29513;
      }

      .st51 {
        fill: #faf1e7;
      }

      .st52 {
        fill: #ea9520;
      }

      .st53 {
        fill: #0e1010;
      }

      .st54 {
        fill: #f9f1e6;
      }

      .st55 {
        fill: #e1deda;
      }

      .st56 {
        fill: #e49628;
      }

      .st57 {
        fill: #3b3531;
      }

      .st58 {
        fill: #f8f0e5;
      }

      .st59 {
        fill: #ed9621;
      }

      .st60 {
        fill: #111115;
      }

      .st61 {
        fill: #eb9822;
      }

      .st62 {
        fill: #ef9310;
      }

      .st63 {
        fill: #3b3530;
      }

      .st64 {
        fill: #ec9a24;
      }

      .st65 {
        fill: #3b3631;
      }

      .st66 {
        fill: #0f1114;
      }

      .st67 {
        fill: #ef8f11;
      }

      .st68 {
        fill: #ed9419;
      }

      .st69 {
        fill: #f29411;
      }

      .st70 {
        fill: #0b0c0c;
      }

      .st71 {
        fill: #ea9826;
      }

      .st72 {
        fill: #ee9316;
      }

      .st73 {
        fill: #f3eadb;
      }

      .st74 {
        fill: #373330;
      }

      .st75 {
        fill: #f9f0e5;
      }

      .st76 {
        fill: #3a3430;
      }

      .st77 {
        fill: #0f0f14;
      }

      .st78 {
        fill: #f6eee3;
      }

      .st79 {
        fill: #4c4031;
      }

      .st80 {
        fill: #111216;
      }

      .st81 {
        fill: #f29511;
      }
    </style>
  </defs>
  <path class="st25" d="M20.53,316.26c-.66.88-1.71.46-2.24.26-.82-.3-1.94-1.43-1.22-2.43l12.59-17.45c.89-1.23,2.34-1.75,3.64-.71.94.76.73,2.19-.23,3.48l-12.54,16.85Z"/>
  <path class="st68" d="M17.93,390.6c10.86,10.2,19.05,7.77,14.12,13.91-6.52-2.59-12.56-5.99-17.72-10.91-.99-.94-.44-2.48.5-3.11.82-.55,2.08-.86,3.1.1Z"/>
  <path class="st10" d="M5.31,351.17c-.29,1.64-1.38,2.13-2.75,1.93-1.46-.22-1.74-1.32-1.44-2.97,1.28-7.05,3.78-13.55,7.01-19.94.68-.66,2.28,0,2.78.53.72.77.79,1.98.23,3.08-2.8,5.56-4.76,11.22-5.84,17.37Z"/>
  <path class="st36" d="M648.94,138.66c-1.69.02-2.8-.67-3.88-1.7,3.26-6.32,4.97-12.69,6.21-19.66.15-.86,1.95-.57,2.53-.32,3.46,1.49-1.34,15.01-4.86,21.68Z"/>
  <path class="st34" d="M634.54,85.31c-5.61-3.31-11.4-5.6-17.65-7.76-1.23-.43-.6-3.95.77-3.71,6.64,1.19,12.87,4.3,18.64,7.71.32,1.15-.57,2.73-1.76,3.76Z"/>
  <path class="st59" d="M7.36,376.83c.54,1.12.42,2.15-.13,2.94C4.32,383.89.02,373.04,0,364.32c0-1.66,3.91-2.2,4.11-.94.75,4.77,1.17,9.11,3.25,13.45Z"/>
  <path class="st67" d="M654.41,104.79c.27,1.85-3.4,2.17-4.03,1.23-1.21-4.58-3.4-8.85-6.24-12.92-.72-1.03,2.24-3.54,3.19-2.53,3.59,3.81,6.27,8.69,7.08,14.23Z"/>
  <path class="st72" d="M45.15,286.08c-1.01,1.11-1.72,1.48-2.6,1.2-1.34-.43-1.87-2.1-.93-3.13l8.2-9c.71-.77,1.33-1.2,2.21-.99.82.2,1.56.71,1.7,1.47.19,1.04-.48,1.58-1.13,2.3l-7.44,8.15Z"/>
  <path class="st29" d="M71.67,255.21l-.64,5.45c-3.61,2.16-5.05,6.06-7.64,5.44-.7-.16-2.2-1.51-1.58-2.15l7.92-8.1c.52-.54,1.3-.66,1.93-.64Z"/>
  <path class="st45" d="M639.5,178.61c15.52,33.37,25.16,70.83,26.09,108.22,10.51,6.8,17.27,17.44,19.09,29.84l1.48,10.1c2.11,5.82,3.1,11.06.95,16.94l-15.58,42.74c-1.9,6.5-1.84,14.13-1.94,20.88l-.55,37c-.24,16.57-2.31,32.36-7.76,47.96-2.79,7.98-6.68,14.88-10.97,22.12-2.38,4.03.94,15.56-5.65,23.1-8.33,9.55-32.65,12.82-46.33,14.48-15.8,11.79-32.55,21.83-51.82,26.98l-24.29,6.5-13.97,3.72c-7.61,1.44-14.99,3.23-22.71,2.28-3.81,3.21-6.32,6.72-8.52,11.11-8.95,17.84-24.1,40.36-43.32,46.48-4.23,14.76-8.9,28.34-21.42,37.76,3.5,3.13,4.92,7.07,5.61,11.78,6.31-1.39,11.99-3.63,17.41-6.75,4.78-2.76,9.63-4.5,15.02-5.82l18.63-4.56c4.51-.93,8.7-1.1,13.19-.24,19.54-6.65,39.6-8.69,60.08-6.82,8.17.75,15.66,1.73,23.26,4.41,12.13,4.28,20.47,14.1,21.99,27.1,1.45,12.45-.63,24.98-5.35,36.55l-7.96,12.25c-4.92,17.63-10.2,34.61-19.46,50.42l-24.64,42.06c-6.65,11.36-11.81,22.99-14.34,36.12,10.88,4.53,19.76,10.89,27.84,18.92l6.15,5.1c6.6-.98,12.71,1.05,17.33,5.73,1.28,1.3,2.78,1.43,4.61,1.28,6.94-.56,13.36,3.91,14.47,10.65,1.11,6.74-2.81,12.17-9.18,13.85-7.17,1.89-14.75,2.51-21.58-.57-8.31-3.75-17.09,9.19-42.05-2.05l-11.02-4.96c-5.35-2.41-11.02-2.39-16.8-1.22-10.18,2.07-23.59,1.88-28.28-6.92-3.37-6.32-3.21-13.46-.22-19.8l6.04-12.81c1.43-4.89,3.88-8.57,5.96-13.09,4.52-9.83,6.57-20.41,9.59-30.83l9.61-33.1c-1.69-5.99-3.94-12.41-3.37-18.96l1.3-14.87-7.87,5.94c-2.21,1.66-4.88,1.56-7.44,1.76-19.19,12.93-39.39,23.47-61.31,31.24l-.06,7.01c6.02,7.28,10.65,14.87,14.99,23.16,11.78,22.5,23.95,46.68,9.6,70.2-5.41,8.87-13.8,14.7-23.62,18.02-9.71,3.29-19.48,5.04-29.79,4.88l-38.54-.6c-13.75-.21-26.65-2.2-39.62-6.67-10.64-3.67-20.54-7.72-30.45-13.09l-36.91-19.96c-6.01-3.25-11.97-5.72-18.58-7.3-3.16-.75-5.89-.05-7.92,2.67-2.42,3.24-4.73,7.02-5.79,11.03-.46,1.75,2.44,3.48,3.84,3.51,5.7.12,9.33,2.93,12.8,6.97,4.73,5.51,5.31,14.26-.87,18.98-4.17,3.18-9.86,2.99-14.93,2.01-4.39.92-8.5,1.29-12.87.17-4.28,1.07-8.53,1.04-12.86-.24-3.96,1.07-7.7.75-11.51-.4-12.52,3.38-25.03-3.66-28.85-15.89-3.65-11.72-1.17-23.38,5.72-33.39,3.67-5.33,7.1-10.91,8.37-17.32,2.08-10.5-4.65-28.68,13.05-42.08,8.88-6.73,20.68-8.32,31.04-3.99,8.85,3.7,12.24,9.69,22.66,11.09l33.32,4.48c-10.14-9.53-19.06-19.01-26.73-30-16.4-23.49-10.65-46.11-.65-71.3-4.62-11.72-.3-14.21,1.42-18.72.99-2.59.28-5.86.52-8.73.93-11.09,8.36-20.3,19.61-22.09-.42-8.85,2.57-16.26,3.65-24.32l-5.74-25.62c-1.78-15.94-.31-31.6,3.58-47.73-10.54,2.46-20.31,4.81-30.89,4.75-12.14-.07-23.73-2.54-35.31-5.8-4.75-1.34-8.82-1.85-13.77-1.28s-10.13.74-15.08.01c-8.52-1.24-13.31-10.04-11.86-18.11.42-2.33-.32-4.64-1.41-6.49l-5.9-10c-4.57-6.63-7.78-13.68-8.29-21.78l-1.99-31.57c-.84-13.28-1.02-26.15-2.91-39.23-.81-5.61-2.86-10.17-7.03-13.99-4.73-4.33-9.05-8.98-12.27-14.6l-8.48-14.81c-1.56-2.72-2.92-5.33-3.76-8.4l.32-1.25,20.42-1.58.81,1.17,1.35.61c.25,3,1.42,5.24,3.53,6.7l-2.25-6.41.97-1.4c0-.47,0-1.14.33-1.29,1.19-.52,6.74-1.45,7.2.17l1.58,1.11c3.77,8.14,8.43,15.8,14,22.97,3.73,7.18,2.72,12.9-1.36,19.67l-.25,2.27c3.37,23.54,6.37,47.07,9,70.61,1.63,12.27,7.52,22.84,14.24,32.97,2.14,3.32,3.17,6.74,3.09,10.26-4.54-.22-3.15,5.05-.93,7.4,6.14,6.51,29.52-2.47,35.72-6.71,22.72,12.02,51.4,8.78,71.07-7.17l-5.78-15.56c.33-1.04,1.19-1.28,2.26-1.22l24.34,21.62c5.58,5.34,10.01,11.81,12.96,18.95l6.48,19.16c11.78,26.17,36.23,38.15,64.4,34.79.67.15,1.2.34,1.23.6.39,2.96-6.11,4.4-8.47,4.92-5.04,1.1-20.77,2.33-26.07,1.9-10.91-.88-20.85-2.41-30.49-8.13-.46-.14-.87-.02-.85.11,1.39,8.45,7.12,14.84,13.7,19.85.37.47.63.9.53,1.21-.88,2.65-15.75-.55-18.65-1.48-.4,1.87,1.99,5.01,3.55,6.69,3.42,3.68,7.69,5.54,12.7,5.08,15.52-3.72,31.55-7.49,47.78-7.32,2.37,0,2.4.96.11,2.91-15,3.01-28.52,8.77-40.55,17.28-4.43,3.29-6.41,5.86-.72,8.67,4.52,2.24,11.33,3.77,16.37,4.19,19.35,1.61,24.35-9.08,30.91-24.34,2.66-1.11,3.25.96,1.77,6.21-1.53,6.52-3.46,12.92-5.79,19.21l7.04,1.65c1.87,2.15.35,3.45-4.56,3.9-3.59.39-7.19.48-10.81.27l-.98,6.04c-.45,2.43-1.61,4.77-3.72,2.22-.69-3.9-2.48-6.7-5.36-8.4l-29.77.63c-5.49.56-4.79,4.92-3.96,9.23,2.21,11.5,5.59,13.67,17.11,14.41,19.39,1.25,36.1-1.28,50.82-14.84,3.9-3.6,3.63-7.65,2.56-12.47,1.9-3.9,4.86-7.23,8.89-9.99l3.8-5.2c14.84-6.44,21.16-20.53,25.35-35.48,1.6-2.06,1.5-2.35-.31-.88-9.33,1.31-17.74-.06-26.83-1.65-1.88-.33-17.03-4.47-17.73-5.07-1.2-.87-1.81-1.63-.81-2.91,7.83-10.16,13.15-21.54,15.96-34.14,1.97-1.84,2.57-1.15,2.93,1.3-.9,8.64-1.66,17.28-2.28,25.93.23,4.57,3.62,7.43,7.61,9.31,30.94,14.59,58.68-22.69,68.51-47.82l16.06-16.27,25.81-31.46c1.43-.33,2.24-.48,2.49,1.05.15.94-1.72,4.83-2.33,6.08-1.04,2.15-2.35,4.16-3.68,6.14,33.73,2.93,63.97-10.43,89.9-31.12,9.59,3.52,18.63,1.33,26.24-5.3,1.68-.49,2.04,1.32,2.15,2.6.84,9.78-6.31,14-14.53,16.27,7.89-1.27,21.95-4.45,25.97-11.77.37-5.31.81-10.63,1.33-15.97,11.68-19.42,18.65-40.57,19.2-63.43l.39-43.37c.77-7.37,1.31-14.74,1.63-22.12,6.74-15.08,12.48-30.51,17.2-46.29.29-1.11-3.13-20.18-3.77-22.61-2.07-7.8-3.64-10.73-8.82-16.69-1.59-1.83-10.73-11.35-11.72-6.4,5.52,5.49,10.56,11.38,15.1,17.7,1.23,2.63,3.39,9.01-1.16,7.52-4.1-5.89-10.22-12.6-16.54-16.09-1.41-.78-1.11,1.5-.24,2.55,5.97,6.36,11.29,13.21,15.96,20.55,1.62,3.21,3.47,13.86,2.18,16.83-1.74,4.01-4.08-.33-4.08-3.41-2.16-8.3-10-17.8-16.85-22.85-1.36-1.01-1.37,6.87.95,7.46,5,3.92,7.57,7.72,9.42,13.96,2.53,8.54,1.33,12.89-4.18,19.93-.99,1.64-1.92,3.31-2.75,5.03-5.47,11.2-4.25,16.9.94,27.46-2.18,2.9-3.83,6.06-4.95,9.48-3.37,14.39-7.3,28.73-11.79,43-4.81,9.61-7.21,14.42-7.21,14.42-10.49,14.98-17.61,32.43-11.32,50.59-5.67,6.39-14.95,5.96-21.08.18-14.86-7.9-25.56-9.02-42.3-5.1-14,3.28-27.36,9.7-35.05,22.08l-2.25-.91c-8.98-6.69-16.98-9.91-28.03-6.92-6.52,3.45-7.88,1.43-4.09-6.05-.06-1.97-2.26-2.79-6.6-2.48l-3.29-1.67c-4.03,3.56-9.31,4.01-13.19.04-3.29,4.22-6.96,7.94-12.34,9.49-.7,1.16,8.88,7.06,10.82,8.05,2.74,1.18,5.25,2.61,7.5,4.29-3.61,7.68-6.81,16.11-8.72,24.48,1.31,6.45-1.11,5.87-6.23,4.21-1.73,3.13-4.02,5.02-6.86,5.66,2.98,6.79-5.76,16.05-11.37,18.58-6.14,2.76-13.59.23-16.68-5.37-8.66,5.4-16.46,11.97-20.97,21.43-1.31,1.84-2.19,2.89-3.31.82-8.46-21.41-26.2-35.55-44.33-48.52l-6.23-6.23c-1.12,1.59-8.31,9.78-9.88,6.15-.14-.32-.06-.72.07-1.16,10.1-9.76,3.21-21.61-3.87-30.79-.39-1.12.2-1.81,1.18-2.38l45.1-1.71c-5.32-1.22-6.16-5.5-6.21-10.26-6.44-8.27.21-19.47,10.56-17.8-7-7.8,1.11-18.93,10.72-17.44-2.81-9.17,6.39-15.27,14.75-14.86,2.07-10.31,18.79-10.2,18.35.91-2.12.4-3.95,1.16-5.48,2.28,3.71-.48,7.28.44,9.66,3.48,4.74-1.93,10.17-.6,9.46,5.64,6.94-4.47,13.76-2.97,16.95,4.9,5.9-2.12,17.52-.82,20.3,5.36,1.81,4.03-.15,7.73-4.14,9.26,2.57,1.52,4.03,4.04,4.39,7.54,1.9-1.44,3.24-3.47,4.02-6.07,5.52-1.62,9.25,5.72,7.31,10.38,2.4-1.35,4.18-3.46,5.34-6.33,4.74.62,6.8,7.4,4.25,11.14.93.89.78,2.46.5,3.67,10.61-5.24,11.5-21.97.47-27.42,1.69-9.34-2.64-15.07-12.16-15.94-1.27-13.87-10.52-16.32-22.68-15.61-5.29-10.25-16.68-10.43-26.65-8.05l-1.45-.92c-.27-.11-.52-.23-.7-.42-.6-.6,3.22-14.37,3.77-16.3,19.59-2.48,39.05-5.57,58.2-10.44,19.48-4.95,36.5-11.58,55.08-18.84,1.76-.69,3.66-.95,5.53-1.15,1.55-.64,1.91.13,1.22,1.56.1.83.16,1.67.14,2.5s-.06,1.63-.27,2.38c-7.81,27.55-20.86,53.47-37.03,75.74-1.83.06-2.42.87-1.77,2.44l-4.47,6.84c0,1.18.46,1.11,1.37-.2l7.28-9.59c21.72-5.38,43.74-12.89,61.32-27.16l2.8-.82,1.44.68c.93,1.98,2.74,8.15.56,9.25-.23.72-.49,1.43-.82,2.1s-.66,1.3-1.12,1.82c-9.91,11.17-20.6,21.85-31.87,31.55,12.59-6.54,22.6-17.07,32.03-27.61l2.84-1.33,1.35.35c.84,4.06.91,3.15.2-2.72l1.14-.92.8-2.81c15.14-17.68,27.68-36.94,37.38-58.1,3.39-7.4,4.39-11.2,2.92-18.63-8.17,25.4-21.83,50.11-39.05,70.57-.4.47-.93.84-1.49,1.19s-1.18.66-1.81.93l-1.29-.06-3.36-11.79-.97.94c.25,1.36.17,2.63-.25,3.8l-20.79,13.7c-6.81,3.24-13.71,6.35-20.81,8.9-3.04,1.09-18.32,6.46-19.23,5.12-.28-.41.12-1.29.72-2.29,15.59-22.47,26.01-47.67,34.99-73.37l1.42-1.91.84-1.28c3.41-.42,4.62-2.7,3.55-5.91l.84-1.36.07-1.4c22.69-10.64,45.67-25.77,60.63-46.53,8.4-11.65,11.99-23.2,13.79-37.16,1.23-9.5-1.59-16.17-9.44-22.04-18.14-13.55-36.73-20.34-57.25-26.79l-1.59-1.75-5.73-34.79,1.03-1.3-.31-1.32,34.82-27.61,1.55-.46c5.75,6.17,13.14,9.31,21.43,6.38l1.61.71c.58.57,1.14,1.15,1.62,1.78s.94,1.25,1.23,1.94c12.32,29.1,19.26,60.8,20.71,92.23,1.56-.9,2.7-1.2,3.42-.9-1.1-33.22-9.88-65.34-21.97-96.09l-.09-2.29-.58-1.39c.23-.56,4.38-7.65,4.82-7.79.48-.16.98.35,1.31.84Z"/>
  <path class="st54" d="M462.42,916.1c-.25-5.49,1.96-10.01,5.18-14.07,1.85,2.8,3.93,6.06,7.4,6.15,2.76.07,5.07-4.33,3.89-6.63l-5.06-9.83c-1.35-2.62,6.22-14.12,8.8-23.98l8.11-31.02c2.24-8.55,5.62-15.92,10.58-23.15l13.96-20.33-18.31,17.3c-3.36-8.3-3.89-17.11-1.8-25.78,4.46-18.47,14.91-39.09,33.14-45.77,1.97-.72,3.93,2.08,6.32,2.28-2.9-6.19-5.07-12.2-5.9-19.22-1.5,1.32-1.13,3.05-1.49,5-9.5,1.08-18.29,3.75-26.6,8.78-12.96,7.85-25.96,14.74-40.55,20.3.27-21.41,4.26-41.83,14.96-60.02l5.63-7.36c18.21-6.52,37.01-9.06,56.32-7.8,8.8.58,17.17,1.28,25.44,3.94,10.68,3.44,17.85,12.05,18.6,23.33.91,13.73-1.82,29.69-10.78,40.17-1.79,2.09-2.74,4.35-3.43,7.1-4.98,19.93-12.94,38.36-23.46,55.99l-19.01,31.85c-6.65,11.14-15.56,30.91-15.18,43.75,11.42,4.27,20.78,11.04,29.63,19.36,2.88,2.71,6.72,7.03,10.76,7.11,5.42.11,9.92.14,13.75,4.61,4.71,5.5,10.85-.56,15.05,5.38,1.27,1.8,2.22,6.05-.36,7.74-6.24,4.09-14.45,3.61-20.88.41-10.21-5.08-18.43,9.52-40.49-1.33l-7.79-3.83c-8.62-4.24-17.85-5.07-27.19-2.83-7.96,1.91-18.87.71-19.24-7.62Z"/>
  <path class="st54" d="M292.6,875.52c13.77-6.13,28.04-6.82,42.14.41l9.72,5.67,26.21,19.22,2.26-10.28-14.89-16.45-16.92-16.72c-5.29-5.22-9.72-10.8-12.36-17.68-1.03-2.69-.82-4.85,1.49-6.87,10.23-8.98,23.16-14.07,36.91-15.13,9.72-.92,18.5.96,27.73,4.25-22.66-15.13-53.08-13.18-76.54-.34-7.16,3.92-12.66,9-17.8,15.37,1.28-4.66,4.87-7.23,7.39-11.33-3.17,1.12-4.15,4.11-6.34,6.34,2.23-9.03,6.26-16.81,14.24-21.4,7.05-4.37,14.65-6.09,23.06-8.15-9.98-1.4-19.42-.72-29.28-.65-7.69.02-17.64.71-22.42-4.02,2.55-3.43,5.77-5.43,9.36-7.11,7.98-3.6,16.22-4.93,25.21-5.85-7.7-2.81-15.11-3.48-22.83-4.68-10.79-1.46-29.75-3.92-35.8-11.31l-5.56-6.79c9.49,3.74,19.03,3.79,28.79,1.31l19.57-3.72c19-.7,44.46,8.66,59.37,20.91,11.06,9.08,20.59,19.33,29.43,30.49l6.52,10.08c1.05,1.63.94,3.43.07,5.38,8.74,10.3,15.66,21.45,21.58,33.56,8.36,17.1,15.67,34.19,7.34,52.09-6.01,12.93-18.33,18.79-32.21,21.08-9.69,1.6-19.16,2.18-29.06,1.89l-29.97-.89c-21.27-.63-44.64-8.79-63.31-18.82l-39.79-21.36c-7.28-3.91-14.61-6.02-22.55-7.39,6.68-.6,12.91.99,18.9,3.65l36.02,15.99,26.72,12.47c11.43,5.33,23.38,8.44,35.98,10l25.77,1.7c16.3,1.08,30.98.48,46.6-2.82l-11.11-.86c-9.31-.72-25.12-8.42-26.32-17.65-.33-2.56-1.82-3.96-4.44-4.18-22.3-1.83-44-7.12-60.37-22.9l-8.53-6.53Z"/>
  <path class="st26" d="M413.31,758.33c-5.46,14.33-15.72,28.33-31.58,27.71l5.25-6.6c4.24-5.33,7.84-10.83,10.26-17.28,5.35-14.29,9.19-32.98,9.28-48.29,3.4-5.32,11.7-8.26,18.3-10.51s12.72-5.16,18.65-8.86c1.52-.95,3.29-1.57,5.11-1.46,3.37.21,6.15-1.19,9.25-1.94l14.93-3.59c-16.87,13.8-24.39,33.38-29.95,54.04l-7.28,27.04c-4.19,15.57-14.05,32.39-29.19,38.87-1.2-.36-2.32-1.96-2.91-2.97,5.34-5.07,8.84-11.07,11.53-17.93,3.84-9.77,6.55-19.5,8.63-29.9,3.32-16.62,7.95-32.16,15.16-48.05-3.54,1.4-4.52,4.6-6.36,7.3-7.6,13.61-13.41,27.54-19.07,42.4Z"/>
  <path class="st51" d="M396.81,714.4c-2.9,9.12-7.25,17.14-13.25,24.26s-13.33,11.48-22.3,13.22c-10.66,2.07-21.27,1.87-32.09-.21-22.63-4.36-50.16-14.14-67.81-28.84-4.98-4.15-9.3-8.64-11.98-14.86,23.13,12.57,47.32,24.42,72.82,29.33,23.34,4.5,47.11-1.31,64.88-17.13l9.32-10.39c.81,1.32.91,3.03.41,4.61Z"/>
  <path class="st4" d="M162.5,880.48l-10.19,18.82c-2.86,5.28-2.88,11.33-2.04,17.14.78,5.36,4.62,8.62,10,9.08,1.58.13,2.77,1.26,3.7,2.12.84.77,1.79,3.83.18,4.4-7.29,2.6-15.39-2.08-18.44-9.06-4.05-9.27-2.82-19.34,2.4-27.83l5.37-8.74c5.06-8.23,6.7-17.25,5.88-26.95-.73-8.68,1.61-16.98,8.05-22.49,6.19-5.3,14.9-7.9,22.99-5.3s13.23,9.77,26.76,11.92l21.16,3.35,24.4,3.6c-15.17,1.07-30.11.13-45.17-1.8-8.28-1.06-15.08-3.68-22.24-7.89-7.16-4.22-16.86-4.8-23.1,1.26-5.96,5.78-7.78,14.75-7.1,22.79.47,5.58.12,10.55-2.61,15.6Z"/>
  <path class="st33" d="M356.32,766.52l-16.26-7.72,22.79-.99c7.17-.31,13.5-3.38,18.34-8.65l14.4-18.75c-1.3,10.49-3.91,22.22-9.66,30.84-4.08,6.33-10.94,10.2-18.53,9.86-3.9-.92-7.28-2.8-11.08-4.6Z"/>
  <path class="st26" d="M444.78,548.91l-6.27.38c-3.37.21-6.31.66-9.34-1.65,3.29-1.76,5.89-3.59,7.85-6.62-4.95-7.07-7.01-16.17-.65-21.66,7.07,6.01,8.53,13.66,18.99,14.58-.74,3.39-1.25,7.68-3.81,10.17-1.79,1.75-5.08,1.62-6.77,4.79Z"/>
  <path class="st54" d="M303.88,719.9c-8-2.41-14.83-6.81-13.45-15.43.76-4.72,2.26-9.14,4.77-12.93,4.08,3.25,7.14,6.75,10.23,10.55-1.4,5.87-2.15,11.19-1.56,17.81Z"/>
  <path class="st58" d="M303.68,748.87c-8.17,3.49-17.07,3.19-25.67.82-7.88-2.17-14.88-5.64-20.13-12.24,10.9,3.47,21.01,6.13,31.87,7.72,4.61.99,8.92,1.38,13.93,3.7Z"/>
  <path class="st14" d="M266.12,815.28c-10.45-4.2-25.33-10.53-31.01-19.66-3.67-5.89-3.9-13.31-2.37-19.65,2.02,7.41,4.13,14.19,9.02,19.67,7.06,7.89,15.56,13.18,24.35,19.64Z"/>
  <path class="st6" d="M205.92,932.06c-1.58-1.14-1.54-4.48-.26-5.68l3.7-1.28-5.2-1.2c-1.26-.29-1.54-2.37-1.05-3.29.45-.85,1.63-2.47,3.23-2.41,4.63.17,8.8,4.22,10.01,8.66.84,3.08-1.14,5.69-4.11,6.04-2.01.23-4.34.6-6.31-.83Z"/>
  <path class="st28" d="M459.98,494.24c1.44-1.88,3.18-3.53,2.73-6.08-.38-2.15-2.31-4.64-4.96-4.66l-11.12-.09c2.88-3.1,5.92-6.53,9.99-7.86,3.19-1.04,6.61,1.86,7.91,3.91,2.06,3.25,1.29,6.18-.04,9.54-.83,2.09-.49,5.4-4.5,5.24Z"/>
  <path class="st7" d="M404.75,501.92c-2.73,3.96-1.8,9.22.97,12.78.96,1.23.83,3.16-.27,3.57-6.2-4.17-8.53-12.68-3.71-18.53,2.45-2.97,7.15-3.7,10.33-2.17,3.41,1.64,5.95,5.71,4.39,9.71-3.42-2.05-4.55-6.96-7.45-7.19-1.3-.1-3.2.29-4.26,1.83Z"/>
  <path class="st35" d="M410.04,562.37c-11.71-7.53-16.28-26.58-6.57-37.61-1.86,7.81-2.79,14.71-.21,21.87,1.21,5.59,3.75,10.29,6.77,15.73Z"/>
  <path class="st41" d="M189.37,931.63c-1.42,2.6-7.14,2.25-8.47.25s-.56-4.99.56-6.65c-2.25-1.31-2.83-2.94-4.33-4.84,2.24-.44,4.3.32,6.11,1.78,3.94,3.18,7.78,6.47,6.14,9.46Z"/>
  <path class="st38" d="M202.5,930.73c-.37,2.36-6.02,3.45-9.1,1.44-1.91-1.25,1.72-6.87-3.61-11.14,3.27-.76,5.83.88,7.93,3.18l4.09,4.47c.55.6.8,1.39.69,2.05Z"/>
  <path class="st78" d="M176.33,931.57c-1.1,2.29-5.56,1.91-7.32.18-2.09-2.06,1.57-8.04-3.98-10.42-.9-.38-1.84-.85-2.31-1.73,2.97.55,6.47.59,8.51,2.92l4.84,5.53c.87,1,.66,2.68.26,3.52Z"/>
  <path class="st15" d="M433.93,490.07l-2.39-6.6c-1.53-4.21-8.58-.53-10.36-7.14l6.01.21c4.41.15,7.86,3.12,8.04,7.55.08,1.97.48,3.87-1.3,5.99Z"/>
  <path class="st22" d="M431.81,501.66c-3.41-.1-6.01-2.2-7.67-4.72,7.08,2.75,14.19,1.02,19.73-4.67,2.38,4-5.72,9.58-12.06,9.38Z"/>
  <path class="st17" d="M194.3,861.82c-3.08-1.06-6.06-.23-7.23,3.24-1.67-1.44-2.74-3.23-2.52-5.27s1.62-3.9,3.92-4.5c3.14.42,5.57,2.78,5.83,6.54Z"/>
  <path class="st24" d="M420.2,475.91c-4.29-2.85-8.09-3.43-12.06-.52-.28-3.12,1.82-4.14,3.59-4.64,2.21-.63,4.23-.16,5.8,1.59.93,1.08,2.47,1.72,2.67,3.57Z"/>
  <path class="st55" d="M203.12,917.22c-4.35.89-9.49-1.61-8.49-5.83,2.1,2.93,4.74,3.98,8.49,5.83Z"/>
  <path class="st57" d="M563.19,392.89c-3.58,12.2-8.14,23.82-13.22,35.79-6.24,14.74-13.95,28.04-23.34,41.4,13.95-3.75,26.42-8.73,38.89-14.71l20.7-13.63c.71-.81.9-1.77.92-2.8,1.86-.22,2.78,3.82,1.12,4.59-16.75,15.16-41.55,23.51-63.53,28.99l-6.57,8.9c-1.07,1.45-2.25,2.63-3.96,2.52.73-.99.03-2.27.02-2.9l5.01-7.7-12.53,1.37c4.85-2.12,9.5-2.58,14.42-3.68l13.62-20.84c10.55-18.68,18.48-38.37,24.16-58.79,1.11-1.06,4.03.03,4.29,1.51Z"/>
  <path class="st54" d="M633.95,186.96c13.24,30.91,22.4,64.56,23.03,98.8l-5.74,2.36c-.54-33.35-9.08-66.53-22.22-97.84l4.93-3.32Z"/>
  <path class="st54" d="M594.02,456.69c-1.98.17-2.96-5.99-1.26-6.85,19.29-23.45,35.53-50.2,42.95-79.75l.95,10.55c.2,2.19.8,4.71.07,6.84-8.05,23.51-26.31,50.36-42.71,69.21Z"/>
  <path class="st75" d="M591.33,459.99c-7.39,8.27-14.72,16.38-23.59,23.21-6.4,4.93-13.35,8.25-20.57,11.97l9.03-7.62c12.36-10.44,23.17-22.23,34.06-34.08,2.49-.6,3.3,5.98,1.06,6.52Z"/>
  <path class="st43" d="M592.76,449.84l1.26,6.85.47,4.62c.24,2.36.45,4.77-1.18,6.49l-1.98-7.81c.08-2.34.05-4.69-1.06-6.52.12-3.5-1.18-6.58-2-9.93l-1.12-4.59-2.52-8.5c.81-.42,1.43-.74,2.33-.77l5.8,20.17Z"/>
  <path class="st30" d="M642.08,358.05l6.27-24.36c.27-1.07,1.66-2.16,2.46-1.64.48,5.05-1.03,9.93-2.36,14.49-1.57,4.1-2.6,8.31-6.38,11.51Z"/>
  <path class="st48" d="M582.19,423.53l-10.99-23.46c-.35-.75-.23-1.41.02-1.75.22-.3,1.32-.85,1.58-.42,4.73,7.98,8.3,16.23,11.91,24.99-.43.5-1.47.82-2.52.63Z"/>
  <path class="st73" d="M113.61,409.89c.5,3.05,1.7,5.71,3.35,9.01-4.39.94-6.06-3.17-6.95-8.51l3.6-.5Z"/>
  <path class="st69" d="M136.72,378.2c-.09,2.11.81,3.74,2.12,5.41,6.82,8.66,8.57,19.83,2.54,28.88-1.33,2.24-3.87,3.28-6.35,2.3-6.27-2.59-9.58-8.47-9.46-15.36l.22-12.52c2.01-4.63,6.01-8,10.92-8.71Z"/>
  <path class="st54" d="M121.14,408.77l-1.21-4.86c-1.54-9.43-2.08-25.07,2.98-32.36.65-.94,1.87-1.27,2.51-1.03,2.26.85.52,8.05.37,16.39l1.21.72-.2,12.93c.56,5.62,2.46,10.01,7.72,12.67l.5,1.57c1.66-.24,2.66-.07,3.77,1.21.42-1.58,1.28-2.75,2.58-3.51l-.3-1.83c5.43-9.38,2.21-20.01-4.33-27.89-1.54-2.28-1.55-3.8-.04-4.57,9.83-1.41,17.43,9.09,17.33,18.96l-.06,5.45.95,1.41c-.42,6.84.29,13.73,2.14,20.67.38,9.78-1.81,19.22-6.56,28.32,6.5,23.51,18.63,42.91,31.51,62.46,5.35,7.69,7.52,16.1,8.42,25,5.18-8.92,15.43-13.45,25.15-15.91s22.34-3.05,31.18,1.99c-.17-2.51,2.38-5.58,4.09-7.61,17.79-21.21,57.3-25.4,78.48-6.7,2.8-.43,5.62-.59,8.48-.47,10.48-.62,21.03-1.06,31.66-1.32-1.9-2.23-3.3-5.08-3.07-8.07-4.45-9.08-.46-17.9,8.87-21-1.04-10.06,2.72-16.21,12.79-18.73-.5-11.45,8.04-15.31,17.93-16.93,4.68-10.04,15.7-13,24.74-6.27.48-.87,1.03-.98,2.04-.57.63-1.46,1.31-2.86,3.02-1.89,11.14-2.72,23.45-2.81,28.71,8.06l7.38-.12c8.81-.14,15.51,6.9,15.36,15.94,4.53-.31,8.03,1.82,10.49,4.56,3.05,3.39,2.64,7.83,1.94,11.6,4.13,2.19,7.65,5.64,7.91,10.82.51,10.11-2.26,15.74-12.04,19.79,1.4-2.29,2.42-4,1.07-6.43,2.1-3.86.92-7.85-2.78-10.32-.62,4.15-3.79,6.8-8.21,7.61,1.67-3.15,2.59-4.95,1.3-7.63-.98-2.03-2.69-4.34-5.36-4.03-.75,3.42-2.63,6.24-5.93,7.09-.46-2.42-.42-4.84-1.84-6.91-.74-1.09-2.83-1.19-3.49-3.18,2.53-.34,4.91-1.91,5.52-4.02s-.3-5.05-2.44-6.48c-5.55-3.72-12.6-3.92-18.5-1.58.13-3.74-2.16-5.56-4.12-6.79-6.08-3.8-8.54,1.79-12.99,1.55.64-2.07.66-4.83-1.1-5.94-2.15-1.36-4.84-.62-7.24.35-2.4-3.7-6.67-4.76-10.93-3.09-.04-3.42,2.85-4.87,6.47-4.73-.44-2.81-2.21-4.93-4.13-5.9-2.35-1.19-4.97-1.04-7.36-.06-3.14,1.29-4.96,3.81-5.05,7.07-5.37-.73-10.83,1.22-13.64,5.36-2.25,3.31-2.07,6.95.61,10.11-6.36-2.74-13.24.69-14.73,7.07s4.22,8.8,4.12,9.6c-.13,1.09-8.21-2.73-12.86,3.6-2.6,3.54-2.69,8.41.19,11.86,1.55,1.86-1.37,8.07,5.36,10.03l7.52,2.19-17.87.76-35.24,1.29c8.42,11.29,14.71,22.28,3.71,33.04,4.42-1.1,6.34-4.8,9.2-8.24,3.4,4.66,7.86,8.24,12.7,11.69,16.75,11.93,31.72,25.48,39.29,45.71,4.65-10.45,12.63-18.47,23.03-23.8,2.23,2.52,4.39,4.58,7.44,5.68,4.67,1.67,9.47.14,12.9-3.42l4.79-4.98c1.95-2.02,2.25-5.56,2.12-8.23-.55-.74-1.28-.1-1.07.54-2.03,2.3-.13,6.86-5.98,8.89-2.54-2.22-4.85-.24-6.48-3.01-.5-.84.53-2.08.63-2.91-.52-1.57-3.28-2.14-4.8-2.3-1.23-.13-2.82-1.78-1.83-2.32l10.46-5.65c3.14,1.51,5.62,2.63,8.13,4.64,1.22-.41,2.99-.3,4.03-1.08l4-5.06,6.12,1.62c-.65-2.76-.98-5.28-.09-7.81l5.75-16.31c.62-1.77,1.35-3.18,2.92-4.44-7.67-3.31-14.32-7.23-20.74-13.15,6-1.17,10.54-4.21,13.79-9.11.59-.89,1.85-1.6,2.75-.66,3.47,3.61,8.48,2.94,12.01-1.04,4.46,4.52,8.49.97,10.81,3.8.71.86.53,2.28.12,3.31l-2.36,5.87c13.33-6.94,23.96-2.92,35.6,5.88,3.13-6.09,7.55-10.37,13.21-13.67,12.17-7.09,25.8-10.77,40.02-10.79,11.17-.01,21.12,4.01,29.87,10.76,4.9,1.83,10.38.78,14.5-2.76-5.85-15.36-1-31.79,7.75-45.24,6.44-9.9,11.58-19.99,14.47-31.47l7.25-28.8c1.13-4.5,2.7-8.49,5.79-11.95l-2.48-4.94c-2.47-4.92-3.03-10.25-1.4-15.58,1.94-6.33,5.18-11.91,8.91-17.35,1.64-2.39,2.48-4.94,2.07-7.89-.74-5.25-2.1-10.58-5.28-14.87l-4.77-4.42c-2.52-2.34-3.41-5.86-1.91-9.05.33-.7,1.61-1.1,2.23-.52l7.87,7.5c5.39,5.14,8.95,11.83,10.25,19.46-.46,1.15,1.02,1.15.96-.13.3-5.64.15-11.58-2.38-16.46l-6.2-8.59c-2.66-3.69-5.12-7.41-8.56-10.39-1.92-1.66-2.55-4.02-.46-6.18,7.15,4.78,13.71,9.98,18.29,17.34.33.73,1.33-.09.68-.72-.36-4.82-2.84-8.2-5.87-11.47l-10.33-11.12c-.9-.97-.53-2.34.11-3.1,2.88-3.42,11.48,5.34,15.78,10.47,3.88,4.63,5.88,10,6.84,15.93l1.96,12.08c.64,3.93,2.43,7.38,1.12,11.49-4.7,14.68-9.94,28.92-16.34,42.92-1.09,2.39-.41,4.89-.63,7.35l-1.42,15.95-.16,34.26c-.12,25.72-4.37,47.94-18.08,69.75-1.44,2.29-1.96,4.69-2.01,7.41l-.17,8.71c-.08,4.2-2.78,7.21-6.54,8.93-9.31,4.28-18.97,6.78-29.67,7.83-1.4.29.15-.25.65-.81l12.09-4.4c3.21-1.17,6.26-3.12,7.82-6.23,1.39-2.78,1.68-9.53.68-8.83-7.27,6.84-17,9.24-26.34,5.39-17.74,13.76-35.95,24.92-58.07,29.26-11.58,2.27-23,2.47-34.51,2.11,3.46-4.8,6.05-9.06,7.46-14.51l-14.71,17.78c-5.37,6.49-9.95,13-15.99,18.97l-11.66,11.53c-6.42,14.95-15.02,28.57-26.99,39.78-12.19,11.4-32.94,16-46.36,6.53-3.31-2.33-5.29-5.38-4.97-9.36l1.28-15.94c.29-3.68,1.58-7.05.69-10.85l-4.86,15.8c-2.95,7.41-6.62,14.08-12.25,20.31l17.49,5.02c9.62,2.76,19.49,2.72,29.76,1.7-2.06,8.39-5.08,16.22-9.37,23.74-3.55,6.24-8.92,10.93-15.38,13.91-2.3,1.06-2.71,2.38-3.89,4.3-2.93,4.76-11.52,7.99-9.87,12.8,1.5,4.38.12,8.29-3.08,11.55-14.62,14.9-38.46,17.54-58.8,14.36-4.42-.69-7.63-3.39-9.09-7.57-1.58-4.55-3.27-9.26-2.36-14.23.37-2,3.62-3.41,5.74-3.46l28.76-.66c4.42-.1,6.36,6.42,7.45,10.17,1.71-3.06,1.47-7.01,2.38-10.32,5.75.75,11.28.71,16.81-1.22l-9.26-2.17c2.99-8.66,6.3-16.92,7.17-26.55l-6.02,12.69c-7.69,16.2-27.15,15.45-42.87,9.02-2.23-.91-5.4-3.73-4.59-6.21,11.12-13.31,30.68-17.96,47.5-22.73-14.54-.11-28.63,2.23-42.88,5.87-3.4.87-6.86,2.03-10.33,1.43-7.68-1.33-12.94-7.64-14.91-14.9,6.83,1.92,13.4,3.49,20.52,3.2-9.08-5.51-14.29-13.86-15.32-23.85,10.76,6.69,22.12,9.74,34.23,9.84l16.89-1.02c5.71-.35,11.25-.94,16.12-4.17-27.53,4.73-58.32-10.34-67.09-37.23l-4.22-12.93c-3.13-9.59-8.44-17.75-15.98-24.43l-23.03-20.4,6.21,16.66c-1.96,2.26-4.37,3.92-7.05,5.35-21.72,11.52-42.99,14.12-65.44,2.53-6.5,4.37-13.54,6.68-21.19,8.21-4.33.86-8.43,1.55-12.61-.03-6.98-2.63-5.08-10.53-4.35-10.73.51-.14,1.28-.02,2.64.23-1-4.75-3.24-9.22-6.17-13.51-6.48-9.5-10.74-19.98-12.02-31.46l-2.57-23.15-6.01-44.08c-.3-2.19-.1-3.69,1.06-5.52,3.41-5.37,3.89-12.2.31-17.36l-6.03-8.7c-3.46-4.99-6.78-9.83-8.2-15.57Z"/>
  <path class="st60" d="M437.3,454.69c-1.85-1.17-3.52-1.8-5.42-2.18,1.13-4.5,4.63-6.22,8.83-6.07,4.77.17,8.68,3.78,8.3,8.68-4.2-2.42-7.95-2.8-11.71-.44Z"/>
  <path class="st70" d="M375.55,664.48c8.29.55,23.02,7.74,20.78,15.22-3.89-5.22-8.5-9.27-14.48-11.88-2.01-1.28-4.49-1.37-6.3-3.34Z"/>
  <path class="st11" d="M326.6,624.58c-4.93-1.1-8.52-4.96-9.76-9.85,4.97-.41,9.93,4.41,9.76,9.85Z"/>
  <path class="st42" d="M468.98,462.76c-3.97-1.01-7.45-1.48-11.23.21-1.21-.68-1.5-1.76-1.26-2.98.16-.84,1-1.54,2.27-1.92,3.8-.71,8.22.21,10.23,4.7Z"/>
  <path class="st53" d="M487.02,476.57c.89,1.11-.11,2.4-.67,2.7-1.86.99-4.88.47-5.36-1.04-.4-1.26.45-2.55,2.04-2.64,1.11-.06,3.15-.06,3.99.98Z"/>
  <path class="st8" d="M443.71,561.26c.15,2.32-2.16,2.83-3.92,2.67-1.24-.11-3.59-1.5-3.32-3.25,1.76-1.15,4.78-.22,7.24.59Z"/>
  <path class="st12" d="M141.38,412.5c-.89,1.33-.56,3.98-2.58,5.13-1.24-1.07-2.52-2.32-3.77-2.84l6.35-2.3Z"/>
  <path class="st0" d="M639.5,178.61c-.18-.1-.88.09-1.02.59-.85,3.17-3.02,5.16-4.53,7.76.75,1.77-3.48,4.57-4.93,3.32-8.26,3.31-17.34,1.55-23.24-6.13l-35.85,28.43c.14,1.89-2.3,3.86-3.91,2.6l-.1,1.54-29.45,19.66c-2.21,2.04-4.34,2.97-6.39,2.8.88,1.87-1.64,2.87-3.17,2.23l.24,1.27-55.13,31.72c1.9,6.7.78,13.29-1.03,19.81l27.77,18.75-.08,1.42c1.39,1.57,2.41,4.17-.54,3.21l-1.15.71-29.29-19.37c-3.88,4.62-9.99,8.37-15.9,9.7l-1.68-.8c.08,1.93-3.44,1.69-4.02,0-2.41,2.24-7.77-.04-10.63-1.41-3.44-1.65-8.18-4.68-9.41-8.06-39.73,20.51-80.36,39.75-121.89,56.38-1.81.72-3.68,1.28-5.56,1.83s-3.8,1-5.73,1.43c.26,2.05-2.89,2.92-4.12,1.65-1.34.88-2.69,1.73-4.09,2.51s-2.78,1.53-4.25,2.11c-17.58,6.89-35.38,13.33-53.29,19.31-1.49.5-3.04.81-4.61,1.12s-3.15.53-4.74.72c-.48,1.95-2.39,2.51-5.71,1.7.08.48.13,1.21-.18,1.33-2.06.76-17.12,5.59-18.01,5.3-.52-.17-.93-.43-1.2-.92-.91,2.39-3.57,2.75-5.7,1.73l-.25,1.32c-10.57,2.58-21.15,5.17-31.73,7.75l-1-1.02c-1.88-.28-1.77-5.01.06-5.45l.23-1.33c10.19-2.73,20.39-5.47,30.59-8.21l1.03.99c.25-1.29,1.21-2.01,2.88-2.16l2.72.45.3-1.38c2.23-1.2,9.02-3.04,11.31-2.23l.14-1.32c2.72-.71,5.56-1.14,8.5-1.29,2.68-1.48,5.4-2.89,8.3-3.91,21.61-7.16,43.06-14.77,64.35-22.82l4.53-.95c-.18-1.81,2.52-3.02,3.67-1.5,11.53-6.12,23.4-11.55,35.61-16.3,31.75-13.94,63.24-28.44,94.45-43.52-1.9-1.56-2.17-5.86-2.26-8.52-.83-25.96,32.3-37.06,47.68-16.43l44.06-25.12c.95-.33,1.88-.39,2.77-.17-.46-1.66,1.02-2.55,4.44-2.65l-.32-1.26c14.9-9.86,29.81-19.73,44.72-29.59l1.3.61c-.43-1.86,2.51-4.06,4.05-2.86l.62-1.52,31.68-25.45c-1.64-5.5-.53-12.82,2.67-17.75,1.3-2,3.62-5.46,6.09-4.51-.34-2.1,2.9-3.7,4.36-2.15,1.75-2.64,7.6-2.69,9.82-.4,2.55.43,4.96,1.5,7.16,3.12,4.87-4.04,6.96-11.17,9.77-8.56,1,.93,1.18,1.9.25,3.17l-6.33,8.62c6.56,8.87,3.35,16.27,4.31,18.35Z"/>
  <path class="st45" d="M518.53,47.01c-.44,2.28-4.18,5.53-6.5,5.61l-2.53-.64c-39.71-24.22-82.06-37.74-128.32-41.64-.81-.07-1.6-.34-2.38-.67-79.94-3.53-160.62,26.62-216.57,83.83l-3.25,1.77-.95,1.01c-5.17-1-9.49,3.75-8.79,8.81l-1.02.99c-.62,1.59-1.3,3.18-2.36,4.53-11.57,14.71-21.77,27.71-30.97,44.23-11.04,19.81-19.88,41.5-25.93,63.33-4.97,17.92-6.81,33.79-8.78,52.09-.17,1.6-.79,3.11-1.44,4.57-.53,1.31-1.86,2.19-4,2.64-1.56,1.3-3.02,1.86-4.39,1.67l.7-18.47c-1.94-.6-1.08-4.78.64-5.45,3.06-26.29,10.35-51.81,20.79-76.45,16.27-38.41,40.34-72.79,71.15-100.86,24.99-22.77,53.1-40.94,84.13-54.3,22.09-9.51,44.75-15.81,68.54-19.69,29.12-4.75,58.1-5.38,87.3-.71,41.98,6.71,79.48,20.7,114.95,43.82Z"/>
  <path class="st45" d="M185.89,388.62l-31.85,8.54-1.24-.95c-.38-8.08-6.12-17.2-15.02-16.89l-1.07-1.12c-.58,1.21-1.82,2.03-3.71,2.47l-4.44,3.85c-.63,1.54-1.56,2.33-2.77,2.38l-1.19-1.2c.7-4.94.78-9.62.22-14.04-4.81.11-5.62,26.52-3.86,30.9l-1.03,1.34c-.01.47-.05,1.17-.38,1.27-1.47.47-6.6,1.2-7.15-.45-.39-.45-.76-.91-1.05-1.42s-.55-.98-.63-1.48c-.8-5.15-.98-10.39-1.13-15.59-.24-8.23.42-12.02,2.37-19.48.24-.93-.8-.37-1.27.07-5.09,4.72-2.53,29.89-1.34,36.98l-1.06,1.02c-.84,2.64-7.52,3.18-8.94.87-.6-1.24-.96-1.22-1.06.12-.03.48-.13,1.2-.47,1.26-2.58.44-8.63.83-11.26.74l-.96-1.16-4.35-16.22c-1.86-6.77-.47-13.54,3.21-19.88-7.62-22.35-12.47-45.41-13.92-68.81l.17-3.67c2.5,1.11,5.06,2.19,7.69,3.24l.82,1.41,1,2.36c2.42,18.61,5.56,37.23,11.16,55.19l3.73-2.65.35.37c-6.22-16.19-9.02-35.01-10.19-52.22l.62-2.2c-.24-1.09-.34-2-.28-2.73,1.18-1.36,4.18-4.02,5.72-3.83l1.84,1.99c13.47,40,53.9,61.42,91.32,77.03.49.28,2.95,10.33,2.82,10.93-.21.93-.46,1.17-1.43,1.66Z"/>
  <path class="st50" d="M251.84,149.4c-.25,1.28-1.36,2.15-3.35,2.59-1.34,1.12-2.55,1.42-3.63.9-4.71,2.16-9.24,4.63-13.59,7.39.49,1.75-1.29,2.48-2.4,1.09-1.53.44-2.51,1.34-2.95,2.68,1.92,5.82,1.38,10.67,0,16.48,1.36,2.64-2.03,6.45-3.96,8.5-5.43,5.79-13.54,8.57-21.39,7.5-2.81-.38-7.87-1.18-8.55-4.08-1.19,1.71-4.2-1.05-4.23-2.92-1.09.67-2.35-.12-3.8-2.36-36.43,24.27-73.07,51.69-93.98,89.83,1.49,1.54,2,3.02,1.54,4.43,1.55-1.01,2.27.63,1.11,1.91,1.91-.07,2.72,4.61,1.02,5.38.32,2.81.07,5.44-.74,7.89l-1.6.41c-1.85,3.24-5.93,4.1-5.45,6.56-1.95-.02-3.96.13-6.03.44l-.65-1.29c-2.99-.47-5.7-1.89-8.34-3.86l-.34,2.88c-.07-1.06-.15-2.87-.72-3.98-4.21-5.72-4.17-13.42.51-18.62,2.09-2.32,5.39-3.65,8.39-4.32.37-2.57,7.21-1.2,7.63.91l1.58-5.32c.54-1.67,1.41-2.39,2.63-2.18-.06-2.87.74-4.18,2.4-3.91l.84-3.61c21.98-32.73,55.2-56.95,87.08-78.72-1.1-3.11-1.53-6.1-1.3-8.97l.84-.52c-1.9-.22-1.46-3.11.21-3.68-1.98-2.16.32-6.7,1.66-9.13,1.04-1.89,2.28-3.96,4.28-4.89,1.58-2.65,6.75-6.51,9.8-4.96.81-1.76,3.87-2.91,4.97-1.08,1.62-2.39,6.24-1.28,8.88-.6,3.07.79,5.97,2.21,8.53,4.06,2.42,1.75,6.79,5.13,6.07,8.12,3.52-1.2,7.02-2.91,10.09-5.03-.62-1.8,3.62-3.85,4.8-2.43,4.67-2.49,9.46-4.84,14.37-7.05.9,1.38.16,2.57-2.23,3.57Z"/>
  <path class="st81" d="M549.96,68.52c1.78,1.95-.98,7.74-3.56,7.83,1.19,1.98-2.26,5.44-4.25,4.34-.14,2.78-4.64,4.02-7.16,4.68-3.72.97-7.71.98-11.44.02-7.79-2-11.83-7.09-15.61-13.38-3.67,1.71-3.18-3.08.05-4.15l-1.12-1.13c-.19-2.36.11-9.12,2.67-9.49-1.58-1.26.53-5.45,2.48-4.62,1.73-2.13,4.01-4.08,6.5-5.61,3.73-2.29,7.71-2.9,12.22-2.71,12.37.51,21.67,12.1,19.21,24.22Z"/>
  <path class="st77" d="M624.33,153.93c-3.24-.55-6.56-.31-9.82.4l-2.02-1.8c-11.32-17.13-23.2-34.01-37.57-48.8l-28.79-25.97.28-1.4c1.53-2.45,2.98-4.99,3.56-7.83,24.53,18.91,45.85,41.41,63.19,67.26l11.18,18.15Z"/>
  <path class="st39" d="M119.93,403.91c1.76-.7,2.88,4.12,1.21,4.86l-7.53,1.12c.48,1.79-3.05,2.18-3.6.5l-21.55,1.67-24.4-.22-14.94-2.05c-1.39-.19-2.16-1.46-2.18-2.55-.02-.89,1.08-2.41,2.53-2.19,12.13,1.82,24.2,2.38,36.15,1.6l12.69-.83c-.02-1.23.53-1.27,1.06-.12,2.98.29,6.2.1,8.94-.87-.3-1.83,3.73-1.88,4.1-.1l7.53-.82Z"/>
  <path class="st34" d="M601.09,73.5c-11.86-2.7-23.41-3.63-35.5-4.64-.94-.08-.36-3.64.64-3.64,12.04.03,23.79,1.54,35.55,4.27.97.22.67,3.11-.69,4.02Z"/>
  <path class="st65" d="M450.11,307.84c.51-.07,1.22.07,1.22.43.11,34.64-2.59,72.99-10.6,108.97l4.89-1.27c37.71-4.32,74.46-14.87,109.17-30.11-.54-.6.28-1.84,1.52-1.6,1.47.67,2.43,4.33,1.36,5.58-36.76,16.92-77.4,27.24-118.27,31.31l-2.75,14.34-.85,1.49c-.6,1.05-2.26,1.29-3.02,1.89l-1.12-.74,2.53-15.56c-42.94,3.38-86.55,1.83-128.96-6.04,7.57,30.57,15.78,62.52,32.61,91.57,3.1,3.36-1.61,4.9-4.21,3.79s-12.28-23.6-14.39-28.63c-9.15-21.83-15.84-44.91-20.42-68.09-28.67-6.16-61.09-14.1-86.4-26.57l-.35-1.47,5.71-1.7,2.9.33c24.98,9.36,50.27,18.46,76.6,23.31-3.06-16.5-5.91-32.97-8.55-49.4l4.12-1.65c1.34-.5,1.65-.12,1.85,1.19,2.65,17.19,5.33,34.42,8.92,51.48,43.39,8.01,87.58,9.8,131.54,6.48,5.05-32.14,8.88-64.14,10.19-98.67.12-3.21.21-6.53-.05-9.61l.76-1.05h4.02Z"/>
  <path class="st16" d="M563.65,379.54c2.22.32,4.07,2.89,4.77,4.8.58,1.59,1.14,3.91.34,5.66-.96,2.1-3.67,2.9-5.57,2.89-1.6-.01-3.05-.6-4.29-1.51-.52-.38-.91-1.01-1.22-1.56-.96-1.72-1.5-3.61-1.36-5.58-1.08-.61-.98-2.05.3-4.3-2.49-4.39.92-6.49,3.96-2.1,1.59.05,2.62.61,3.07,1.68Z"/>
  <path class="st45" d="M565.03,208.56l-45.69,30.24c-2.7.25-5.42.44-8.13.18-20.1-1.94-40.06-3.79-60.2-5.31-1.39-.11-1.51-.44-1.8-1.85l-1.24-.36c-.42-8.09-.8-16.19-1.15-24.29l1.15-.79c-.48-.03-1.2-.14-1.25-.47-.23-1.41-.79-9.85-.58-10.85.9-.57,1.18-1.8.84-3.7l-1.28-.43-3.63-32.91,3.51,35.42-1.15.85,1.29,1c.24,3.69.47,7.37.71,11.05-.98.5-1.32,1.47-1.04,2.92.47-.02,1.21.05,1.25.35.57,4.42.96,11.46.85,15.89.49,1.96.15,3.19-1.03,3.67.14,3.59-.25,5.28-6.07,3.95-36.72-1.55-73.17-2.11-109.36-1.66-.21.42-.56,1.04-.9.98-1.78-.31-7.01-1.9-7.03-3.77-.18,1.05-.84,1.36-1.99.94-.53,1.25-1.4,2.14-2.74,2.45-10.47.65-20.85.88-31.15.69l-.54-1.51,1-13.33,1.29-.79c1.02-1.23,1.49-1.15,1,.44.93-1.5,2.38-.93,1.69.75.89-1.48,1.38-1.27.91.4.43-.91,1.14-1.24,1.16-.83.06,1.88.76,2.52,2.18.96.66.07,1.02.67,1.08,1.82,1.53-1.12,2.58-1.11,2.45,1.08,1.38-1.7,1.64-.72,2.04.9,1.46-1.07,2.08-1.37,1.96.86,1.32.93,2.2.87,2.63-.18l.95.42c-.6,2.01.3,1.65,1.95.61.48-.3,1.46-3.42.09-1,.34-1.59,0-1.73-1-.44.51-1.65.02-1.86-.89-.39.47-1.67-.04-1.9-.99-.44.54-1.66-.55-2.14-1.45-.64-.18-1.88-.57-2.05-1.17-.52,0-1.19-.65-1.93-1.98-2.21-.95,1.49-2.16.96-1.7-.75-1.26-.89-2.13-.83-2.62.18.37-1.73-.22-2-1.24-.55.48-1.7-.68-2.21-1.59-.7l-.76-.33c.36-1.11-.36-1.87-2.18-2.3-1.19,1.38-1.88,1.1-1.5-.66l-1.2-.53c-.23-1.2-.44-2.41-.55-3.63s-.21-2.41-.13-3.6c1.48-20.61,4.14-41.25,8.16-61.52,43.5-7.87,86.86-8.81,130.68-3.58,1.89.23,3.66.59,5.26,1.7l1.34.1c1.53,3.15,6.23,4.39,8.84,1.99l1.29.31c1.81-.68,3.8-.58,5.99.28l-4.83-2.06c-.51-.23-.49-.43.06-.61l2.19-.78c13.02-.13,26.05-.57,39.07-1.32l53.83-5.97,1.55.35c9.33,18.45,15.16,38.28,20.74,58.11.56,2,.88,3.93.8,6,1.35,2.71,2.32,5.58,2.89,8.63l-.91,1.12Z"/>
  <path class="st45" d="M359.65,246.62l1.26-.82,10.77,4.3.35,1.46,1.01-.89,44.87,19.75c.21-.38.03-.64-.53-.78l-42.58-18.7-.19-1.42c-.95-.36-1.73-.24-2.34.35l-10.86-4.53-.35-1.47c-.18.44-.57,1.08-.85.98-7.3-2.59-16.1-6.2-23.11-9.48-1.69-.31-2.47-1.07-2.33-2.28,1.52-.37,3.04-.72,4.57-.97s3.06-.48,4.59-.52c32.53-.78,65.1.09,97.6,1.54l4.79,1.1c-.09,3.13.01,6.21.32,9.25,1,.07,2.09.87,2.55,1.84.34-3.75.5-7.58.49-11.51,21.49,1.43,43.77,3.52,65.18,6.1l.04,1.51-47.22,26.92c-5.62-7.96-14.75-12.31-24.05-11.02-7.86,1.09-14.49,5.74-18.14,11.46-4.61,7.23-4.91,15.62-2.06,23.46-42.93,21.37-86.54,41.15-130.85,59.24-.46-1.25-.9-2.52-1.25-3.8s-.69-2.55-.83-3.85c-4.03-36.46-5.7-73.42-3.7-110.04l1.35-.69,34.53-1.33,1.79.45.99-.92c22.65,9.25,33.97,13.88,33.97,13.88l.22,1.41Z"/>
  <path class="st45" d="M288.91,353c-25.31,10.33-51.13,19.59-77.17,27.68l-5.56.54c-1.78-.31-19.27-6.21-19.59-7.2-4.54-13.82-6.6-31.81-8.01-46.41-2.57-26.53-2.29-53.76,1.45-80.15,34.11-8.31,69.32-12.97,104.42-13.45-1.03,38.65,1.38,77.23,4.92,115.67l-.46,3.32Z"/>
  <path class="st45" d="M446.09,307.83c.33.4.59.96.59,1.81.02,19.8-1.34,38.99-3.43,58.76l-6.96,49.67c-44.39,3.8-89.89,2.13-133.41-6.61-3.97-17.4-6.99-34.26-9.28-51.56-.12-.89-.34-1.39-.73-1.9,45.19-18.12,89.31-38.38,133.17-60.65,5.02,6.25,12.33,10.23,20.06,10.48Z"/>
  <path class="st45" d="M542.15,80.69c.77.21,1.54.44,2.26.75s1.42.62,2,1.08c24.38,19.53,45.89,42.89,62.39,69.47.39.63.62,1.37.85,2.13s.37,1.56.49,2.36c-7.63,5.09-9.32,14.62-7.72,22.68-9.67,9.61-22.57,18.1-33.34,26.54-.85.58-1.61.56-1.91-.4-5.4-23.9-13.32-47.02-22.72-69.7l1.14-2.07c10.59-2.13,21.06-4.66,31.41-7.58.39-.2,1.6-.84,1.39-1.16-3.52-5.4-11.37-11.77-16.68-15.61-13.28-9.59-28.63-15.73-44.1-20.79-3.41-4.29-7.13-8.29-11.16-11.99l-.96-2.41c-1.08-1.37,1.12-2.35,2.45-1.96,1.2,0,1.89.04,2.47,1.25,5.82,11.95,21,15.12,31.73,7.43Z"/>
  <path class="st40" d="M192.03,192.44l.17,2.64c-3.34,14.93-6.28,29.95-8.83,45.06-2.09,5.07-1.66,6.14,1.28,3.22,32.12-7.45,65.06-10.99,97.95-12.44l1.15-14.77,1.29-.78c.52.43,1.08.23,1.67-.6l-.15,1.27c.87-1.51,1.95-1.04,1.39.61.8-1.47,1.09-1.17,1.02.45l-1.12,14.91,28.89-.99c1.88-.06,3.12-.54,3.39-2.82l2.97.45c.7,1.2,1.16,2.4,1.38,3.6-.62.63-1.47.81-2.6.85l-34.25,1.18c-1.48,39.49.45,78.34,4.95,117.23l-3.67,1.5c-4.21-38.83-7.27-78.46-5.13-118.31-34.75,1.62-68.96,5.69-102.97,13.51-4.81,41.89-3.28,84.21,6.69,125.21l17.38,6.07c1.92.67,4.87,1.83,6.86,1.21l-8.65,2.61c-4.32-.8-8.58-1.74-12.77-2.83.12,2.22.5,4.37,1.17,6.44l-5.6,1.71c.38-.67.26-1.48.04-2.43l-2.19-9.34c-26.41-11.17-52.91-23.63-72.18-44.85l-10.33-13.01c-4.57-6.85-7.77-14.1-9.88-21.98,1.4-2.46,2.29-5.44,2.34-8.29l1.28.34c7.17,40.95,49.08,65.35,85.05,80.29,2.61,2.78,2.89,2.63.81-.45-7.37-38.34-9.76-77.77-5.35-116.61,2.44-2.83,1.28-3.04-3.5-.64-22.36,5.87-45.41,12.55-65.97,22.86-4.64,2.33-8.74,5.31-11.91,9.09l-1.44-.27-1.11-1.91c-.52-1.74.25-3.4,2.32-5,10.2-7.37,22.88-12.71,35.27-17.12,15.49-5.53,31.2-10.72,47.32-13.99,2.32-18.66,5.68-36.99,10.08-54.98l1.25-.81,4.23,2.92Z"/>
  <path class="st45" d="M288.74,359.66c.29.06.73.08.9.24.18.17.27.62.37,1.19l8.81,49.6c-28.45-5.56-55.14-14.34-81.04-25.28,23.9-7.92,47.6-16.39,70.96-25.76Z"/>
  <path class="st45" d="M530.08,239.18l35.94-24c3.17,10.6,4.53,21.38,5.85,32.73l-40.38-7.68c-.79-.15-1.26-.61-1.41-1.06Z"/>
  <path class="st37" d="M614.51,154.33c-1.48.32-3.29,1.43-4.36,2.15-18.47-30.35-40.42-54.12-67.99-75.78,1.64-1.17,3.16-2.6,4.25-4.34l29.38,26.51c14.94,15.73,27.83,32.89,38.72,51.47Z"/>
  <path class="st3" d="M519.34,238.8l-4.44,2.65c-.42-.35-.88-.69-1.66-.76l-63.35-5.94-.06,9.95c0,.55-.4.62-.63.65-.32,0-.61-.03-.82-.18-.62-.45-.65-12.26.01-12.94.2-.21.49-.32.82-.4.45.29,1,.63,1.92.68,22.99,1.22,45.62,3.25,68.21,6.3Z"/>
  <path class="st2" d="M203.1,383.3l-11.61,3.61c-.53.07-1.58,0-1.68-.77l-.96-7.55,12.8,3.5c.73.2,1.21.62,1.45,1.21Z"/>
  <path class="st4" d="M512.02,52.62c-1.01,1.24-1.79,3.03-2.48,4.62-1.65-.31-3.33-.67-4.82-1.46-17.9-9.5-33.48-17.58-52.78-24.33-11.98-4.19-24.72-8.09-36.62-10.44l-.29-.53c-1.4.31-2.84.59-4.27.4-14.57-1.91-28.2-3.44-42.91-4.41-2.98.28-5.73,0-8.26-.84l.19-1.51c6.07-1.91,12.46-2.71,19.16-2.39-8.13-.81-16.96-.92-24.08,3.7l-2.31.33c-1.45.66-2.95,1.18-4.54,1.32-12.94.73-25.81,2.15-38.59,4.25l-2.41-.33c-26.93,7.9-52.81,16.64-77.51,30.3-23.19,12.83-43.76,28.74-63.04,46.82l-2.27,1.13c-1.48,1.04-5.26-2.41-5.23-3.98,6.61-7.45,13.72-14.14,21.67-20.67,33.01-27.11,71.33-46.62,112.79-57.33,75.33-19.47,153.5-6.21,218.61,35.35Z"/>
  <path class="st54" d="M152.43,111.53c-.5,1.48-1.03,3-1.99,4.25-13.9,18.19-25.67,33.63-35.95,54.41-6.6,13.34-11.94,27.03-16.4,41.21s-7.86,28.72-9.56,42.92c.54,7.5-.19,14.63-2.19,21.4-2.85-.49-5.18-1.46-7.63-.91,1.27-34.83,10.52-68.67,25.04-100.66,11.32-24.94,26.14-47.73,44.44-68.08,1.63.2,4.84,3.8,4.23,5.45Z"/>
  <path class="st46" d="M158.96,95.26c2.03.67,3.65,2.63,5.23,3.98,1.78-.31,1.9,1.73.25,2.33.44,1.18.56,2.43.36,3.76,1.9,2.15-2.03,6.06-4.48,6.57l2.04,1.68c5.32,15.06,14.45,27.47,24.15,39.18.67,1.68.39,2.51-1.51,3-3.02.77-11.08-10.5-13.21-13.5-3.49-4.91-12.88-19.91-12.85-25.1,0-.59.09-1.18.21-1.77-1.12.42-1.87-.48-2.27-2.7l-.64-.34c-.46,1.94-4.22,1.28-3.82-.84-1.67-1.53-3.59-3.34-4.23-5.45-.96-3.19.36-6.51,2.58-8.78,1.94-2,5.35-2.96,8.18-2.03Z"/>
  <path class="st75" d="M85.91,303.56c1.58,18.38,4.78,36.53,10.6,54.57l-5.71,4.05c-6.11-19.36-10.07-39.21-11.57-59.47,1.97.31,4.09-.44,6.19-.92l.49,1.77Z"/>
  <path class="st14" d="M112.4,404.73l-4.1.1c-1.97-10.45-3.82-37.18,2.69-39.63.87-.33,2.39-.12,2.65.66-1.46,3.55-2.52,7.13-2.68,10.96-.4,9.47-.08,18.72,1.45,27.91Z"/>
  <path class="st23" d="M99.36,405.7c-.38-.04-.78.1-1.06.12-3.03-11.13-4.6-22.77-3.73-34.33.24-3.16,1.92-6.17,5.2-6.8-4.22,13.18-2.53,27.79-.41,41.01Z"/>
  <path class="st66" d="M296.15,126.01c-7.58,4.66-15.58,8.64-23.98,11.92-11.3,5.01-22.12,10-32.47,14.96l-4.8,2.43c-3.07,2.11-6.58,3.79-10.09,5.03-5.19-7.84-13.89-12.71-23.48-11.59-.41-.28-1.02-.72-.92-1.07,4.98-17.66,14.69-41.08,25.56-56.02,2.85-.3,3.33-.82,1.43-1.55-.51-2.39,9.69-15.16,12.19-18.25,22.83-28.19,53.68-47.19,89.65-52.99,3.07-.49,19.64-2.83,19.99-1.08.29,1.44-3.16,3.62-4.53,4.48l-6.97,6.17c-21.49,26.21-30.9,60.01-39.3,93.13-.44,1.61-1.36,3.03-2.26,4.41Z"/>
  <path class="st45" d="M93.69,288.72l-1.02-5.38,4.33-4.5c4.6-3.52,9.44-6.13,14.89-8.49,20.92-9.08,42.39-15.78,65-21.14-4.66,42.28-2.35,81.02,5.66,122.54-30.64-12.77-58.37-27.33-77.32-54.27-5.13-7.78-9.33-15.79-11.08-25.01l-.46-3.75Z"/>
  <path class="st45" d="M196.36,149.84c-8.75,2.71-14.63,9.91-15.74,18.98l-1.65,1.36c-16.14,5.91-32.34,11.87-47.19,20.77-1.1.6-2.02,1-2.34.72-2.17-1.92-.37-21.39.36-25.38,3.51-19.16,14.07-38.33,28.03-51.5l1.32.6c5.25,14.32,13.03,27.23,23.57,38.15.92.95,2.36,1.36,3.37.67l-10.42-13.22c-6.91-8.77-11.1-19.02-15.36-29.1l1.26-.32c14.99-13.71,36.55-17.41,56.2-19.34,3.14.19,4.55.45,2.73,3.33-9.59,16.59-16.36,34.47-22.74,52.42l-1.41,1.85Z"/>
  <path class="st45" d="M187.8,189.52c0,1.97-.51,3.74-1.04,5.88-4.12,16.64-6.95,33.24-9.49,50.64-22.21,5.5-43.82,12.13-64.76,21.27l-12.34,6.13c-3.77,1.84-6.58,4.55-8.61,7.98l-2.92-4.14c.6-2.35,2.34-3.9,3.38-5.87,7.75-14.66,24.1-32.69,36.84-44.06,17.37-15.5,35.86-29.27,55.51-41.6l3.42,3.77Z"/>
  <path class="st76" d="M352.56,15.76l6.12-1.17.92,1.04c18.61-.05,37.3,1.04,55.44,4.86.01.58-1.42.45-1.34.45.98,0,1.8.11,2.79.32,31,6.36,52.25,17.98,76.79,37.8,3.57,2.88,7.65,6.32,10.14,9.56-.02.48-.08,1.17-.43,1.27-.88.26-8.12.94-8.74.81l-.98-1.14-.14-1.39c-27.69-26.12-64.38-41.33-101.77-46.8,19.35,14.46,29.05,38.03,37.32,60.04.16,1.89-4.01,2.76-4.82,1.11-1.23.11-1.83.02-2.23-1.19-7.99-22.99-21.84-55.07-47.69-61.78-9.29-2.41-18.53-1.17-26.35,4.52-23.94,17.42-36.63,65.12-43.33,91.96-.29,2.98-1.01,5.56-2.17,7.75.81,1.74-4.84,3.81-5.92,2.25,3.87-17.22,8.29-34.19,14.57-50.97l10.64-24.34c6.64-12.44,14.63-25.62,27.52-32.46-51.33,1.58-93.54,28.24-120.76,71.83l25.76.22,13.18.11c.25.11.33.32.33.47l-13.48.26-27.24,1.4c-8.4,13.02-15.03,26.59-20.09,41.12l-5.24,15.12-4.97,1.08c5.84-19.54,13.46-38.25,24.17-56.59-21.58,1.69-42.03,5.8-58.72,18.87-.28.22-.93-.14-1.48-.22,3.56-2.59,4.57-6.08,4.12-10.33,1.31-.91,1.77-.08,1.92,1.34,16.94-8.88,36.32-13.11,55.54-13.5,18.06-30.23,49.57-61.32,85.02-67.87,2.83-.52,1.8.43.4-.02-.14-.05-.23-.26-.3-.52,14.98-3.19,30.24-4.95,45.54-5.24Z"/>
  <path class="st45" d="M180.41,172.51c-.19,3.26.96,6.27,2.18,9.79l-8.54,5.89c-16.03,11.06-31.42,22.34-45.85,35.51-13.5,12.33-25.84,25.27-35.25,40.62-.48-.11-1.21-.28-1.25-.63-2.06-17.52,2.11-34.19,13.01-48.52,16.43-21.61,45.93-35.3,71.6-42.74.62-.18,1.29-.18,1.99-.16s1.4.12,2.1.25Z"/>
  <path class="st77" d="M156.25,112.36c1.68.29,2.21,1.82.51,2.5-20.27,18.85-31.63,49.38-27.12,77.06-13.91,9.39-27.03,20.32-33.78,36.09-1.53,3.56-3.26,7.79-3,11.57-1.16,6.29-2.02,12.58-2.58,18.87.88,3.43.97,6.69.28,9.77l-4.22,7.51,2.3-29.79c4.88-28.03,13.05-52.91,25.77-78.35,10.2-20.41,23.25-38.8,38.02-56.06.78.55,2.63.78,3.82.84Z"/>
  <path class="st76" d="M432.01,138.09c1.71.29,1.66,3.74.17,4.33-44.85-7.09-89.96-3.97-135.17,2.61-3.99,22.92-6.66,45.44-8.25,68.01-1.1-.78-1.82-.65-2.14.39-1.64-.36-2.39-1.14-2.27-2.34.48-.2.65-.48.71-1.33,1.42-21.41,3.78-42.25,7.6-63.97l-44.29,8.21c-1.88.35-3.39,1.09-4.91.15-.42-.5.04-.92,1.39-1.25,1.82-1.63,4.69-2.81,6.98-3.49l.59-.03c13.05-3.05,26.25-5.62,39.59-7.71l1.85-10.81,1.5-1.51c-.47-1.85,3.96-3.64,5.12-2.15l1.08.92c-.89,4.27-1.59,8.43-2.08,12.48,42.37-5.2,87.05-8.79,130.84-1.41.15-.95.68-1.18,1.69-1.09Z"/>
  <path class="st20" d="M507.99,67.86c-.15,1.29-1.28,2.39-1.88,3.36.65.46,1.34.79,1.83.79l-2.45,1.96c-4.39,3.02-8.56,6.46-11.81,10.69,1.06,1.52-2.91,5.99-4.56,5.31-5.97-2.46,8.74-14.98,11.68-16.91-21.46,1.46-44.11,5.84-65.94,10.69-2.15.42-4.35.33-6.52.22.76,1.65-3.14,2.58-3.9,1.39l-1.58.03c-1.46.98-2.95,1.99-4.65,2.5-28.08,8.44-55.13,16.58-82.73,26.78-10.01,3.7-19.92,7.65-29.79,11.69l-5.22.84-5.12,2.15-2.11,1.77c-11.92,5.49-23.8,11.1-35.64,16.82l-5.19,1.44c-.15.08-.3.14-.59.03.54-.74,1.89-1.28,2.03-2.87-4.06,1.48-7.65,3.28-11.25,5.48l-2.92.87,4.25-2.71c17.25-8.75,34.6-16.69,52.2-24.17l5.92-2.25c.26-.45.54-.89.89-1.27s.67-.72,1.07-.9c19.92-8.79,41.44-16.34,62.16-23.33,17.85-6.02,36.54-12.23,54.84-16.36.42-.09.89,0,1.37.09s.97.29,1.44.5l4.82-1.11c.71-.49,1.43-.95,2.19-1.34s1.5-.75,2.28-.94c17.65-4.28,37.11-8.64,55.15-10.28.81-.07,1.63.03,2.46.15s1.68.34,2.51.58l10.15-.94c-.53-1.81,3.98-2.46,4.59-.75Z"/>
  <path class="st21" d="M159.15,115.4c-1.2.71-2.08,1.56-3.16,2.71-17.93,19.16-28.8,46.12-26.3,72.78,16.12-9.85,33.2-16.67,50.93-22.07l-.21,3.68c-16.85,4.76-33.32,11.29-48.55,20.5-22.02,13.32-39.71,34.37-39.36,60.93l.46,10.38-2.4,3.91c-.71-5.12-2.41-10.69-1.13-16.04,1.15-4.77,2.88-9.17,2-14.26,4.23-20.26,19.83-35.77,37.21-46.44-4.31-24.7,4.86-51.69,20.37-70.56l7.15-7.1c.5-.03.97-.4.75-.74l-.66-.71c.88.04,1.75-.13,1.98.51l.93,2.53Z"/>
  <path class="st20" d="M234.9,155.32c-1.06,1.85-3.34,2.25-5.3,3.27-1.58.82-2.77,1.93-4.79,1.77l10.09-5.03Z"/>
  <path class="st80" d="M415.03,20.48l6.68,1.41c31.27,6.58,60.62,18.76,87.83,35.35-1.42,3.33-1.14,7.04-1.55,10.62l-4.59.75c-.66-.09-1.6-.11-2.3-.78-14.55-14-30.71-25.62-49.13-34.05-12.78-5.85-25.43-10.36-38.95-12.72.78-.78,1.55-.52,2.01-.58Z"/>
  <path class="st74" d="M446.64,243.51c-1.07-2.84-.24-5.98-.51-8.92-37.59-2-74.6-2.8-111.37-1.48-.53,1.79-4.17.07-3.73-1.66.72-.54,1.33-.81,2.56-.83,37.59-.83,74.77-.16,112.48,1.56l.39-3.01,1.23.68.17,12.79-1.21.89Z"/>
  <path class="st9" d="M443.66,144.81c-1.29-1.22-.53-2.29,1.15-1.78,30.37,6.53,59.39,17.87,86.44,33.64,9.95,6.37,19.63,12.26,28.32,20.34l-21.13-14.04c-24.48-16.26-65.81-32.63-94.78-38.16Z"/>
  <polygon class="st52" points="284.36 211.09 310.95 222.84 309.48 226.16 266.19 207.04 267.66 203.72 288.77 213.04 310.95 222.84 309.48 226.16 288.96 217.1 285.04 215.37 266.19 207.04 267.66 203.72 284.36 211.09"/>
  <path class="st62" d="M440.07,133.33c1.55-2.59,7.28,3.23,4.79,4.81.39,1.36.16,2.93.02,4.29l-.06.61-1.15,1.78c-1.34,2.07-3.97,2.55-6.8,1.86-1.82-.44-3.99-2.01-4.67-4.25-.41-1.35-.19-2.91-.17-4.33-2.2-1.6,2.63-6.98,4.37-4.72.08-2.14,3.08-2.07,3.68-.05Z"/>
  <path class="st61" d="M331.03,231.44l3.73,1.66,26.29,10.78c1.94,1.33.84,3.48-1.4,2.74l-35.18-14.37c-.64-.42-1.7-.88-1.92-1.49-.28-.78.19-1.58.54-2.12l7.93,2.79Z"/>
  <path class="st27" d="M446.97,191.36c.47,2.91-.53,7.56-2.54,2.92l-3.7-36.9c.83-.51,1.51-.91,2.49-.88l3.76,34.85Z"/>
  <path class="st64" d="M447.96,206.38l1.25,25.44v13.53c-.63.06-1.32.15-1.98-.14-.63-.28-.41-1.25-.58-1.7l-.19-14.36-1.07-19.91c-.38-2.46.82-6.04,2.58-2.86Z"/>
  <path class="st32" d="M447.96,206.38c-.68-.03-1.66,0-2.01.36-.65.65-.52,1.74-.56,2.5l-.96-14.96c.59.47,1.24.82,2.24.72l.3-3.64.39,3.75.6,11.27Z"/>
  <path class="st45" d="M526.9,241.41c.51.57,1.03.77,1.87.93l43.51,8.43c3.73,30.4,2.89,60.16-1.66,90.08l-7.43,36.83c-.14.69.26,1.36.45,1.86-2.25-.32-4.62.24-5.79-3.46-2.34,1.79.12,3.02.07,3.89l-1.62,4.27-.78,2.46c-36.53,16.42-75.33,27.03-115.5,31.09,4.82-27.35,8.31-54.53,9.75-82.4l.32-27.56c6.72-1.79,12.92-4.66,17.31-10.55l30.72,20.31c.3-.37.69-.65,1.18-.63.44.02,6.16,4.67,6.85,5.4l-.08,1.5,1.23-.51,20.74,18.85c-6.14-6.1-12.54-12.14-19.21-18.11l-.67-1.64-1.59.25c-1.08-.26-7.99-6.69-7.92-8.32l-29.49-19.91c3-6.96,3.31-13.83,1.43-20.75l56.29-32.31Z"/>
  <path class="st13" d="M508.19,322.46c.22,1.53-.81,1.84-2.1,1.4l-7.96-6.27c1.17-.48.81-2.04.54-3.21l9.51,8.07Z"/>
  <path class="st47" d="M506.09,323.86c.37-.85,1.12-1.23,2.1-1.4,7.16,6.08,14.46,12.05,21.06,19.11-.05,1.01-.11,1.88-.67,3.03l-22.49-20.73Z"/>
  <path class="st56" d="M552.95,368.72c.54.68.31,1.48-.19,1.84-.55.4-1.2.18-1.77-.52l-15.46-18.86c-.24-.29.69-1.13,1.04-1.2.55-.11,1.42.06,1.97.75l14.4,17.99Z"/>
  <path class="st49" d="M374.6,249.53l43.32,19.02c1.1.48,1.46,1.14,1.19,2.1-.15.52-.68,1.37-1.65.94l-45.43-20.03c-2.49-2.08.18-3,2.58-2.03Z"/>
  <path class="st79" d="M374.6,249.53c-.56-.02-1.35-.05-1.93.3-.39.24-.59,1.02-.65,1.73l-12.37-4.94c1-.56,1.37-1.55,1.4-2.74l13.55,5.65Z"/>
  <path class="st45" d="M493.68,84.65c.26.25.6.6.99.7l20.68,5.02c9.55,13.26,17.27,27.15,24.15,42.42-22.04,3.34-43.28,5.74-65.15,6.79l-28.2.55c-.58-.46-.99-1.64-1.3-2.01-.63-2.21-2.53-4.27-4.79-4.81l-1.19-2.13c-3.53-14.94-7.11-29.87-10.72-44.79l.18-2.44c18.76-4.29,37.56-8.09,56.92-10.75l20.49-1.84c-6.23,3.67-11.29,8.29-15.82,13.8-1.11,1.35-1.39,3.06.19,4.16.8-2.33,2.49-3.28,3.57-4.68Z"/>
  <path class="st18" d="M569.08,205.7l-4.05,2.86-2.18-7.72c-.45-1.63-2.49-2.45-3.45-3.53l.48-.49c.61.28,1.03,1.36,2.36,1.23-4.91-21.54-12.25-41.93-21.4-62.57l-47.99,5.41c-16.22,1.83-32.02,1.81-47.98,1.53-1.64-.39-1.48-3.73-.02-4.29,1.1-.35,1.44.01,2,.77,28.89-.1,59.21-2.11,88.95-6.71,3.57,1.46,3.86.57.86-2.67-6.21-13.3-13.73-26.68-22.13-38.09-7.02-1.62-14-3.37-20.94-5.26l.09-1.52c-.07-.41-.12-.82-.08-1.22.18-2.02,9.05-9.96,11.89-9.47,4.8,3.91,8.84,8.43,12.79,13.42,23.01,7.18,47.34,18.55,61.93,37.79-1.93,1.72-4.13,2.73-6.64,3.29l-28.12,6.34,13.63,35.46,8.87,32.86c.29,1.06.05,2.07,1.13,2.57Z"/>
  <path class="st45" d="M575.67,124.57c-10.58,3.58-20.77,5.64-31.58,7.5-6.18-14.04-13.46-26.86-22.15-40.05,16.12,5.01,30.61,12.77,43.73,22.65l10,9.9Z"/>
  <path class="st45" d="M307.02,21c.52.15,1.23-.02,2.01.54l-7.68,1.88c-34.62,11.98-59.69,35.96-78.85,66.96-20.4,1.25-40.06,4.33-57.31,15.08-.04-1.88.17-3.22-.75-3.88l-.25-2.33c38.93-39.42,88.85-66.73,142.83-78.24Z"/>
  <path class="st71" d="M359.6,15.63c-2.31.55-4.86,1.27-7.04.13,7.67-6.37,16.78-5.94,26.65-5.35.98.06,1.15,1.3.85,1.9-1.16,2.31-13.38-1.03-20.46,3.32Z"/>
  <path class="st45" d="M284.36,211.09c-.88,1.32-1.33,1.21-.82-.36-.88,1.58-3.2.63-2.44-1.08.06,1.8-6.14-1.02-6.14-1.37,0-.43.05-.86.12-1.28-.98,1.46-1.53,1.21-1.11-.49-.88,1.35-1.12,1.24-.72-.32-.88,1.49-1.34,1.29-1.37-.61-1.29,1.62-1.3,1.16-1.25-.55,0-.34-.72-.05-1.33.75.24-1.76.11-1.61-1.11-.24-1,1.13-1.07,3.4.61,1.31-.25,1.73.62,2.17,1.44.64-.56,1.64.46,2.1,1.33.59-.41,1.56-.17,1.66.71.31-.43,1.7.13,1.95,1.11.49-.75,1.47-.37,1.64,1.15.51.19,2.15.24,2.15,1.96.86.21,1.89.6,2.06,1.17.52-.38,1.57-.13,1.68.77.34-.41,1.71.15,1.96,1.13.5.23,2.24,2.43,2.86,4.34,1.92-.52,1.25.1,1.5,1.13,1.84l-1.3,16.7c-34.5,1.47-68.19,5.27-102.35,13.15,2.58-18.55,6.25-35.73,10.63-52.78,12.86,7.03,28.57,1.59,33.89-11.91.99-3.69,1.38-7.32,1.17-10.89-1.95-4.58-1.37-7.34,1.77-8.26l2.4-1.09c1.33-.96,10.8-6.5,11.59-6.44.21.02.41.14.6.29,15.94-3.54,32.03-6.68,48.26-9.42,2.13.7,2.72,1.66,1.62,4.32-3.33,20.67-5.81,41.4-7.42,62.18l-1.56-.12Z"/>
  <path class="st20" d="M228.87,161.38l-2.84,2.51c2.35,5.75,1.96,11.43-.1,16.65-.56-1.99.11-3.84.76-5.86,1.47-4.56-2.31-8.84-.46-12.35.55-1.03,1.95-.61,2.63-.95Z"/>
  <path class="st20" d="M244.85,152.89l-1.39,1.25-12.2,6.14c.32-.87,1.26-1.48,2.31-2.04l7.55-4.08c1.28-.69,2.47-1.44,3.72-1.27Z"/>
  <path class="st5" d="M252.32,200.05l-23.91-11.27c-1.13-.53-1.64-1.44-1.21-2.24.74-1.38,1.54-1.34,2.87-.69l23.42,11.42c.88.43,1.24,1.28,1.22,1.85-.03.83-1.07,1.56-2.39.93Z"/>
  <path class="st44" d="M423.84,82.5c-33.6,7.74-89.46,27.37-121.77,41.26-.66-1.16-.31-2.2-.01-3.58,3.88-17.81,8.5-35.06,15.34-51.97,7.05-17.44,20.39-44.39,38.37-49.71,13.8-4.08,27.93,1.47,37.89,11,5.23,5.01,9.26,9.81,13,15.96,6.61,10.86,11.68,22.3,15.7,34.42.36,1.08.79,1.85,1.47,2.61Z"/>
  <path class="st31" d="M493.25,69.55c-21.78,2.01-43.26,6.93-64.59,11.84-.52,0-1.02-.06-1.6-.28s-.36-.98-.56-1.55c-3.6-10.12-7.41-19.75-12.7-29.05-7.45-13.1-14.83-23.38-27.79-31.22,41.08,5.21,80.01,21.17,109.8,49.46-1.17.16-2,.22-2.56.79Z"/>
  <path class="st45" d="M422.87,85.39l2.69-.25c4.52,13.86,8.11,28.04,10.93,42.34.19.94.18,1.92.16,2.91s-.12,1.99-.26,2.99c-2.22.73-3.62,2.62-4.37,4.72l-.83,2.32c-30.09-4.47-60.03-5.22-90.26-3.02l-43.17,4.62,2.73-14.81c37.72-15.82,82.88-31.53,122.38-41.81Z"/>
  <path class="st19" d="M295.36,129.34l-2.29,13.4-36.57,6.52c-1.53.27-2.82.73-4.08.12,13.9-7.5,28.37-13.92,42.94-20.03Z"/>
  <path class="st1" d="M428.34,83.97c4.45,16.34,8.98,32.64,11.73,49.36-1.12-.27-2.64-.3-3.68.05-3.03-16.06-6.87-31.89-11.81-47.62-.15-.46-1.65-.35-1.71-.36l5.47-1.42Z"/>
  <path class="st63" d="M569.93,212.58l6.01,36.45,26.41,9.06c11.49,4.82,22.23,10.51,31.93,18.21,3.25,3.34,6.75,6.22,8.67,10.37,2.8,6.07,1.28,12.18.23,18.37-1.51,8.97-3.77,16.94-8.38,24.84-6.1,10.47-13.88,19.16-23.15,27.07-10.43,8.9-21.36,16.52-33.62,22.67l-9.61,4.72c-1.76-.05-3.84-3.18-4.77-4.8-1.34-.28-1.9-.94-1.66-1.98,9.17-40.4,15.08-83.06,9.16-125.76-14.89-2.71-29.69-5.69-44.39-8.91l.14-1.47,3.17-2.23,1.22-.3,39.18,7.52c-1.12-9.41-2.36-18.84-4.82-28.01l.36-3.21,3.91-2.6Z"/>
  <path class="st45" d="M588.28,330.23c12.2-1.02,23.96-4.09,35.4-8.34,5.41-2.38,10.05-4.95,14.66-9.23-2.93,9.33-7.78,17.81-13.98,25.73-6.49,8.21-13.83,15.02-22.23,21.28-11.21,8.09-22.52,15.16-35.78,21.36,10.87-42.8,15.02-85.01,9.86-129.14,20.72,6.11,42.98,14.55,58.42,28.46,2.59,3,6.12,5.84,7.11,9.95,3.28,13.65-8.19,25.94-21.27,30.76-10.45,4.32-21.17,6.24-32.18,9.17Z"/>
  <path class="st45" d="M212.06,387.12l18.54,7.73c22.55,8.29,45.37,14.8,68.94,19.5,7.56,33.93,17.45,66.21,34.35,96.3,1.15.84,2.49,1.02,4.04.12-10.47-18.57-18.52-37.94-24.69-58.45l-9.67-37.3c43.64,8.31,88.07,9.48,132.03,6.44l-2.82,17.4c-.67.52-1.4,2.57-2.76,1.56-4.09-3.06-8.75-4.11-13.81-2.79-4.23,1.1-7,5.07-9.49,9.01-4.22,1.45-9.52,1.87-13.26,4.97s-4.21,7.86-4.18,12.44c-3.89.47-8.16,2.24-10.51,5.21-2.99,3.78-2.22,8.84-2.01,12.75-3.26,1.64-8.11,3.38-9.75,7.45s-1.54,8.67.58,12.64c-.2,3.92,1.84,6.83,4.76,9.57l-39.48,1.16c-1.28.04-3.25,1.23-4.49.27-11.67-9.03-26.02-13.49-40.8-11.26-15.19,2.3-34.88,11.21-40.46,25.64-14.83-6.64-33.87-3.26-47.56,5.13-4.61,2.82-7.32,7.08-9.76,11.7l-2.07-13.67c-1.98-7.35-6.05-13.48-10.09-19.85l-13.09-20.61c-6.26-11.95-11.13-24.27-15.18-37.1l4.55-12.04c6.33-16.76-3.05-25.24.09-38.42l32.98-8.06c1.14-.29,1.97-.2,2.51.28,11.15,33.64,27.61,68.79,53.18,92.6-23.96-26.49-41.19-59.48-51.57-93.5l1.58-1.11,19.39-5.71Z"/>
  <path class="st57" d="M192.67,392.82c-.87.99-.08,1.67.3,2.9,9.05,29.47,23.18,56.55,41.99,80.9,5.42,7.01,11.2,12.61,17.22,18.91l8.61,9.01c-6.01-3.1-10.26-7.91-14.95-12.38l-11.3-10.78c-10.47-11.56-18.46-24.56-26.05-38.21-8.52-15.32-14.67-31.2-20.1-47.81-.22-.67-1.03-.81-1.43-.81l5.7-1.73Z"/>
  <path class="st9" d="M161.8,455.53c19.04,20.19,41.33,35.67,65.4,50.05-23.9-9.22-52.35-31.69-69.42-50.27-2.1-2.29-4.23-4.52-3.28-7.73,17.05,13.21,40.1,14.53,60.49,12.84-5.51,2.62-11.14,2.39-16.84,2.5-12.62.23-24.62-1.99-36.36-7.39Z"/>
</svg>