<?xml version="1.0" encoding="UTF-8"?>
<svg id="Layer_1" xmlns="http://www.w3.org/2000/svg" version="1.1" viewBox="0 0 1180.67 980.18">
  <!-- Generator: Adobe Illustrator 30.6.0, SVG Export Plug-In . SVG Version: 2.1.4 Build 109)  -->
  <defs>
    <style>
      .st0 {
        fill: #fe7a01;
      }

      .st1 {
        fill: #fe7b01;
      }

      .st2 {
        fill: #fd7a01;
      }

      .st3 {
        fill: #fe7c01;
      }

      .st4 {
        fill: #fd7b01;
      }

      .st5 {
        fill: #fd7b02;
      }

      .st6 {
        fill: #fe7b00;
      }
    </style>
  </defs>
  <path d="M696.81,586.12l6.51,7.88c12.25,14.83,28.84,24.53,47.74,28.25,2.19.43,3.33,2.23,3.04,4.8-5.07,44.24-12.76,87.53-23.46,130.84-8.93,36.15-20.32,70.66-34.53,104.94l-22.08,43.22c-12.79,25.03-41.68,58-66.79,72.05-51.18-28.74-83.73-87.57-106.66-139.82-20.98-47.8-36.14-97.37-47.05-148.36-.88-4.11-2.69-6.01-6.45-7.44-4.22-1.61-8.78-1.52-12.15,1.33-2.95,2.5-4.73,6.62-3.92,11.24,5.37,30.49,13.53,59.69,23.11,89.22,11.79,36.36,26.22,70.77,44.08,104.5,18.1,33.78,40.48,66.6,70.14,91.41-103.53-4.85-204.34-47.63-283.19-112.97-41.99-34.79-77.77-76.03-105.72-122.49-1.6-2.66-1.84-5-1.22-7.48l.3-1.9c171.1-27.28,352.23-86.78,512.48-149.96,2.45-1.29,4.39-1.05,5.82.74Z"/>
  <path d="M321.71,361.08l3.9,4.34c5.21,7.96,11.65,14.1,19.34,19.66,33.2,24.03,64.29,11.42,66.18,13.92.34.45,1.04,1.27.93,2.62-6.99,81.1-3.69,162.23,9.69,242.55.46,2.77.37,4.45-.46,6.72l-.33,2.03c-82.35,25.36-172.48,47.84-257.81,60.47l-.86-1.95c-1.3-.62-2.85-1.64-3.62-3.32l-17.58-38.58c-9.35-24.37-17.14-48.63-22.91-74.06-2.35-10.36,10.27-7.49,21.32-20.95,15.93-19.4,16.18-46.02,1.58-66.34-1.6-2.22-2.46-5.27-.79-7.15l-.68-1.96c26.03-28.9,54.9-55.88,87.53-80.9,27.62-21.19,56.98-40.57,87.32-57.34,2.14-1.18,5.98-2.28,7.25.22Z"/>
  <path d="M880.99,163.72c6.31,32.35,30.68,57.97,63.87,62.64,4.15.58,6.2,3.31,7.82,6.97,20.75,46.82,35.31,95.45,43.98,146.02l6.41,43.11.18,1.98c-49.43,27.82-101.19,53.16-153.28,75.86-2.98,1.25-4.87.81-6.74-1.78l-9.68-13.92c-12.03-15.17-28.16-25.35-46.85-29.98-2.89-.72-4.17-2.42-4.18-5.25l-.12-28.3c-2.54-76.43-11.42-159.93-31.15-233.68-.82-3.07-2.23-5.39-1.38-8.88,3.22-1.56,6.52-2.98,10.02-3.76,35.99-8.08,76.34-12.13,112.97-14.64,3.05-.21,7.27.41,8.14,3.63Z"/>
  <path d="M728.38,184.56l1.45,9.68c9.66,38.09,16.74,76.07,21.49,115.29,5.66,46.74,8.78,92.96,9.28,139.85.02,2.16-1.32,3.45-3.2,3.72-19.93,2.87-37.79,12.16-51.53,26.45-1.78,1.41-3.76,1.19-5.93-.64-68.14-48.59-145.24-95.36-223.44-133.55-3.29-1.3-4.86-3.17-4.72-5.62,5.29-18.91,2.76-38.34-4.85-56.66-1.33-3.19,1.45-7.07,2.22-9.53-.79-3.01,3.28-5.04,5.76-6.27,36.94-18.35,78.68-34.43,118.27-48.12,42.46-14.68,86.07-27.2,129.7-37.12,2.3-.52,5.34-.38,5.51,2.52Z"/>
  <path d="M689.85,503.94c-7.5,17.16-9.68,35.79-5.49,54.05l-.13,2.08c-19.99,9.63-41.83,18.37-65.51,26.21-56.75,21.41-113.18,40.75-169.3,58l-1.7-1.41c-1.69-.89-2.88-2.05-3.22-4.15-4.76-29.11-7.49-57.68-9.4-87.29-3.42-52.95-3.57-105.33.56-158.16.28-3.57,1.09-6.23,3.92-8.08,11.58-7.57,17.68-17.55,21.52-18.21.67-2.22,2.71-2.6,6.12-1.15,42.95,22.74,86.73,47.04,129.51,71.28,30.62,18.39,60.57,38.03,89.74,58.52,3.48,2.45,4.84,3.98,3.39,8.31Z"/>
  <path d="M343.45,253.06c-3.73.76-7.26-1.01-10.58-5.3l-55.48-57.08c-1.91-1.63-2.32-3.28-1.24-4.95l3.64-5.57c13.19-20.4,13.53-45.88-1.16-66.5,55.36-47.09,119.74-80.2,189.37-98.63,21.14-5.6,41.59-9.74,63.17-12.12,14.13-1.56,27.52-3.95,42.96-2.44-21.81,15.07-39.98,32.33-55.79,53.04-23.4,30.66-41.52,64.04-56.03,99.76-10.75,26.45-19.22,52.7-25.67,80.38-1.67,7.18-10.59,9.94-16.92,7.85-26.41-8.72-53.65-3.88-76.26,11.55Z"/>
  <path d="M259.09,200.76l1.89-.63,61.44,65.97c2.35,2.49,2.94,4.5,1.05,7.59-.93,6.31-16.65,24.38-11.69,58.56.63,3.1.13,5.49-1.51,7.16-70.07,38.15-134.99,87.13-187.01,147.99l-2.98,1.79c-6.23-.18-12.39-.98-19.5-2.93.51-102.49,33.89-202.76,94.49-285.57,18.39,11.65,40.61,12.44,59.11,2.12,1.67-.93,3.07-1.54,4.7-2.05Z"/>
  <path d="M718.45,155.39c.37,3.44-.6,4.38-3.95,5.53-83.62,19.15-166.96,48.65-243.09,84.12l-1.9-1.14c-2.55-.62-5.28-1.56-6.67-3.57-1.56-2.24-2.09-5.09-1.37-8.16,7.8-33.18,19.47-64.65,33.82-95.64,22.78-49.19,61.52-104.52,109.28-130.94,2.17-1.2,4.37-1.12,6.58,0,54.84,27.78,87.98,94.14,107.3,149.79Z"/>
  <path class="st4" d="M696.81,586.12c-3.12-.03-5.64,1.12-8.8,2.33l-91.18,34.85c-63.01,22.76-126.3,43.29-190.68,62.03-50.84,14.79-101.72,27.64-153.43,38.53l-74.5,13.39c-36.02,6.47-92.2,10.65-128.19,4.41-10.7-1.86-20.61-4.54-29.93-9.95-11.84-6.86-19.45-18.44-20.05-32.5-1.08-25.59,19.15-51.34,37.05-69.4,7.52-7.59,14.92-14.61,23.49-20.91,2.85-2.09,5.77-2.53,8.17-.5s2.88,5.83.68,8.48l-5.75,6.95c-10.4,12.57-21.1,24.53-28.87,38.98-4.26,7.91-8.11,15.76-8.79,24.74-.48,6.34.19,12.73,4.54,17.35,5.05,5.37,11.75,8.3,19.01,10.03,17.17,4.07,34.54,4.99,52.23,3.97,19.42-1.12,38.13-2.71,57.26-6.08,1.39-.24,2.44-.72,3.22-1.35,2.84.52,5.22.02,8.72-.58,81.36-13.77,161.1-33.11,240.2-56.52l10.08-3.45,26.44-8.02,11.79-3.21c71.17-22.98,141.21-47.97,210.96-74.93l13.89-6.74c2.31,10.03,7.09,19.28,12.45,28.13Z"/>
  <path d="M880.56,132.28c-.68,2.64-2.1,4.26-4.24,4.86-41.89,2.52-84.66,9.1-127.13,16.31-1.66.28-3.07.25-3.44-1.76-3.36-1.43-5.8-3.59-7.07-7.35-11.44-33.8-26.6-65.84-46.62-95.44-11.06-16.35-23.88-30.18-38.42-43.14-.85-.76-1.24-1.85-1.03-2.41.16-.42.98-1.43,1.8-1.36,85.84,7.63,173,43.86,241.66,97.35-5.81,8.12-10.41,15.69-12.51,24.8l-3.01,8.14Z"/>
  <path class="st6" d="M1085.88,406.78c-32.76,21.86-66.88,41.6-101.98,60.49l-50.21,25.15-73.83,33.03c-2.94,1.32-5,3.04-7.04,5.41-1.13-11.2-4.42-22.33-9.6-32.36,1.88.57,4.06,1.01,6.1.09l53.18-23.86,75.75-38.28,24.81-14,16.8-9.68,4.04-3.09-.19-1.98c18.01-9.64,34.96-21.02,51.93-32.44l1.89.92,32.3-24.83,19.48-19.39c11.09-11.04,23.97-33.32,17.21-49-8.3-19.25-37.53-28.33-57.99-30.66l-20.4-2.33c-3.44-.39-8.44.19-10.49-3.11l-9.38-15.12c-.72-1.17-.25-3.47.1-4.57s1.68-2.59,3.67-2.62c29.06-.56,64.09,2.54,90.46,14.46,12.72,5.75,23.65,14.27,30.8,26.25,20.57,34.51-5.84,73.21-32.53,98.11-17.29,16.13-35.64,30.55-54.91,43.4Z"/>
  <circle class="st2" cx="767.75" cy="538.3" r="63.9"/>
  <path class="st6" d="M880.99,163.72c-3.24-1.45-6.45-2.03-10.51-1.75-40.8,2.85-81,8.76-120.62,16.53l-18.64,3.65c-1.59.31-2.68,1.01-2.84,2.41-1.8-.9-3.71-1.13-6.31-.52-83.39,19.48-163.26,46.04-240.8,82.38-4.94,1.8-8.55,3.94-12.14,7.12-1.4.11-4.32,1.47-6.06.62-4.15-4.66-6.85-10.48-11.98-14.25-9-6.62,7.77-7.35,18.41-16l14.56-6.51c32.47-14.51,64.77-28.13,98.53-39.96,43.05-15.08,86.12-27.64,130.39-37.98,2.76-.64,4.23-1.88,5.47-4.07.18.52-.42,1.74.61,2.04.41.12,1.36.53,2.1.35l24.6-6.08,3.2-.03c37.26-7.37,74.49-12.41,112.48-15.07,5.62-.39,10.68.28,15.76-1.66l3.37-2.66c-1.29,10.42-1.6,21.09.42,31.44Z"/>
  <circle class="st3" cx="392.59" cy="318.71" r="60.15"/>
  <circle class="st0" cx="958.05" cy="145.06" r="56.73"/>
  <path d="M1077.55,376.18l-31.04,20.6-22.59,12.9c-2.72-.72-4.9-2.75-5.38-6.19-8.15-58.29-23.55-114.77-46.16-169.1-1.04-2.5-.91-4.68-.12-6.46.77-1.73,2.66-2.63,4.7-3.1,6.82-1.57,12.6-4.17,18.78-7.54,2.7-1.47,7.65-1.89,9.74,1.18,13.09,19.2,25.4,38.2,35.99,59.06,14.8,29.15,26.46,59.01,35.62,90.28.88,3,.97,5.57.45,8.37Z"/>
  <path class="st1" d="M276.14,185.74c.74,1.21,1.71,2.84,2.97,4.15l11.65,12.07,37.99,38.83c4.62,4.72,8.54,9.97,14.69,12.27-7.72,5.27-14.18,13.15-19.98,20.62.36-2.46-.86-4.73-2.74-6.76l-29.18-31.45-32.47-34.72-11.66-13.64c-.95-1.11-3.2-1-4.67-.46-16.41,6.04-34.57,1.68-46.01-11.65-10.8-12.58-13.25-31.47-4.95-46.69,7.75-14.21,23.62-23.23,40.48-21.23,14.51,1.72,26.44,10.82,32.17,22.38,6.93,13.95,5.49,28.89-2.13,41.85,1.6,3.49,4.95,5.29,7.16,8.27,1.92,2.59,4.02,5.2,6.67,6.14Z"/>
  <path class="st4" d="M705.87,479.55c-6.72,6.99-12.15,15.56-16.01,24.39-.15-3.61-2.26-5.32-5.24-7.41-32.51-22.7-65.24-44.17-99.61-64.26l-113.85-62.68c-3.39-1.86-6.74-3.18-10.04-2.61-.06-.96-.07-2.13.51-3.21,4.26-7.87,7.86-15.82,10.16-24.05,3.39,3.12,6.93,4.83,11.37,7.04,55.65,27.73,109.2,58.11,161.53,91.85l53.63,37.02c2.48,1.71,4.63,3.17,7.56,3.9Z"/>
  <path class="st4" d="M321.71,361.08c-3.27.19-5.87.89-8.91,2.62-47.81,27.21-92.21,59.08-132.67,96.39l-30.38,30.34-9.45,10.62c-4.59-.81-8.4-3.09-12.26-6.01l-7.75-5.86c12.89-16.23,26.68-31.43,42.17-45.83,46.7-43.43,90.04-74.22,145.94-104.9,2.63-1.44,3.57-3.71,3.39-6.21,1.48,10.17,5.13,19.63,9.93,28.84Z"/>
  <circle class="st5" cx="96.67" cy="541.66" r="34.39"/>
  <path class="st5" d="M831.85,596.96c3.28-7.68,10.75-14.91,13.96-22.98.5,3.29,2.12,5,4.62,7.13,30.79,26.22,57.82,55.7,81.94,88.13l13.49,17.68c-6.84,3.05-12.49,5.78-18.05,10.41-14.13-19.46-28.98-36.42-44.91-53.71-15.24-16.21-31.26-30.71-48.02-45.23-1-.86-2.19-1.18-3.03-1.43Z"/>
  <path d="M1085.88,406.78l-5.35,2.1c-72.06,46.7-145.96,82.39-222.09,115.24-3.09,1.55-5.53,2.97-5.62,6.75,1.46,14.42-1.63,29.62-7.01,43.12-.94,2.6-.58,4.7,1.07,6.27,36.48,30.37,68.48,68.45,95.73,105.39-4.67,2.83-9.42,5.8-14.24,8.9l-.11,1.45c-25.7-36.69-57.76-70.14-92.27-99.03-1.62-1.36-3.16-2.21-4.15,0-2.43.82-4.48,2.51-6.65,4.47-13.25,11.93-29.12,19.46-46.92,21.68-1.38,2.5-1.58,4.65-1.92,7.6-6.25,55.3-16.45,109.37-31.55,162.98-13.08,46.41-31.78,94.22-57.22,134.98-11.1,17.8-23.8,33.45-39.33,48.48,7.03-.62,13.65-2.43,20.57-4.76,21.32-7.19,41.65-15.67,61.54-26.42,50.54-27.31,96.64-61.15,136.71-102.38,22.04-22.68,40.89-47.43,58.72-73.63l12.22,8.36c-38.28,57.9-88.03,107.33-146.02,145.88l-49.64,29.32-28.76,14.12c15.45-1.88,29.03-6.43,43.56-11.24,95.79-31.72,178.85-92.93,239.67-173.43,45.37-60.05,76.47-129.33,90.1-203.59,10.5-57.23,10.78-115.27-1.03-172.6ZM1020.24,542.72c-5.76,50.85-17.75,99.75-36.5,148.21-5.2-2.69-9.14-4.42-13.89-5.76,25.69-68.57,37.78-139.61,36.66-212.16-.16-10.63,4.31-14.56,16.17-17.04,1.93,29.11.82,57.46-2.43,86.74Z"/>
  <circle class="st5" cx="960.01" cy="733.75" r="31.6"/>
</svg>