<?xml version="1.0" encoding="UTF-8"?>
<svg id="Layer_1" xmlns="http://www.w3.org/2000/svg" version="1.1" viewBox="0 0 1310.4 149.55">
  <!-- Generator: Adobe Illustrator 30.6.0, SVG Export Plug-In . SVG Version: 2.1.4 Build 109)  -->
  <defs>
    <style>
      .st0 {
        fill: #e6e0d3;
      }

      .st1 {
        fill: #eb9104;
      }
    </style>
  </defs>
  <polygon class="st1" points="616 146.85 594.28 95.45 569.31 35.24 521.68 146.73 492.79 146.71 556.59 2.44 582.63 2.31 612.14 70.55 645.56 146.71 616 146.85"/>
  <polygon class="st1" points="746.32 146.66 719.24 146.73 719.4 27.38 675.2 27.26 675.39 2.35 791.93 2.36 791.89 27.25 746.28 27.43 746.32 146.66"/>
  <g>
    <path class="st1" d="M1281.96,145.52c-29.52,9.52-61.26,1.84-84.3-19.26l15.44-19.3c15.43,14.6,42.01,23.97,60.48,15.72,7.11-3.18,10.61-8.96,10.3-16.32-.29-6.81-5.06-12.31-12.37-14.42l-33.96-9.82c-9.1-2.63-17.95-6.39-24.36-13.75-9.33-10.71-11.28-25.65-6.41-39.7,12.31-35.47,69.79-36.37,99.81-11.82l-13.6,20.24-19.66-9.87c-18.03-6.34-41.42-3.09-42.34,13.19-.36,6.4,3.2,12.67,9.58,14.7l28.13,8.94c22.03,7,41.35,13.71,41.68,40.89.22,18.58-9.67,34.52-28.44,40.57Z"/>
    <polygon class="st1" points="1121.39 146.78 1101.79 99.98 1074.98 35.18 1027.33 146.66 998.19 146.67 1062.36 2.41 1088.46 2.3 1118.49 72.2 1151.05 146.79 1121.39 146.78"/>
    <polygon class="st1" points="951.73 122.05 951.83 146.79 851.92 146.81 851.98 2.6 879.34 2.36 879.19 122.04 951.73 122.05"/>
  </g>
  <g>
    <polygon class="st0" points="148.03 2.87 86.24 146.47 60.43 146.79 0 2.62 30.5 2.52 74.03 111.79 118.19 2.54 148.03 2.87"/>
    <polygon class="st0" points="458.99 2.84 414.59 105.49 397.44 146.74 372.02 146.7 310.58 2.66 341.22 2.42 385.16 111.64 429.31 2.38 458.99 2.84"/>
    <rect class="st0" x="215.12" y="2.48" width="27.28" height="144.31"/>
  </g>
</svg>