<?xml version="1.0" encoding="UTF-8"?>
<svg id="Layer_1" xmlns="http://www.w3.org/2000/svg" version="1.1" viewBox="0 0 524.88 403.18">
  <!-- Generator: Adobe Illustrator 30.6.0, SVG Export Plug-In . SVG Version: 2.1.4 Build 109)  -->
  <defs>
    <style>
      .st0 {
        fill: #f19414;
      }

      .st1 {
        fill: #3b3431;
      }

      .st2 {
        fill: #0c0c0f;
      }

      .st3 {
        fill: #37312e;
      }

      .st4 {
        fill: #f9f1e7;
      }

      .st5 {
        fill: #ec9723;
      }

      .st6 {
        fill: #f8efe3;
      }

      .st7 {
        fill: #f9f2e8;
      }

      .st8 {
        fill: #121316;
      }

      .st9 {
        fill: #383330;
      }

      .st10 {
        fill: #ed9418;
      }

      .st11 {
        fill: #0e1012;
      }

      .st12 {
        fill: #16100c;
      }

      .st13 {
        fill: #6e532f;
      }

      .st14 {
        fill: #f7f0e5;
      }

      .st15 {
        fill: #f5eee4;
      }

      .st16 {
        fill: #f7a319;
      }

      .st17 {
        fill: #f7f1e6;
      }

      .st18 {
        fill: #38322f;
      }

      .st19 {
        fill: #0e0f13;
      }

      .st20 {
        fill: #e99724;
      }

      .st21 {
        fill: #38332f;
      }

      .st22 {
        fill: #f6f0e6;
      }

      .st23 {
        fill: #f3ece3;
      }

      .st24 {
        fill: #f4f0e6;
      }

      .st25 {
        fill: #ee9519;
      }

      .st26 {
        fill: #faf2e7;
      }

      .st27 {
        fill: #e6e0d3;
      }

      .st28 {
        fill: #e89724;
      }

      .st29 {
        fill: #f9f1e8;
      }

      .st30 {
        fill: #eb9920;
      }

      .st31 {
        fill: #f5ede3;
      }

      .st32 {
        fill: #0f1115;
      }

      .st33 {
        fill: #4b3f36;
      }

      .st34 {
        fill: #f9f2e6;
      }

      .st35 {
        fill: #ed941a;
      }

      .st36 {
        fill: #f5eee5;
      }

      .st37 {
        fill: #ec971e;
      }

      .st38 {
        fill: #f9f0e6;
      }

      .st39 {
        fill: #f7f1e7;
      }

      .st40 {
        fill: #ed9114;
      }

      .st41 {
        fill: #3b3430;
      }

      .st42 {
        fill: #f8f0e6;
      }

      .st43 {
        fill: #161619;
      }

      .st44 {
        fill: #ea9c25;
      }

      .st45 {
        fill: #101115;
      }

      .st46 {
        fill: #0f1014;
      }

      .st47 {
        fill: #f1971a;
      }

      .st48 {
        fill: #ea9726;
      }

      .st49 {
        fill: #e29726;
      }

      .st50 {
        fill: #e99622;
      }

      .st51 {
        fill: #f29513;
      }

      .st52 {
        fill: #faf1e7;
      }

      .st53 {
        fill: #ea9520;
      }

      .st54 {
        fill: #0e1010;
      }

      .st55 {
        fill: #f9f1e6;
      }

      .st56 {
        fill: #e1deda;
      }

      .st57 {
        fill: #e49628;
      }

      .st58 {
        fill: #3b3531;
      }

      .st59 {
        fill: #f8f0e5;
      }

      .st60 {
        fill: #ed9621;
      }

      .st61 {
        fill: #111115;
      }

      .st62 {
        fill: #eb9822;
      }

      .st63 {
        fill: #ef9310;
      }

      .st64 {
        fill: #3b3530;
      }

      .st65 {
        fill: #ec9a24;
      }

      .st66 {
        fill: #3b3631;
      }

      .st67 {
        fill: #0f1114;
      }

      .st68 {
        fill: #eb9104;
      }

      .st69 {
        fill: #ef8f11;
      }

      .st70 {
        fill: #ed9419;
      }

      .st71 {
        fill: #f29411;
      }

      .st72 {
        fill: #0b0c0c;
      }

      .st73 {
        fill: #ea9826;
      }

      .st74 {
        fill: #ee9316;
      }

      .st75 {
        fill: #f3eadb;
      }

      .st76 {
        fill: #373330;
      }

      .st77 {
        fill: #f9f0e5;
      }

      .st78 {
        fill: #3a3430;
      }

      .st79 {
        fill: #0f0f14;
      }

      .st80 {
        fill: #f6eee3;
      }

      .st81 {
        fill: #03060d;
      }

      .st82 {
        fill: #4c4031;
      }

      .st83 {
        fill: #111216;
      }

      .st84 {
        fill: #f29511;
      }
    </style>
  </defs>
  <g>
    <path class="st25" d="M170.24,90.11c-.18.25-.49.13-.64.07-.23-.09-.55-.41-.34-.69l3.59-4.97c.26-.35.67-.5,1.03-.2.26.22.21.63-.06.99l-3.57,4.8h0Z"/>
    <path class="st70" d="M169.5,111.29c3.1,2.9,5.43,2.21,4.02,3.96-1.86-.74-3.58-1.71-5.05-3.1-.28-.26-.13-.71.14-.88.23-.16.59-.25.88.03h0Z"/>
    <path class="st10" d="M165.91,100.06c-.08.47-.39.61-.79.55-.42-.06-.5-.38-.41-.84.36-2.01,1.07-3.86,2-5.68.19-.18.65,0,.79.15.21.22.22.56.06.87-.79,1.58-1.36,3.19-1.66,4.95h0Z"/>
    <path class="st37" d="M349.27,39.51c-.48,0-.79-.19-1.11-.48.93-1.8,1.42-3.62,1.77-5.6.04-.25.55-.16.72-.09.99.43-.39,4.28-1.39,6.18h0Z"/>
    <path class="st35" d="M345.17,24.31c-1.6-.95-3.25-1.6-5.03-2.21-.35-.12-.17-1.12.22-1.06,1.89.34,3.67,1.23,5.31,2.2.09.33-.16.78-.51,1.07h0Z"/>
    <path class="st60" d="M166.49,107.37c.15.32.12.61-.04.83-.83,1.17-2.05-1.92-2.06-4.4,0-.47,1.11-.63,1.17-.26.22,1.36.34,2.6.92,3.83h0Z"/>
    <path class="st69" d="M350.83,29.86c.08.53-.97.62-1.15.35-.34-1.31-.97-2.52-1.78-3.68-.21-.3.64-1.01.91-.72,1.03,1.08,1.79,2.48,2.01,4.05h0Z"/>
    <path class="st74" d="M177.25,81.51c-.29.31-.49.43-.74.34-.39-.12-.53-.6-.26-.89l2.33-2.57c.2-.22.38-.34.63-.28.23.06.44.2.48.42.06.3-.14.45-.32.66l-2.12,2.32h0Z"/>
    <path class="st30" d="M184.81,72.72l-.18,1.56c-1.03.62-1.44,1.72-2.17,1.55-.2-.05-.63-.43-.45-.61l2.25-2.31c.14-.15.37-.18.55-.18h0Z"/>
    <path class="st46" d="M346.58,50.89c4.42,9.51,7.17,20.18,7.44,30.83,2.99,1.94,4.92,4.97,5.44,8.5l.43,2.88c.6,1.66.88,3.15.27,4.83l-4.44,12.18c-.54,1.85-.52,4.03-.55,5.95l-.16,10.54c-.07,4.72-.66,9.22-2.21,13.66-.79,2.27-1.9,4.24-3.13,6.3-.68,1.15.26,4.44-1.61,6.58-2.37,2.72-9.3,3.65-13.2,4.12-4.5,3.36-9.27,6.22-14.76,7.68l-6.92,1.85-3.98,1.06c-2.17.41-4.27.92-6.47.65-1.08.91-1.8,1.92-2.43,3.17-2.55,5.09-6.87,11.49-12.35,13.24-1.2,4.2-2.53,8.08-6.1,10.76.99.89,1.4,2.01,1.6,3.35,1.8-.39,3.42-1.03,4.96-1.93,1.36-.79,2.74-1.28,4.28-1.66l5.31-1.3c1.28-.26,2.48-.31,3.75-.07,5.57-1.89,11.28-2.48,17.12-1.94,2.33.22,4.46.49,6.63,1.26,3.46,1.22,5.83,4.02,6.26,7.72.41,3.55-.18,7.12-1.52,10.41l-2.27,3.49c-1.4,5.02-2.9,9.86-5.54,14.37l-7.02,11.98c-1.89,3.23-3.36,6.55-4.08,10.29,3.1,1.29,5.63,3.1,7.93,5.39l1.75,1.45c1.88-.28,3.62.3,4.93,1.64.36.37.79.41,1.32.36,1.97-.16,3.8,1.11,4.12,3.03.31,1.92-.8,3.47-2.62,3.95-2.05.54-4.2.71-6.14-.16-2.37-1.07-4.87,2.62-11.98-.59l-3.14-1.41c-1.52-.69-3.14-.68-4.79-.34-2.9.59-6.72.54-8.05-1.97-.96-1.8-.91-3.83-.06-5.64l1.72-3.65c.41-1.4,1.11-2.44,1.7-3.73,1.29-2.8,1.87-5.82,2.74-8.78l2.74-9.43c-.48-1.71-1.12-3.54-.96-5.4l.37-4.24-2.25,1.69c-.63.47-1.39.44-2.12.51-5.47,3.68-11.22,6.69-17.46,8.9l-.02,2c1.72,2.08,3.03,4.24,4.27,6.6,3.35,6.41,6.83,13.3,2.74,20-1.54,2.53-3.93,4.19-6.73,5.13-2.77.94-5.55,1.44-8.49,1.39l-10.98-.17c-3.91-.06-7.6-.63-11.29-1.9-3.03-1.04-5.86-2.2-8.67-3.73l-10.52-5.69c-1.71-.92-3.41-1.63-5.29-2.08-.9-.22-1.68-.02-2.25.76-.69.92-1.35,2-1.65,3.14-.13.5.7.99,1.09,1,1.62.03,2.66.83,3.65,1.99,1.35,1.57,1.52,4.06-.25,5.41-1.19.91-2.81.85-4.25.57-1.25.26-2.42.37-3.67.05-1.22.3-2.43.3-3.67-.07-1.13.3-2.19.22-3.28-.11-3.57.96-7.13-1.04-8.22-4.52-1.04-3.34-.34-6.66,1.63-9.51,1.04-1.52,2.02-3.1,2.38-4.93.59-2.99-1.32-8.17,3.71-11.99,2.53-1.92,5.89-2.37,8.84-1.14,2.52,1.05,3.49,2.76,6.46,3.16l9.49,1.28c-2.89-2.71-5.43-5.41-7.61-8.54-4.67-6.69-3.03-13.14-.18-20.31-1.32-3.34-.09-4.05.4-5.33.28-.74.08-1.67.14-2.49.26-3.16,2.38-5.78,5.58-6.3-.12-2.52.73-4.63,1.04-6.93l-1.64-7.3c-.51-4.54-.09-9,1.02-13.6-3,.7-5.78,1.37-8.8,1.36-3.46-.02-6.76-.72-10.06-1.65-1.36-.39-2.51-.53-3.92-.36s-2.89.21-4.3,0c-2.43-.35-3.79-2.86-3.38-5.16.12-.67-.09-1.32-.4-1.84l-1.68-2.85c-1.3-1.89-2.21-3.9-2.36-6.21l-.57-8.99c-.24-3.79-.29-7.45-.83-11.17-.23-1.6-.82-2.9-2.01-3.99-1.35-1.24-2.57-2.56-3.5-4.16l-2.41-4.22c-.44-.78-.83-1.52-1.07-2.39l.09-.35,5.82-.45.23.34.39.18c.07.86.4,1.49,1,1.91l-.64-1.83.27-.4c0-.14,0-.32.1-.37.34-.14,1.92-.41,2.05.05l.45.31c1.07,2.32,2.4,4.5,3.99,6.55,1.06,2.05.78,3.67-.39,5.61l-.07.65c.96,6.71,1.81,13.41,2.57,20.12.47,3.5,2.14,6.51,4.06,9.39.61.95.91,1.92.88,2.92-1.29-.06-.9,1.44-.26,2.11,1.75,1.85,8.41-.71,10.18-1.91,6.47,3.43,14.65,2.5,20.25-2.05l-1.64-4.44c.1-.3.34-.36.64-.34l6.93,6.16c1.59,1.52,2.86,3.36,3.69,5.4l1.84,5.45c3.35,7.45,10.32,10.87,18.35,9.91.19.04.34.1.35.17.11.84-1.74,1.25-2.41,1.4-1.44.31-5.92.67-7.43.54-3.1-.25-5.94-.69-8.69-2.32-.13-.04-.25,0-.24.03.39,2.41,2.03,4.23,3.91,5.66.1.14.18.26.15.34-.25.75-4.48-.16-5.31-.43-.11.53.57,1.43,1.01,1.91.97,1.05,2.19,1.58,3.62,1.44,4.42-1.06,8.99-2.13,13.61-2.09.67,0,.68.27.03.83-4.28.86-8.13,2.49-11.55,4.93-1.26.94-1.83,1.67-.21,2.47,1.29.64,3.22,1.07,4.66,1.2,5.51.46,6.94-2.58,8.81-6.93.75-.31.92.27.51,1.77-.43,1.86-.99,3.68-1.65,5.47l2.01.47c.53.61.1.99-1.3,1.11-1.03.11-2.05.14-3.08.08l-.28,1.72c-.13.69-.46,1.36-1.06.63-.2-1.11-.71-1.91-1.52-2.39l-8.48.18c-1.56.16-1.36,1.4-1.13,2.63.63,3.27,1.6,3.9,4.88,4.11,5.53.35,10.28-.36,14.48-4.23,1.11-1.03,1.03-2.18.73-3.55.54-1.11,1.39-2.06,2.53-2.85l1.08-1.48c4.23-1.84,6.03-5.85,7.22-10.11.46-.59.43-.67-.09-.25-2.66.38-5.05-.02-7.64-.47-.54-.1-4.85-1.28-5.05-1.44-.34-.25-.51-.47-.23-.83,2.23-2.9,3.75-6.14,4.55-9.73.56-.52.73-.33.83.37-.26,2.46-.47,4.93-.65,7.39.06,1.3,1.03,2.12,2.17,2.66,8.82,4.16,16.72-6.47,19.52-13.62l4.57-4.64,7.36-8.96c.41-.1.64-.14.71.3.04.26-.49,1.38-.67,1.73-.3.61-.67,1.19-1.05,1.75,9.61.83,18.22-2.97,25.61-8.86,2.74,1,5.31.38,7.48-1.51.48-.14.58.38.61.74.24,2.78-1.8,3.99-4.14,4.64,2.25-.36,6.26-1.27,7.4-3.35.1-1.52.23-3.03.38-4.55,3.33-5.53,5.31-11.56,5.47-18.07l.11-12.35c.22-2.1.38-4.2.47-6.3,1.92-4.3,3.55-8.7,4.9-13.19.08-.31-.89-5.75-1.07-6.44-.59-2.22-1.03-3.06-2.51-4.76-.45-.52-3.06-3.23-3.34-1.82,1.57,1.56,3.01,3.24,4.3,5.05.35.75.96,2.57-.33,2.14-1.17-1.68-2.91-3.59-4.71-4.58-.4-.22-.31.43-.07.73,1.7,1.81,3.22,3.76,4.55,5.86.47.91.99,3.95.62,4.8-.5,1.14-1.16-.1-1.16-.97-.62-2.37-2.85-5.07-4.8-6.51-.39-.29-.39,1.96.27,2.13,1.43,1.11,2.16,2.2,2.69,3.98.72,2.43.38,3.67-1.19,5.68-.28.47-.55.95-.79,1.44-1.56,3.19-1.21,4.81.26,7.82-.62.83-1.09,1.72-1.41,2.7-.96,4.1-2.08,8.18-3.36,12.25-1.37,2.74-2.05,4.11-2.05,4.11-2.99,4.27-5.01,9.24-3.22,14.41-1.61,1.82-4.26,1.7-6.01.05-4.24-2.25-7.28-2.57-12.05-1.45-3.99.93-7.8,2.77-9.99,6.29l-.64-.26c-2.56-1.91-4.84-2.82-7.99-1.97-1.86.99-2.25.41-1.16-1.72-.02-.56-.64-.79-1.88-.71l-.94-.47c-1.15,1.01-2.66,1.14-3.75,0-.94,1.2-1.98,2.26-3.51,2.7-.2.33,2.53,2.01,3.08,2.29.78.34,1.49.75,2.13,1.22-1.03,2.19-1.94,4.59-2.49,6.97.38,1.84-.31,1.67-1.77,1.2-.49.89-1.15,1.43-1.96,1.61.85,1.93-1.64,4.57-3.24,5.29-1.75.79-3.87.06-4.75-1.53-2.47,1.54-4.69,3.41-5.98,6.1-.38.52-.63.83-.95.23-2.41-6.1-7.47-10.13-12.63-13.82l-1.77-1.77c-.32.45-2.37,2.78-2.82,1.75-.04-.09-.02-.21.02-.33,2.88-2.78.91-6.16-1.1-8.78-.11-.32.06-.51.34-.68l12.85-.49c-1.52-.34-1.76-1.56-1.77-2.92-1.84-2.36.06-5.54,3.01-5.07-2-2.22.31-5.39,3.06-4.97-.8-2.61,1.82-4.35,4.2-4.24.59-2.94,5.35-2.9,5.23.26-.6.11-1.12.33-1.56.65,1.06-.14,2.08.13,2.75.99,1.35-.55,2.9-.17,2.7,1.6,1.97-1.28,3.92-.84,4.83,1.4,1.68-.6,4.99-.23,5.78,1.52.51,1.15-.04,2.21-1.18,2.64.73.43,1.15,1.15,1.25,2.15.54-.41.92-.99,1.15-1.73,1.57-.47,2.64,1.63,2.09,2.96.68-.39,1.19-.99,1.52-1.8,1.35.18,1.94,2.11,1.21,3.18.26.26.22.7.14,1.04,3.02-1.49,3.27-6.26.14-7.81.48-2.66-.75-4.29-3.47-4.54-.36-3.95-3-4.65-6.47-4.44-1.51-2.92-4.75-2.97-7.6-2.29l-.41-.26c-.08-.03-.14-.06-.2-.12-.17-.17.91-4.09,1.07-4.64,5.58-.71,11.13-1.59,16.58-2.98,5.55-1.41,10.4-3.3,15.69-5.37.51-.2,1.04-.27,1.57-.33.44-.18.55.04.34.44.03.23.05.47.04.71s-.02.47-.08.68c-2.22,7.84-5.94,15.23-10.55,21.58-.52.02-.69.25-.51.7l-1.28,1.95c0,.34.13.31.39-.06l2.08-2.74c6.18-1.53,12.46-3.67,17.47-7.74l.79-.23.41.19c.26.56.78,2.32.16,2.64-.06.21-.14.41-.23.6s-.18.37-.32.52c-2.82,3.18-5.87,6.22-9.08,8.99,3.59-1.86,6.44-4.86,9.13-7.87l.81-.38.39.1c.24,1.16.26.9.06-.78l.32-.26.22-.8c4.32-5.04,7.89-10.52,10.65-16.55.96-2.11,1.25-3.19.83-5.31-2.33,7.24-6.22,14.28-11.13,20.1-.11.14-.26.24-.43.34s-.34.18-.51.26l-.37-.02-.95-3.36-.27.26c.07.39.05.75-.07,1.08l-5.92,3.91c-1.94.92-3.91,1.81-5.93,2.53-.87.31-5.22,1.84-5.48,1.46-.08-.12.03-.37.21-.65,4.44-6.4,7.41-13.58,9.97-20.9l.4-.55.24-.36c.97-.12,1.32-.77,1.01-1.68l.24-.39.02-.4c6.47-3.03,13.01-7.34,17.27-13.26,2.39-3.32,3.42-6.61,3.93-10.59.35-2.7-.45-4.6-2.69-6.28-5.17-3.86-10.47-5.79-16.31-7.63l-.45-.5-1.64-9.91.3-.37-.09-.38,9.92-7.87.44-.13c1.64,1.76,3.75,2.66,6.1,1.82l.46.2c.17.16.32.33.47.51s.26.35.35.55c3.51,8.29,5.49,17.32,5.9,26.28.44-.26.77-.34.97-.26-.31-9.47-2.82-18.62-6.26-27.38l-.02-.65-.17-.39c.06-.16,1.25-2.18,1.37-2.22.14-.05.28.1.38.24h.02l.02-.05Z"/>
    <path class="st55" d="M296.13,261c-.07-1.56.56-2.86,1.48-4.01.53.79,1.12,1.72,2.11,1.75.79.02,1.44-1.24,1.11-1.89l-1.44-2.8c-.39-.75,1.77-4.02,2.51-6.83l2.31-8.84c.64-2.44,1.6-4.53,3.02-6.59l3.98-5.79-5.21,4.93c-.95-2.37-1.11-4.88-.51-7.35,1.27-5.26,4.25-11.13,9.44-13.04.56-.21,1.12.59,1.8.65-.83-1.76-1.44-3.47-1.68-5.48-.43.38-.32.87-.43,1.43-2.7.3-5.21,1.07-7.58,2.5-3.69,2.24-7.4,4.2-11.55,5.78.08-6.1,1.21-11.92,4.26-17.1l1.6-2.09c5.19-1.86,10.54-2.58,16.04-2.22,2.51.17,4.89.36,7.25,1.12,3.04.98,5.09,3.43,5.3,6.65.26,3.91-.52,8.45-3.07,11.45-.51.59-.78,1.24-.98,2.02-1.42,5.68-3.69,10.93-6.68,15.95l-5.41,9.07c-1.89,3.18-4.44,8.81-4.32,12.47,3.26,1.22,5.92,3.14,8.44,5.52.82.77,1.92,2.01,3.06,2.03,1.54.03,2.82.04,3.91,1.32,1.34,1.56,3.09-.16,4.29,1.53.36.51.63,1.72-.1,2.21-1.78,1.16-4.12,1.03-5.95.12-2.91-1.44-5.25,2.71-11.53-.38l-2.22-1.09c-2.45-1.21-5.09-1.44-7.75-.81-2.27.55-5.37.2-5.48-2.17h0Z"/>
    <path class="st55" d="M247.75,249.44c3.92-1.75,7.99-1.94,12.01.12l2.77,1.61,7.47,5.48.64-2.93-4.24-4.68-4.82-4.76c-1.51-1.48-2.77-3.08-3.52-5.04-.3-.77-.23-1.38.43-1.96,2.91-2.56,6.6-4.01,10.52-4.31,2.77-.26,5.27.27,7.9,1.21-6.46-4.31-15.12-3.75-21.8-.1-2.04,1.11-3.61,2.57-5.07,4.38.36-1.33,1.39-2.06,2.1-3.22-.91.32-1.18,1.17-1.8,1.8.63-2.57,1.78-4.79,4.06-6.1,2.01-1.24,4.17-1.73,6.57-2.32-2.84-.4-5.53-.21-8.34-.18-2.19,0-5.03.2-6.39-1.15.73-.98,1.64-1.55,2.66-2.03,2.27-1.03,4.62-1.4,7.18-1.67-2.19-.8-4.31-.99-6.51-1.33-3.07-.42-8.48-1.11-10.2-3.22l-1.58-1.93c2.7,1.07,5.42,1.08,8.21.38l5.57-1.06c5.41-.2,12.67,2.47,16.92,5.96,3.15,2.58,5.86,5.51,8.38,8.69l1.86,2.87c.3.47.26.98.02,1.53,2.49,2.94,4.46,6.11,6.14,9.56,2.38,4.87,4.47,9.74,2.09,14.84-1.71,3.68-5.22,5.35-9.18,6.01-2.76.46-5.45.62-8.28.54l-8.53-.26c-6.06-.18-12.71-2.5-18.04-5.36l-11.33-6.09c-2.08-1.11-4.16-1.72-6.43-2.1,1.9-.17,3.68.28,5.38,1.04l10.26,4.56,7.61,3.55c3.26,1.52,6.66,2.41,10.25,2.85l7.34.48c4.64.3,8.82.14,13.28-.8l-3.17-.25c-2.66-.21-7.16-2.4-7.5-5.03-.1-.73-.52-1.13-1.27-1.19-6.35-.52-12.54-2.03-17.2-6.52l-2.43-1.86h0v-.02Z"/>
    <path class="st26" d="M282.14,216.05c-1.56,4.08-4.48,8.07-9,7.89l1.49-1.88c1.21-1.52,2.23-3.09,2.92-4.93,1.52-4.07,2.62-9.39,2.65-13.76.97-1.52,3.34-2.35,5.21-2.99s3.63-1.47,5.31-2.53c.43-.27.94-.45,1.45-.42.96.06,1.75-.34,2.64-.55l4.25-1.03c-4.8,3.93-6.95,9.51-8.53,15.39l-2.08,7.7c-1.2,4.44-4,9.22-8.32,11.08-.34-.1-.66-.56-.83-.84,1.52-1.44,2.52-3.15,3.29-5.11,1.09-2.78,1.87-5.56,2.46-8.52.95-4.73,2.26-9.16,4.32-13.69-1.01.4-1.29,1.31-1.81,2.08-2.17,3.87-3.82,7.84-5.43,12.08h0v.02Z"/>
    <path class="st52" d="M277.44,203.53c-.83,2.6-2.06,4.89-3.78,6.91s-3.79,3.27-6.35,3.77c-3.04.59-6.06.53-9.14-.06-6.45-1.24-14.29-4.03-19.32-8.21-1.42-1.18-2.65-2.46-3.41-4.24,6.59,3.58,13.48,6.95,20.74,8.36,6.65,1.28,13.42-.38,18.48-4.88l2.66-2.96c.23.38.26.87.12,1.32h0v-.02Z"/>
    <path class="st4" d="M210.69,250.85l-2.9,5.36c-.82,1.51-.82,3.22-.58,4.89.22,1.52,1.32,2.45,2.85,2.58.45.04.79.36,1.05.6.24.22.51,1.09.05,1.25-2.08.74-4.39-.59-5.25-2.58-1.16-2.64-.8-5.51.68-7.93l1.53-2.49c1.44-2.34,1.91-4.92,1.68-7.68-.21-2.47.46-4.84,2.29-6.41,1.76-1.51,4.24-2.25,6.55-1.51s3.77,2.78,7.62,3.39l6.03.95,6.95,1.03c-4.32.3-8.57.04-12.87-.51-2.36-.3-4.3-1.05-6.34-2.25-2.04-1.2-4.8-1.36-6.58.36-1.7,1.64-2.21,4.2-2.02,6.49.14,1.59.03,3.01-.75,4.44h0Z"/>
    <path class="st34" d="M265.91,218.38l-4.63-2.2,6.49-.28c2.05-.09,3.84-.96,5.22-2.46l4.1-5.34c-.37,2.99-1.11,6.33-2.75,8.78-1.16,1.8-3.12,2.9-5.28,2.81-1.11-.26-2.08-.79-3.16-1.31h0Z"/>
    <path class="st26" d="M291.11,156.39l-1.79.1c-.96.06-1.8.18-2.66-.47.94-.51,1.68-1.03,2.24-1.89-1.41-2.01-2-4.6-.18-6.17,2.01,1.71,2.43,3.89,5.41,4.16-.21.96-.35,2.19-1.08,2.9-.51.5-1.44.47-1.93,1.36h0Z"/>
    <path class="st55" d="M250.97,205.11c-2.28-.69-4.23-1.94-3.83-4.4.22-1.35.64-2.61,1.36-3.68,1.16.92,2.04,1.93,2.91,3.01-.4,1.67-.61,3.18-.44,5.08h0Z"/>
    <path class="st59" d="M250.91,213.35c-2.33.99-4.86.91-7.32.23-2.25-.62-4.24-1.6-5.74-3.49,3.1.99,5.98,1.75,9.08,2.2,1.32.28,2.54.39,3.97,1.05h0Z"/>
    <path class="st14" d="M240.21,232.28c-2.98-1.2-7.22-3-8.83-5.6-1.04-1.68-1.11-3.79-.67-5.6.58,2.11,1.18,4.04,2.57,5.61,2.01,2.25,4.44,3.75,6.94,5.6h0Z"/>
    <path class="st6" d="M223.06,265.55c-.45-.32-.44-1.28-.07-1.62l1.05-.36-1.48-.34c-.36-.08-.44-.67-.3-.94.13-.24.47-.71.92-.69,1.32.05,2.51,1.2,2.86,2.47.24.87-.32,1.62-1.17,1.72-.57.06-1.24.17-1.8-.23h0Z"/>
    <path class="st29" d="M295.44,140.81c.41-.54.91-1,.78-1.73-.1-.61-.66-1.32-1.41-1.33l-3.17-.02c.82-.88,1.68-1.86,2.85-2.24.91-.3,1.89.53,2.25,1.11.59.92.37,1.76,0,2.72-.23.59-.14,1.54-1.28,1.49h0Z"/>
    <path class="st7" d="M279.7,143c-.78,1.13-.51,2.62.27,3.64.27.35.23.9-.08,1.02-1.76-1.19-2.43-3.61-1.06-5.28.7-.84,2.04-1.05,2.94-.62.97.47,1.69,1.63,1.25,2.77-.97-.59-1.3-1.98-2.13-2.05-.37-.03-.91.08-1.21.52h0Z"/>
    <path class="st36" d="M281.21,160.23c-3.34-2.14-4.64-7.57-1.87-10.72-.53,2.22-.79,4.19-.06,6.23.34,1.6,1.07,2.93,1.93,4.48h0Z"/>
    <path class="st42" d="M218.35,265.42c-.4.74-2.04.64-2.41.07s-.16-1.42.16-1.89c-.64-.38-.81-.83-1.24-1.38.64-.13,1.23.09,1.74.51,1.12.91,2.21,1.84,1.75,2.7h0Z"/>
    <path class="st39" d="M222.08,265.16c-.1.67-1.72.99-2.59.41-.55-.35.49-1.96-1.03-3.18.93-.22,1.66.25,2.26.91l1.16,1.28c.16.17.22.39.2.59h0Z"/>
    <path class="st80" d="M214.62,265.4c-.31.65-1.58.55-2.09.05-.59-.59.45-2.29-1.13-2.97-.26-.1-.52-.24-.66-.49.84.16,1.84.17,2.42.83l1.38,1.57c.25.29.18.76.07,1h0Z"/>
    <path class="st15" d="M288.01,139.63l-.68-1.88c-.43-1.2-2.45-.15-2.95-2.04l1.71.06c1.26.04,2.24.89,2.29,2.15.02.56.14,1.1-.37,1.71h0Z"/>
    <path class="st22" d="M287.41,142.92c-.97-.03-1.71-.63-2.18-1.35,2.01.79,4.04.29,5.62-1.33.68,1.14-1.63,2.73-3.43,2.67h0Z"/>
    <path class="st17" d="M219.75,245.53c-.87-.3-1.72-.06-2.06.92-.47-.41-.78-.92-.72-1.5s.47-1.11,1.11-1.28c.9.12,1.59.79,1.66,1.86h0Z"/>
    <path class="st24" d="M284.11,135.59c-1.22-.81-2.3-.98-3.43-.14-.08-.89.52-1.18,1.03-1.32.63-.18,1.2-.05,1.65.45.26.3.71.49.76,1.02h0Z"/>
    <path class="st56" d="M222.26,261.32c-1.24.26-2.7-.46-2.42-1.66.6.83,1.35,1.13,2.42,1.66Z"/>
    <path class="st58" d="M324.84,111.94c-1.02,3.47-2.32,6.79-3.77,10.2-1.78,4.2-3.97,7.99-6.65,11.79,3.97-1.07,7.52-2.49,11.08-4.19l5.9-3.88c.2-.23.26-.51.26-.79.53-.06.79,1.09.32,1.31-4.77,4.32-11.84,6.7-18.1,8.26l-1.87,2.53c-.3.41-.64.75-1.13.72.21-.28,0-.65,0-.83l1.43-2.19-3.57.39c1.38-.6,2.7-.74,4.11-1.05l3.88-5.94c3.01-5.32,5.26-10.93,6.88-16.75.31-.3,1.15,0,1.22.43h0v-.02Z"/>
    <path class="st55" d="M345,53.28c3.77,8.81,6.39,18.39,6.56,28.15l-1.64.67c-.15-9.5-2.58-18.95-6.33-27.87l1.4-.95h0Z"/>
    <path class="st55" d="M333.62,130.11c-.56.05-.84-1.71-.36-1.95,5.49-6.68,10.12-14.3,12.23-22.72l.27,3.01c.06.63.22,1.34.02,1.95-2.29,6.7-7.49,14.35-12.17,19.72h0Z"/>
    <path class="st77" d="M332.86,131.06c-2.1,2.36-4.2,4.67-6.72,6.61-1.82,1.4-3.8,2.35-5.86,3.41l2.57-2.17c3.52-2.98,6.6-6.34,9.71-9.71.71-.17.94,1.7.3,1.86h0Z"/>
    <path class="st44" d="M333.26,128.16l.36,1.95.14,1.32c.07.67.13,1.36-.34,1.84l-.56-2.22c.02-.67.02-1.34-.3-1.86.03-.99-.34-1.88-.57-2.83l-.32-1.31-.72-2.42c.23-.12.41-.21.67-.22l1.65,5.74h0Z"/>
    <path class="st31" d="M347.32,102.01l1.79-6.94c.08-.3.47-.62.7-.47.14,1.44-.3,2.83-.67,4.13-.45,1.17-.74,2.37-1.82,3.28h0Z"/>
    <path class="st49" d="M330.25,120.67l-3.13-6.68c-.1-.22-.06-.4,0-.5.06-.09.38-.24.45-.12,1.35,2.27,2.37,4.62,3.39,7.12-.12.14-.42.23-.72.18h0Z"/>
    <path class="st75" d="M196.76,116.78c.14.87.48,1.63.95,2.57-1.25.26-1.72-.91-1.98-2.42l1.03-.14Z"/>
    <path class="st71" d="M203.35,107.76c-.02.6.23,1.07.6,1.54,1.94,2.47,2.44,5.65.72,8.23-.38.64-1.1.93-1.81.66-1.79-.74-2.73-2.41-2.7-4.38l.06-3.57c.57-1.32,1.71-2.28,3.11-2.48h0Z"/>
    <path class="st55" d="M198.9,116.46l-.34-1.39c-.44-2.69-.59-7.14.85-9.22.18-.26.53-.36.71-.3.64.24.14,2.29.1,4.67l.34.21-.06,3.68c.16,1.6.7,2.86,2.2,3.61l.14.45c.47-.07.75-.02,1.07.34.12-.45.36-.79.74-1l-.09-.52c1.55-2.67.63-5.7-1.24-7.95-.44-.65-.44-1.08,0-1.3,2.8-.4,4.97,2.59,4.93,5.4l-.02,1.56.27.4c-.12,1.95.08,3.91.61,5.89.1,2.78-.51,5.48-1.87,8.07,1.85,6.7,5.31,12.22,8.98,17.79,1.52,2.19,2.14,4.59,2.4,7.12,1.48-2.54,4.4-3.83,7.16-4.53s6.36-.87,8.88.57c-.05-.71.68-1.59,1.16-2.17,5.07-6.04,16.32-7.24,22.36-1.91.79-.12,1.6-.17,2.41-.14,2.98-.18,5.99-.3,9.02-.38-.54-.63-.94-1.44-.87-2.3-1.27-2.58-.13-5.1,2.53-5.98-.3-2.86.78-4.62,3.64-5.33-.14-3.26,2.29-4.36,5.11-4.82,1.33-2.86,4.48-3.71,7.05-1.79.14-.25.3-.28.58-.16.18-.42.38-.82.86-.54,3.18-.78,6.68-.8,8.18,2.29l2.1-.03c2.51-.04,4.42,1.97,4.38,4.54,1.29-.09,2.29.52,2.99,1.3.87.96.75,2.23.55,3.3,1.18.63,2.18,1.6,2.25,3.08.14,2.88-.64,4.48-3.43,5.64.4-.65.69-1.14.3-1.83.6-1.1.26-2.24-.79-2.94-.18,1.18-1.08,1.94-2.34,2.17.47-.9.74-1.41.37-2.17-.28-.58-.77-1.24-1.52-1.15-.22.97-.75,1.78-1.69,2.02-.13-.69-.12-1.38-.52-1.97-.21-.31-.81-.34-.99-.91.72-.1,1.4-.55,1.57-1.15s-.09-1.44-.7-1.84c-1.58-1.06-3.59-1.11-5.27-.45.04-1.07-.62-1.58-1.17-1.93-1.73-1.08-2.43.51-3.7.44.18-.59.18-1.38-.31-1.69-.61-.39-1.38-.18-2.06.1-.68-1.05-1.9-1.36-3.11-.88,0-.97.81-1.39,1.84-1.35-.13-.8-.63-1.4-1.18-1.68-.67-.34-1.42-.3-2.09-.02-.9.37-1.41,1.08-1.44,2.01-1.53-.21-3.09.34-3.88,1.52-.64.95-.59,1.98.18,2.88-1.81-.78-3.77.2-4.2,2.01s1.2,2.51,1.17,2.74c-.04.31-2.34-.78-3.67,1.03-.74,1.01-.77,2.4.06,3.38.44.53-.39,2.3,1.52,2.86l2.14.63-5.09.22-10.04.37c2.4,3.22,4.19,6.34,1.06,9.41,1.26-.31,1.8-1.36,2.62-2.35.97,1.33,2.24,2.35,3.62,3.33,4.77,3.4,9.04,7.26,11.19,13.02,1.32-2.98,3.6-5.26,6.56-6.78.63.72,1.25,1.31,2.12,1.62,1.33.47,2.7.04,3.67-.97l1.36-1.42c.55-.58.64-1.58.6-2.34-.16-.21-.36-.03-.3.15-.58.66-.04,1.96-1.7,2.53-.72-.63-1.38-.07-1.84-.86-.14-.24.15-.59.18-.83-.14-.45-.93-.61-1.36-.66-.35-.04-.8-.51-.52-.66l2.98-1.61c.9.43,1.6.75,2.32,1.32.34-.12.85-.09,1.15-.3l1.14-1.44,1.74.47c-.18-.79-.28-1.51-.02-2.22l1.64-4.64c.18-.51.39-.91.83-1.27-2.18-.95-4.08-2.06-5.91-3.75,1.71-.34,3-1.2,3.93-2.6.17-.26.53-.46.79-.18.99,1.03,2.41.83,3.43-.3,1.27,1.29,2.42.27,3.08,1.08.2.25.15.65.03.95l-.67,1.67c3.79-1.97,6.83-.83,10.14,1.68.89-1.73,2.15-2.95,3.76-3.9,3.47-2.02,7.35-3.07,11.4-3.07,3.18,0,6.02,1.14,8.51,3.06,1.4.52,2.96.22,4.13-.79-1.67-4.38-.29-9.06,2.21-12.89,1.84-2.82,3.3-5.7,4.12-8.97l2.06-8.21c.32-1.28.77-2.42,1.65-3.4l-.71-1.4c-.71-1.4-.87-2.92-.4-4.44.55-1.8,1.48-3.39,2.53-4.94.47-.68.71-1.4.59-2.25-.21-1.49-.6-3.02-1.51-4.24l-1.36-1.26c-.72-.67-.97-1.67-.55-2.57.1-.2.46-.31.63-.14l2.25,2.13c1.53,1.47,2.55,3.37,2.92,5.54-.13.33.29.33.27-.04.09-1.6.04-3.3-.68-4.69l-1.76-2.45c-.75-1.05-1.46-2.11-2.44-2.96-.55-.47-.73-1.15-.13-1.76,2.04,1.36,3.91,2.84,5.21,4.94.1.21.38-.02.19-.21-.1-1.37-.81-2.33-1.67-3.26l-2.94-3.17c-.26-.27-.15-.67.03-.88.82-.97,3.27,1.52,4.49,2.98,1.11,1.32,1.68,2.85,1.95,4.54l.56,3.44c.18,1.12.69,2.1.32,3.27-1.34,4.18-2.83,8.24-4.65,12.22-.31.68-.12,1.4-.18,2.09l-.4,4.54-.05,9.76c-.03,7.32-1.24,13.66-5.15,19.87-.41.65-.56,1.34-.57,2.11l-.05,2.48c-.02,1.2-.79,2.05-1.86,2.54-2.66,1.22-5.41,1.93-8.45,2.23-.4.08.04-.07.18-.23l3.44-1.25c.91-.34,1.78-.89,2.23-1.77.39-.79.48-2.71.19-2.52-2.07,1.95-4.84,2.63-7.5,1.53-5.05,3.92-10.24,7.1-16.54,8.33-3.3.65-6.55.71-9.83.6.99-1.36,1.72-2.58,2.13-4.13l-4.19,5.06c-1.53,1.84-2.83,3.71-4.56,5.41l-3.32,3.29c-1.83,4.26-4.28,8.14-7.69,11.33-3.47,3.25-9.39,4.56-13.21,1.86-.95-.67-1.51-1.53-1.42-2.66l.36-4.54c.08-1.05.45-2.01.2-3.09l-1.39,4.5c-.84,2.11-1.89,4.01-3.49,5.78l4.98,1.43c2.74.79,5.55.78,8.48.48-.59,2.39-1.44,4.62-2.67,6.76-1.01,1.78-2.54,3.11-4.38,3.96-.66.3-.77.68-1.11,1.23-.83,1.36-3.28,2.28-2.82,3.65.43,1.25.03,2.36-.87,3.29-4.16,4.24-10.96,5-16.75,4.09-1.26-.2-2.17-.96-2.59-2.16-.45-1.3-.93-2.64-.67-4.05.1-.57,1.03-.97,1.64-.99l8.19-.18c1.26-.03,1.81,1.83,2.13,2.9.49-.87.42-2,.68-2.94,1.64.22,3.22.2,4.79-.34l-2.64-.62c.85-2.47,1.8-4.82,2.05-7.56l-1.72,3.62c-2.19,4.61-7.73,4.4-12.22,2.57-.63-.26-1.54-1.06-1.31-1.77,3.17-3.79,8.74-5.12,13.53-6.47-4.14-.03-8.16.63-12.22,1.67-.97.25-1.96.58-2.94.41-2.19-.38-3.69-2.17-4.25-4.24,1.95.55,3.82.99,5.85.91-2.58-1.57-4.07-3.95-4.36-6.79,3.06,1.91,6.3,2.78,9.75,2.8l4.81-.29c1.63-.1,3.21-.26,4.6-1.19-7.84,1.35-16.61-2.94-19.12-10.6l-1.2-3.68c-.89-2.74-2.41-5.05-4.56-6.96l-6.56-5.82,1.77,4.75c-.56.64-1.24,1.11-2.01,1.52-6.18,3.28-12.25,4.02-18.64.72-1.85,1.24-3.86,1.9-6.04,2.34-1.24.25-2.4.44-3.59,0-1.99-.75-1.44-3-1.24-3.06.14-.04.36,0,.75.06-.29-1.36-.92-2.62-1.76-3.85-1.84-2.7-3.06-5.7-3.43-8.96l-.73-6.59-1.71-12.56c-.09-.63-.03-1.05.3-1.57.97-1.53,1.11-3.47.09-4.95l-1.72-2.48c-.99-1.42-1.93-2.8-2.33-4.44v-.03h0Z"/>
    <path class="st61" d="M288.98,129.54c-.53-.34-1-.51-1.54-.62.32-1.28,1.32-1.77,2.52-1.73,1.36.05,2.47,1.07,2.37,2.47-1.2-.69-2.26-.79-3.34-.13h0Z"/>
    <path class="st72" d="M271.38,189.31c2.36.16,6.56,2.21,5.92,4.34-1.11-1.48-2.42-2.64-4.12-3.39-.57-.36-1.28-.39-1.8-.95h0Z"/>
    <path class="st11" d="M257.44,177.95c-1.4-.31-2.43-1.41-2.78-2.81,1.42-.12,2.83,1.26,2.78,2.81Z"/>
    <path class="st43" d="M298,131.85c-1.13-.29-2.13-.43-3.2.06-.34-.19-.43-.51-.36-.85.05-.24.29-.44.65-.55,1.08-.2,2.34.06,2.91,1.34h0Z"/>
    <path class="st54" d="M303.14,135.78c.26.31-.03.68-.19.77-.53.28-1.39.14-1.52-.3-.11-.36.13-.73.58-.75.31-.02.9-.02,1.14.28h0Z"/>
    <path class="st8" d="M290.8,159.91c.04.66-.62.81-1.11.76-.35-.03-1.03-.43-.95-.92.51-.33,1.36-.06,2.06.17h0Z"/>
    <path class="st12" d="M204.67,117.53c-.26.38-.16,1.13-.74,1.46-.35-.3-.72-.66-1.07-.81l1.81-.66h0Z"/>
    <path class="st0" d="M346.58,50.89s-.25.02-.29.17c-.24.91-.86,1.47-1.29,2.21.22.51-.99,1.3-1.4.95-2.35.95-4.94.44-6.62-1.75l-10.21,8.1c.04.54-.66,1.1-1.11.74l-.03.44-8.39,5.6c-.63.58-1.24.84-1.82.79.25.53-.47.82-.91.63l.07.36-15.71,9.04c.54,1.91.22,3.79-.3,5.65l7.91,5.34-.02.4c.39.45.69,1.19-.15.91l-.33.2-8.34-5.52c-1.11,1.32-2.85,2.38-4.53,2.77l-.48-.22c.02.55-.98.48-1.15,0-.69.64-2.21,0-3.03-.4-.98-.47-2.33-1.33-2.68-2.29-11.32,5.84-22.89,11.33-34.72,16.06-.51.21-1.05.36-1.58.52s-1.08.29-1.64.41c.07.59-.83.83-1.17.47-.39.25-.77.49-1.16.71s-.79.43-1.21.6c-5.01,1.97-10.08,3.79-15.18,5.5-.43.14-.87.23-1.32.32s-.9.15-1.35.21c-.14.55-.68.71-1.63.48.02.14.04.34-.05.38-.59.22-4.88,1.6-5.13,1.51-.14-.05-.26-.12-.34-.26-.26.68-1.02.79-1.62.49l-.07.38c-3.01.74-6.02,1.48-9.04,2.21l-.29-.29c-.54-.08-.51-1.43.02-1.56l.06-.38c2.9-.78,5.81-1.56,8.71-2.34l.3.28c.07-.37.34-.57.82-.62l.78.13.09-.39c.63-.34,2.57-.87,3.22-.63l.04-.38c.78-.2,1.58-.32,2.42-.37.76-.43,1.54-.83,2.37-1.11,6.16-2.04,12.26-4.21,18.33-6.5l1.29-.27c-.05-.51.72-.86,1.04-.43,3.29-1.74,6.67-3.29,10.15-4.64,9.05-3.97,18.02-8.1,26.9-12.4-.54-.44-.62-1.67-.64-2.43-.23-7.4,9.2-10.56,13.58-4.68l12.55-7.16c.27-.1.54-.11.79-.05-.13-.47.29-.73,1.27-.75l-.09-.36c4.24-2.81,8.49-5.62,12.74-8.43l.37.18c-.12-.53.71-1.16,1.16-.82l.18-.43,9.02-7.25c-.47-1.56-.15-3.65.76-5.05.37-.57,1.03-1.56,1.73-1.28-.1-.6.83-1.05,1.24-.61.5-.75,2.17-.77,2.8-.11.73.12,1.41.43,2.04.89,1.39-1.15,1.98-3.18,2.78-2.44.29.26.34.54.07.91l-1.8,2.45c1.87,2.53.95,4.64,1.23,5.23h.02Z"/>
    <path class="st46" d="M312.12,13.4c-.13.65-1.19,1.57-1.85,1.6l-.72-.18c-11.31-6.9-23.37-10.75-36.55-11.86-.23-.02-.46-.1-.68-.19-22.77-1-45.76,7.58-61.7,23.88l-.92.51-.27.29c-1.48-.29-2.7,1.07-2.5,2.51l-.29.28c-.18.45-.37.91-.67,1.29-3.3,4.19-6.2,7.89-8.82,12.6-3.14,5.65-5.66,11.82-7.39,18.04-1.42,5.1-1.94,9.63-2.5,14.84-.05.46-.22.88-.41,1.3-.15.38-.53.63-1.14.75-.44.37-.86.53-1.25.47l.2-5.26c-.55-.17-.3-1.36.18-1.56.87-7.49,2.95-14.76,5.92-21.78,4.64-10.94,11.49-20.74,20.27-28.73,7.12-6.49,15.13-11.66,23.97-15.47,6.3-2.71,12.75-4.51,19.52-5.61,8.29-1.36,16.55-1.53,24.87-.2,11.96,1.91,22.64,5.9,32.75,12.48h0Z"/>
    <path class="st46" d="M217.35,110.73l-9.07,2.43-.35-.27c-.1-2.3-1.74-4.9-4.28-4.81l-.3-.32c-.17.34-.52.58-1.06.71l-1.27,1.1c-.18.44-.44.67-.79.68l-.34-.34c.2-1.4.22-2.74.06-4-1.37.03-1.6,7.56-1.1,8.8l-.3.39c0,.14-.02.34-.1.36-.42.14-1.88.34-2.04-.13-.11-.13-.22-.26-.3-.4s-.16-.28-.18-.43c-.22-1.47-.28-2.96-.32-4.44-.07-2.34.12-3.43.67-5.55.07-.26-.22-.1-.36.02-1.45,1.35-.72,8.52-.39,10.53l-.3.29c-.24.75-2.14.91-2.55.25-.17-.35-.27-.34-.3.03,0,.14-.04.34-.14.36-.74.13-2.46.23-3.21.21l-.27-.33-1.24-4.62c-.53-1.93-.14-3.86.91-5.66-2.17-6.37-3.55-12.94-3.96-19.6l.05-1.04c.71.31,1.44.63,2.19.92l.23.4.29.67c.69,5.3,1.58,10.6,3.18,15.72l1.06-.75.1.1c-1.77-4.61-2.57-9.97-2.9-14.88l.18-.63c-.07-.31-.1-.57-.08-.78.34-.39,1.19-1.15,1.63-1.09l.52.57c3.83,11.4,15.35,17.49,26.01,21.95.14.08.84,2.94.8,3.11-.06.26-.13.34-.41.47h0l.02.02Z"/>
    <path class="st51" d="M236.14,42.58c-.07.36-.39.61-.95.74-.39.32-.73.4-1.03.26-1.34.62-2.63,1.32-3.87,2.1.14.5-.37.71-.68.31-.43.13-.71.39-.84.76.55,1.66.39,3.04,0,4.69.39.75-.58,1.84-1.13,2.42-1.55,1.65-3.86,2.44-6.1,2.13-.8-.1-2.25-.34-2.44-1.16-.34.49-1.2-.3-1.2-.83-.31.19-.67-.03-1.08-.67-10.38,6.91-20.82,14.73-26.78,25.59.43.44.57.86.44,1.26.44-.29.65.18.31.55.55-.02.78,1.32.29,1.53.09.8.02,1.55-.21,2.25l-.46.12c-.53.92-1.69,1.17-1.56,1.87-.55,0-1.13.04-1.72.13l-.18-.37c-.85-.14-1.62-.54-2.37-1.1l-.1.82c-.02-.3-.04-.82-.21-1.13-1.2-1.63-1.19-3.83.14-5.3.59-.66,1.53-1.04,2.39-1.23.1-.73,2.05-.34,2.17.26l.45-1.52c.15-.47.4-.68.75-.62-.02-.82.21-1.19.68-1.11l.24-1.03c6.26-9.32,15.72-16.23,24.81-22.43-.31-.88-.43-1.74-.37-2.56l.24-.14c-.54-.06-.42-.88.06-1.05-.56-.62.09-1.91.47-2.6.3-.54.65-1.13,1.22-1.4.45-.75,1.93-1.85,2.79-1.41.23-.51,1.1-.83,1.42-.3.47-.68,1.78-.36,2.53-.17.87.22,1.7.63,2.43,1.16.69.5,1.93,1.46,1.73,2.31,1-.34,2-.83,2.87-1.44-.18-.51,1.03-1.1,1.36-.69,1.33-.71,2.7-1.38,4.09-2.01.26.39.05.73-.63,1.02h.02Z"/>
    <path class="st84" d="M321.07,19.53c.51.55-.28,2.21-1.01,2.23.34.56-.64,1.55-1.21,1.24-.04.79-1.32,1.15-2.04,1.33-1.06.27-2.2.28-3.26,0-2.22-.57-3.37-2.02-4.44-3.81-1.04.49-.91-.87.02-1.18l-.32-.32c-.06-.67.03-2.6.76-2.7-.45-.36.15-1.56.71-1.32.49-.61,1.14-1.16,1.85-1.6,1.06-.65,2.2-.83,3.48-.77,3.52.14,6.18,3.45,5.47,6.9h0Z"/>
    <path class="st79" d="M342.26,43.86c-.92-.16-1.87-.09-2.8.11l-.58-.51c-3.22-4.88-6.61-9.69-10.7-13.9l-8.21-7.4.08-.4c.43-.7.85-1.42,1.01-2.23,6.99,5.39,13.06,11.8,18,19.16l3.18,5.17h0Z"/>
    <path class="st40" d="M198.56,115.08c.51-.2.82,1.17.34,1.39l-2.14.32c.14.51-.87.62-1.03.14l-6.14.47-6.95-.06-4.26-.59c-.39-.06-.62-.42-.62-.73,0-.26.3-.69.72-.63,3.46.52,6.89.68,10.3.46l3.62-.23c0-.35.15-.36.3-.03.85.08,1.76.03,2.55-.25-.09-.52,1.06-.54,1.17-.03l2.14-.23h-.02Z"/>
    <path class="st35" d="M335.64,20.95c-3.38-.77-6.67-1.03-10.12-1.32-.26-.02-.1-1.03.18-1.03,3.43,0,6.78.44,10.13,1.22.27.06.19.88-.2,1.15h0Z"/>
    <path class="st66" d="M292.63,87.71c.14-.02.34.02.34.12.03,9.87-.74,20.79-3.02,31.04l1.4-.36c10.74-1.23,21.22-4.24,31.1-8.57-.15-.17.08-.52.43-.46.42.19.69,1.24.39,1.59-10.48,4.82-22.05,7.76-33.69,8.92l-.79,4.08-.24.43c-.17.3-.64.37-.86.54l-.32-.21.72-4.44c-12.23.96-24.66.52-36.74-1.72,2.16,8.71,4.49,17.81,9.29,26.09.88.95-.46,1.4-1.2,1.08s-3.5-6.72-4.1-8.16c-2.61-6.22-4.52-12.79-5.82-19.4-8.17-1.76-17.41-4.02-24.62-7.57l-.1-.42,1.63-.48.83.1c7.12,2.66,14.32,5.26,21.83,6.64-.87-4.7-1.68-9.39-2.44-14.07l1.17-.47c.39-.14.47-.03.53.34.75,4.9,1.52,9.8,2.54,14.66,12.36,2.28,24.95,2.79,37.48,1.84,1.44-9.15,2.53-18.27,2.9-28.11.03-.91.06-1.86-.02-2.74l.22-.3h1.16,0Z"/>
    <path class="st16" d="M324.98,108.14c.63.09,1.16.83,1.36,1.36.17.45.32,1.11.1,1.61-.27.6-1.04.83-1.59.83-.46,0-.87-.17-1.22-.43-.14-.1-.26-.29-.34-.44-.27-.49-.43-1.03-.39-1.59-.3-.18-.28-.59.09-1.23-.71-1.25.26-1.84,1.13-.6.45.02.75.18.87.48h0Z"/>
    <path class="st46" d="M325.37,59.43l-13.02,8.62c-.77.07-1.54.13-2.32.05-5.73-.55-11.41-1.08-17.15-1.52-.39-.03-.43-.13-.51-.53l-.35-.1c-.12-2.3-.22-4.61-.33-6.92l.33-.22c-.14,0-.34-.04-.35-.14-.06-.4-.22-2.81-.17-3.09.26-.16.34-.51.24-1.05l-.36-.12-1.03-9.38,1,10.09-.33.24.37.29c.07,1.05.14,2.1.2,3.14-.28.14-.38.42-.3.83.14,0,.34.02.35.1.16,1.26.27,3.26.24,4.52.14.56.04.91-.3,1.04.04,1.03-.07,1.51-1.73,1.12-10.46-.44-20.85-.6-31.16-.47-.06.12-.16.3-.26.28-.51-.09-2-.54-2.01-1.07-.05.3-.24.39-.57.26-.15.35-.4.61-.78.7-2.98.18-5.94.25-8.87.2l-.15-.43.29-3.79.37-.22c.29-.35.43-.33.29.13.26-.43.68-.26.48.22.26-.43.39-.36.26.11.12-.26.32-.35.33-.23.02.54.22.72.62.27.18.02.29.19.3.52.43-.32.74-.31.7.3.39-.48.47-.21.58.26.42-.3.59-.39.56.25.38.26.63.25.75-.05l.27.12c-.17.57.09.47.55.18.14-.09.42-.97.02-.29.1-.45,0-.49-.29-.13.14-.47,0-.53-.26-.11.14-.47,0-.54-.28-.13.15-.47-.16-.61-.41-.18-.05-.54-.16-.59-.34-.14,0-.34-.18-.55-.56-.63-.27.43-.62.27-.48-.22-.36-.26-.61-.23-.75.05.1-.49-.06-.57-.35-.16.14-.48-.19-.63-.45-.2l-.22-.1c.1-.31-.1-.53-.62-.66-.34.39-.54.31-.43-.18l-.34-.15c-.06-.34-.13-.69-.16-1.03s-.06-.69-.04-1.03c.43-5.87,1.18-11.75,2.33-17.53,12.39-2.25,24.75-2.51,37.23-1.02.54.06,1.04.17,1.5.48l.39.03c.43.9,1.77,1.25,2.52.57l.37.09c.51-.19,1.08-.17,1.71.08l-1.38-.59c-.14-.06-.14-.12.02-.18l.63-.22c3.71-.04,7.42-.16,11.13-.38l15.34-1.7.44.1c2.66,5.25,4.32,10.91,5.91,16.56.16.57.25,1.12.22,1.71.39.77.66,1.59.83,2.46l-.26.32h0,0Z"/>
    <path class="st46" d="M266.85,70.27l.36-.23,3.07,1.23.1.42.29-.26,12.79,5.62c.06-.1,0-.18-.15-.22l-12.13-5.33-.06-.4c-.27-.1-.49-.07-.67.1l-3.1-1.29-.1-.42c-.05.13-.16.3-.24.28-2.08-.74-4.59-1.76-6.59-2.7-.48-.09-.71-.3-.67-.65.43-.1.87-.21,1.3-.27s.87-.14,1.31-.14c9.26-.22,18.55.02,27.8.44l1.36.31c-.02.89,0,1.77.09,2.64.29.02.59.25.73.52.1-1.07.14-2.16.14-3.28,6.12.41,12.47,1,18.57,1.74v.43l-13.44,7.67c-1.6-2.27-4.2-3.51-6.85-3.14-2.24.31-4.13,1.64-5.17,3.26-1.32,2.06-1.4,4.45-.59,6.68-12.23,6.09-24.66,11.72-37.28,16.88-.13-.35-.26-.72-.35-1.08s-.2-.73-.23-1.1c-1.15-10.39-1.62-20.92-1.05-31.35l.39-.2,9.83-.38.51.13.28-.26c6.45,2.64,9.67,3.95,9.67,3.95l.06.4h0Z"/>
    <path class="st46" d="M246.7,100.58c-7.21,2.94-14.57,5.58-21.99,7.89l-1.58.15c-.51-.09-5.49-1.77-5.58-2.05-1.29-3.94-1.88-9.06-2.28-13.22-.73-7.56-.65-15.31.41-22.84,9.71-2.37,19.75-3.7,29.75-3.83-.3,11.01.39,22,1.4,32.95l-.13.95h0Z"/>
    <path class="st46" d="M291.48,87.7c.1.11.17.27.17.51,0,5.64-.39,11.11-.98,16.74l-1.98,14.15c-12.65,1.08-25.61.61-38.01-1.89-1.13-4.96-1.99-9.76-2.65-14.69-.03-.26-.1-.39-.21-.54,12.87-5.17,25.44-10.93,37.94-17.28,1.43,1.78,3.51,2.91,5.71,2.98h0Z"/>
    <path class="st46" d="M318.85,23c.22.06.44.13.64.22s.4.18.57.3c6.95,5.57,13.07,12.22,17.78,19.79.11.18.18.39.24.61s.1.44.14.67c-2.17,1.45-2.66,4.16-2.2,6.47-2.75,2.74-6.43,5.16-9.5,7.56-.24.17-.46.16-.55-.11-1.54-6.81-3.79-13.4-6.47-19.85l.32-.59c3.02-.61,6-1.33,8.95-2.16.11-.06.46-.24.39-.33-1-1.54-3.24-3.35-4.75-4.44-3.79-2.74-8.16-4.48-12.56-5.92-.97-1.22-2.03-2.36-3.18-3.42l-.27-.69c-.3-.39.32-.67.7-.56.34,0,.54,0,.71.35,1.66,3.4,5.98,4.31,9.04,2.12h0v-.02Z"/>
    <path class="st41" d="M219.1,54.83l.05.75c-.95,4.25-1.79,8.53-2.52,12.83-.59,1.44-.47,1.75.36.91,9.15-2.13,18.54-3.13,27.91-3.55l.33-4.21.37-.22c.14.12.3.06.47-.17l-.04.36c.25-.43.55-.3.39.18.22-.42.31-.34.29.13l-.32,4.25,8.23-.28c.54-.02.89-.15.96-.8l.84.13c.2.34.33.68.39,1.03-.18.18-.42.23-.74.24l-9.75.34c-.43,11.25.13,22.32,1.41,33.4l-1.04.43c-1.2-11.06-2.07-22.36-1.46-33.71-9.9.47-19.64,1.62-29.33,3.85-1.37,11.94-.93,23.99,1.91,35.67l4.95,1.73c.55.19,1.39.52,1.96.34l-2.46.75c-1.23-.22-2.45-.5-3.64-.81.03.63.14,1.24.34,1.84l-1.6.49c.1-.19.07-.43,0-.69l-.63-2.66c-7.52-3.18-15.07-6.73-20.57-12.78l-2.94-3.71c-1.3-1.95-2.21-4.02-2.82-6.26.4-.7.65-1.55.67-2.36l.36.1c2.05,11.66,13.98,18.62,24.23,22.88.75.79.83.75.23-.13-2.1-10.93-2.78-22.16-1.52-33.22.7-.81.36-.87-.99-.18-6.37,1.67-12.94,3.58-18.79,6.51-1.32.67-2.49,1.52-3.39,2.59l-.41-.08-.31-.55c-.14-.5.07-.97.66-1.43,2.9-2.1,6.52-3.62,10.05-4.88,4.41-1.57,8.89-3.06,13.48-3.99.66-5.32,1.62-10.54,2.87-15.67l.35-.23,1.2.83h0Z"/>
    <path class="st46" d="M246.65,102.47c.08.02.21.02.26.07s.08.18.1.34l2.51,14.13c-8.1-1.58-15.71-4.08-23.09-7.2,6.81-2.25,13.56-4.67,20.21-7.34h0Z"/>
    <path class="st46" d="M315.41,68.15l10.24-6.83c.91,3.02,1.29,6.09,1.67,9.32l-11.5-2.19c-.22-.04-.36-.18-.4-.3h0Z"/>
    <path class="st38" d="M339.46,43.98c-.43.09-.94.41-1.24.61-5.26-8.65-11.52-15.42-19.37-21.59.47-.34.9-.74,1.21-1.24l8.37,7.56c4.26,4.48,7.93,9.37,11.03,14.66h0Z"/>
    <path class="st3" d="M312.35,68.04l-1.27.75c-.12-.1-.25-.2-.47-.22l-18.05-1.69-.02,2.83c0,.16-.11.18-.18.18-.09,0-.18,0-.23-.05-.18-.13-.18-3.49,0-3.69.06-.06.14-.09.23-.11.13.08.29.18.55.19,6.55.34,12.99.92,19.44,1.8h0Z"/>
    <path class="st2" d="M222.25,109.21l-3.3,1.03c-.15.02-.45,0-.48-.22l-.27-2.15,3.65.99c.21.06.34.18.41.34Z"/>
    <path class="st4" d="M310.26,15c-.29.35-.51.87-.71,1.32-.47-.09-.95-.19-1.37-.42-5.1-2.7-9.54-5.01-15.04-6.93-3.41-1.2-7.04-2.3-10.44-2.98l-.08-.15c-.4.09-.81.17-1.22.11-4.15-.55-8.04-.98-12.22-1.26-.85.08-1.64,0-2.35-.24l.06-.43c1.73-.55,3.55-.77,5.45-.68-2.32-.23-4.83-.26-6.86,1.05l-.66.1c-.41.18-.84.34-1.29.38-3.69.21-7.36.61-11,1.21l-.69-.1c-7.67,2.25-15.05,4.74-22.08,8.63-6.61,3.66-12.47,8.19-17.96,13.34l-.65.32c-.43.3-1.5-.69-1.49-1.13,1.89-2.13,3.91-4.03,6.18-5.89,9.4-7.72,20.32-13.28,32.13-16.33,21.46-5.54,43.73-1.77,62.28,10.07h0v.02Z"/>
    <path class="st55" d="M207.82,31.79c-.14.43-.3.86-.57,1.21-3.96,5.18-7.32,9.58-10.24,15.5-1.88,3.8-3.4,7.7-4.67,11.74s-2.24,8.18-2.73,12.22c.15,2.13-.06,4.17-.63,6.1-.81-.14-1.48-.42-2.17-.26.36-9.92,3-19.56,7.13-28.68,3.22-7.11,7.44-13.6,12.66-19.4.47.06,1.38,1.08,1.2,1.56h.02Z"/>
    <path class="st47" d="M209.68,27.15c.58.19,1.04.75,1.49,1.13.51-.09.54.49.07.67.13.34.16.69.1,1.07.54.61-.58,1.72-1.28,1.87l.58.48c1.52,4.29,4.12,7.83,6.88,11.17.19.48.11.71-.43.86-.86.22-3.16-2.99-3.76-3.84-.99-1.4-3.67-5.67-3.66-7.15,0-.17.02-.34.06-.51-.32.12-.53-.14-.65-.77l-.18-.1c-.13.55-1.2.36-1.09-.24-.47-.43-1.03-.95-1.2-1.56-.27-.91.1-1.85.74-2.5.55-.57,1.52-.84,2.33-.58h0Z"/>
    <path class="st77" d="M188.87,86.49c.45,5.24,1.36,10.4,3.02,15.55l-1.63,1.16c-1.74-5.52-2.87-11.17-3.3-16.94.56.09,1.16-.13,1.76-.26l.14.51h0Z"/>
    <path class="st14" d="M196.42,115.31l-1.17.03c-.56-2.98-1.09-10.59.77-11.29.25-.1.68-.03.75.18-.42,1.01-.72,2.03-.76,3.12-.11,2.7-.02,5.33.41,7.95h0Z"/>
    <path class="st23" d="M192.7,115.59c-.1,0-.22.03-.3.03-.87-3.17-1.31-6.49-1.06-9.78.07-.9.55-1.76,1.48-1.94-1.2,3.75-.72,7.92-.12,11.69h0Z"/>
    <path class="st67" d="M248.76,35.91c-2.16,1.33-4.44,2.46-6.83,3.39-3.22,1.43-6.3,2.85-9.25,4.26l-1.36.69c-.87.6-1.88,1.08-2.87,1.44-1.48-2.23-3.95-3.62-6.69-3.3-.12-.08-.29-.21-.26-.3,1.42-5.03,4.19-11.7,7.28-15.96.81-.09.95-.23.41-.44-.14-.68,2.76-4.32,3.47-5.2,6.51-8.03,15.3-13.44,25.54-15.1.87-.14,5.6-.81,5.7-.3.08.41-.9,1.03-1.29,1.28l-1.99,1.76c-6.12,7.47-8.8,17.09-11.2,26.54-.13.46-.39.87-.64,1.26h0Z"/>
    <path class="st46" d="M191.08,82.27l-.29-1.53,1.24-1.28c1.31-1,2.69-1.75,4.24-2.42,5.96-2.58,12.08-4.49,18.52-6.02-1.33,12.05-.67,23.09,1.61,34.91-8.73-3.64-16.63-7.79-22.03-15.46-1.46-2.21-2.66-4.5-3.16-7.12l-.13-1.07h0Z"/>
    <path class="st46" d="M220.34,42.7c-2.49.77-4.17,2.82-4.48,5.41l-.47.39c-4.6,1.68-9.22,3.39-13.44,5.92-.31.17-.58.29-.67.21-.62-.55-.1-6.1.1-7.23,1-5.45,4.01-10.92,7.99-14.67l.38.17c1.49,4.08,3.71,7.76,6.71,10.87.26.27.67.39.96.19l-2.97-3.77c-1.97-2.49-3.16-5.42-4.38-8.29l.36-.09c4.27-3.91,10.41-4.96,16.01-5.51.9.06,1.3.13.78.95-2.74,4.72-4.66,9.82-6.48,14.94l-.4.53h0Z"/>
    <path class="st46" d="M217.9,54c0,.56-.14,1.07-.3,1.68-1.17,4.74-1.98,9.47-2.7,14.43-6.33,1.56-12.48,3.46-18.45,6.06l-3.51,1.75c-1.07.52-1.88,1.3-2.45,2.27l-.83-1.18c.17-.67.67-1.11.96-1.67,2.21-4.18,6.87-9.31,10.49-12.55,4.95-4.41,10.22-8.34,15.82-11.85l.97,1.07h0Z"/>
    <path class="st78" d="M264.83,4.5l1.74-.34.26.3c5.3-.02,10.63.3,15.79,1.39,0,.17-.4.13-.39.13.28,0,.51.03.79.09,8.83,1.81,14.89,5.13,21.87,10.77,1.02.82,2.18,1.8,2.89,2.73,0,.14-.02.34-.12.36-.25.07-2.31.26-2.49.23l-.28-.32-.04-.39c-7.89-7.44-18.35-11.78-28.99-13.33,5.51,4.12,8.28,10.84,10.63,17.1.05.54-1.14.79-1.37.31-.35.03-.52,0-.63-.34-2.28-6.55-6.22-15.69-13.59-17.6-2.65-.69-5.28-.34-7.51,1.29-6.82,4.97-10.44,18.55-12.35,26.2-.08.85-.29,1.58-.62,2.21.23.5-1.38,1.08-1.68.64,1.1-4.91,2.36-9.74,4.15-14.52l3.03-6.93c1.89-3.55,4.17-7.3,7.84-9.25-14.62.45-26.65,8.05-34.4,20.46l7.34.06,3.75.03c.07.03.1.09.1.14l-3.84.07-7.76.4c-2.39,3.71-4.28,7.57-5.73,11.71l-1.49,4.31-1.42.3c1.66-5.57,3.83-10.89,6.88-16.12-6.14.48-11.98,1.65-16.73,5.37-.08.06-.26-.04-.43-.06,1.01-.74,1.3-1.73,1.17-2.94.38-.26.51-.02.55.39,4.83-2.53,10.35-3.74,15.83-3.84,5.14-8.62,14.13-17.47,24.22-19.33.81-.14.51.12.11,0-.04-.02-.06-.07-.09-.14,4.27-.91,8.62-1.41,12.97-1.49h0l.02-.04Z"/>
    <path class="st46" d="M215.79,49.15c-.06.93.27,1.79.62,2.79l-2.43,1.68c-4.56,3.15-8.95,6.36-13.06,10.12-3.84,3.51-7.36,7.2-10.04,11.57-.14-.03-.34-.08-.35-.18-.59-4.99.6-9.74,3.71-13.82,4.68-6.16,13.08-10.06,20.4-12.18.18-.05.37-.05.57-.05s.4.03.6.07h0Z"/>
    <path class="st79" d="M208.91,32.02c.48.08.63.52.14.71-5.78,5.37-9.01,14.07-7.72,21.95-3.96,2.67-7.7,5.79-9.63,10.28-.43,1.01-.93,2.22-.86,3.3-.33,1.79-.58,3.59-.74,5.37.25.98.27,1.91.08,2.78l-1.2,2.14.66-8.49c1.39-7.99,3.71-15.07,7.34-22.32,2.9-5.82,6.63-11.05,10.83-15.97.22.16.75.22,1.09.24h0Z"/>
    <path class="st78" d="M287.47,39.35c.49.08.47,1.07.05,1.24-12.78-2.02-25.63-1.13-38.51.75-1.14,6.53-1.9,12.95-2.35,19.37-.31-.22-.52-.18-.61.11-.47-.1-.68-.32-.65-.67.14-.06.18-.14.2-.38.4-6.1,1.07-12.04,2.17-18.22l-12.62,2.34c-.54.1-.96.31-1.4.04-.12-.14,0-.26.39-.35.52-.47,1.34-.8,1.99-.99h.17c3.71-.87,7.48-1.61,11.28-2.21l.53-3.08.43-.43c-.14-.53,1.13-1.03,1.46-.61l.3.26c-.26,1.22-.45,2.4-.59,3.55,12.07-1.48,24.8-2.5,37.28-.4.04-.27.19-.34.48-.31h0Z"/>
    <path class="st20" d="M309.12,19.35c-.04.37-.36.68-.54.95.18.13.39.22.52.22l-.7.56c-1.25.86-2.44,1.84-3.36,3.05.3.43-.83,1.71-1.3,1.52-1.7-.7,2.49-4.27,3.33-4.82-6.11.42-12.57,1.66-18.79,3.05-.61.12-1.24.1-1.86.06.22.47-.9.74-1.11.39h-.45c-.42.29-.84.58-1.32.72-8,2.41-15.71,4.72-23.57,7.63-2.86,1.05-5.67,2.18-8.49,3.33l-1.48.24-1.46.61-.6.51c-3.39,1.56-6.78,3.16-10.16,4.79l-1.48.41s-.09.04-.17,0c.15-.21.54-.36.58-.82-1.16.43-2.18.93-3.21,1.56l-.83.25,1.21-.77c4.92-2.49,9.86-4.76,14.87-6.88l1.68-.64c.07-.13.15-.26.26-.36s.19-.21.3-.26c5.67-2.5,11.81-4.65,17.71-6.65,5.09-1.72,10.41-3.48,15.63-4.66.12-.02.26,0,.39.02s.27.08.41.14l1.37-.31c.2-.14.41-.27.63-.39s.43-.22.65-.26c5.03-1.22,10.57-2.46,15.71-2.93.23-.02.47,0,.7.04s.48.1.71.17l2.89-.26c-.15-.51,1.13-.7,1.31-.22h0Z"/>
    <path class="st21" d="M209.73,32.89c-.34.2-.59.44-.9.77-5.11,5.45-8.21,13.14-7.49,20.74,4.6-2.81,9.46-4.75,14.51-6.29l-.06,1.05c-4.8,1.36-9.49,3.22-13.83,5.84-6.27,3.79-11.31,9.79-11.21,17.36l.13,2.96-.68,1.11c-.2-1.46-.69-3.05-.32-4.57.33-1.36.82-2.61.57-4.06,1.2-5.78,5.65-10.19,10.6-13.23-1.23-7.03,1.39-14.73,5.8-20.1l2.04-2.02c.14,0,.27-.11.22-.21l-.18-.2c.25,0,.5-.04.56.14l.26.72h0l-.02-.02Z"/>
    <path class="st20" d="M231.32,44.26c-.3.53-.95.64-1.51.93-.45.23-.79.55-1.36.51l2.87-1.44h0Z"/>
    <path class="st83" d="M282.63,5.85l1.9.4c8.91,1.88,17.27,5.34,25.02,10.07-.4.95-.32,2.01-.44,3.02l-1.31.22c-.18-.02-.46-.03-.66-.22-4.15-3.99-8.75-7.3-14-9.7-3.64-1.67-7.24-2.95-11.09-3.63.22-.22.44-.14.57-.17h0Z"/>
    <path class="st76" d="M291.64,69.38c-.3-.81-.07-1.7-.14-2.54-10.71-.57-21.26-.79-31.72-.43-.15.51-1.19.02-1.06-.47.21-.15.38-.23.73-.23,10.71-.23,21.31-.05,32.05.44l.11-.86.35.19.05,3.64-.34.26h-.02Z"/>
    <path class="st9" d="M290.79,41.27c-.37-.34-.15-.65.33-.51,8.66,1.86,16.92,5.09,24.63,9.59,2.83,1.81,5.59,3.49,8.07,5.79l-6.02-4c-6.97-4.63-18.75-9.3-27-10.87h0Z"/>
    <polygon class="st53" points="245.4 60.15 252.98 63.5 252.56 64.44 240.23 59 240.65 58.05 246.66 60.7 252.98 63.5 252.56 64.44 246.72 61.86 245.6 61.37 240.23 59 240.65 58.05 245.4 60.15"/>
    <path class="st63" d="M289.77,38c.44-.74,2.08.92,1.36,1.37.11.39.05.83,0,1.22l-.02.18-.33.51c-.39.59-1.13.73-1.94.53-.52-.13-1.14-.57-1.33-1.21-.12-.39-.06-.83-.05-1.24-.63-.46.75-1.99,1.24-1.35.02-.61.87-.59,1.05-.02h0Z"/>
    <path class="st62" d="M258.7,65.94l1.06.47,7.49,3.07c.55.38.24.99-.4.78l-10.02-4.09c-.18-.12-.48-.25-.55-.43-.08-.22.06-.45.15-.6l2.26.79h0Z"/>
    <path class="st28" d="M291.74,54.53c.14.83-.15,2.16-.72.83l-1.05-10.52c.23-.14.43-.26.71-.25l1.07,9.93h0Z"/>
    <path class="st65" d="M292.02,58.8l.35,7.25v3.86c-.18.02-.38.04-.56-.04-.18-.08-.12-.35-.17-.48l-.06-4.09-.3-5.67c-.1-.7.23-1.72.74-.82h0Z"/>
    <path class="st33" d="M292.02,58.8c-.19,0-.47,0-.57.1-.18.18-.14.5-.16.71l-.27-4.26c.17.14.35.23.64.21l.09-1.03.11,1.07.17,3.21h0Z"/>
    <path class="st46" d="M314.5,68.78c.14.16.3.22.53.26l12.39,2.4c1.06,8.66.83,17.14-.47,25.66l-2.12,10.49c-.04.2.07.39.13.53-.64-.09-1.32.07-1.65-.99-.67.51.03.86.02,1.11l-.47,1.22-.22.7c-10.4,4.68-21.46,7.7-32.9,8.86,1.37-7.79,2.37-15.54,2.78-23.48l.09-7.85c1.92-.51,3.68-1.33,4.93-3.01l8.75,5.78c.09-.1.2-.18.34-.18.13,0,1.76,1.33,1.95,1.54l-.02.43.35-.14,5.91,5.37c-1.75-1.74-3.57-3.46-5.47-5.16l-.19-.47-.45.07c-.3-.07-2.28-1.91-2.25-2.37l-8.4-5.67c.86-1.98.95-3.94.41-5.91l16.03-9.21h0l.02.02Z"/>
    <path class="st13" d="M309.17,91.88c.06.43-.23.52-.6.4l-2.27-1.79c.34-.14.23-.58.15-.91l2.71,2.3h0Z"/>
    <path class="st48" d="M308.57,92.28c.1-.24.32-.35.6-.4,2.04,1.73,4.12,3.43,6,5.45-.02.29-.03.54-.19.87l-6.41-5.9h0Z"/>
    <path class="st57" d="M321.93,105.06c.15.19.09.43-.06.52-.16.11-.34.05-.51-.14l-4.4-5.37c-.07-.08.2-.32.3-.34.16-.03.4.02.56.22l4.1,5.13h0Z"/>
    <path class="st50" d="M271.11,71.1l12.35,5.42c.31.14.42.32.34.6-.04.14-.19.39-.47.26l-12.94-5.7c-.71-.59.05-.86.74-.58h0Z"/>
    <path class="st82" d="M271.11,71.1c-.16,0-.39-.02-.55.09-.11.07-.17.29-.18.49l-3.52-1.4c.29-.16.39-.44.4-.78l3.86,1.61h0Z"/>
    <path class="st46" d="M305.04,24.13c.07.07.17.17.28.2l5.89,1.43c2.72,3.78,4.92,7.73,6.88,12.09-6.28.95-12.33,1.64-18.56,1.93l-8.04.16c-.17-.13-.28-.47-.37-.57-.18-.63-.72-1.22-1.36-1.37l-.34-.61c-1-4.26-2.03-8.51-3.06-12.76l.05-.7c5.34-1.22,10.7-2.3,16.22-3.06l5.84-.52c-1.77,1.04-3.22,2.36-4.51,3.93-.31.39-.39.87.06,1.19.22-.67.71-.93,1.02-1.33h0Z"/>
    <path class="st18" d="M326.52,58.61l-1.16.82-.62-2.2c-.13-.47-.71-.7-.99-1l.14-.14c.18.08.3.39.67.35-1.4-6.14-3.49-11.94-6.1-17.82l-13.67,1.54c-4.62.52-9.12.51-13.67.43-.47-.11-.43-1.06,0-1.22.31-.1.41,0,.57.22,8.23-.03,16.87-.6,25.34-1.91,1.02.42,1.1.16.25-.76-1.77-3.79-3.91-7.6-6.3-10.85-2-.47-3.99-.96-5.97-1.5l.02-.43c-.02-.12-.03-.23-.02-.34.05-.58,2.57-2.84,3.39-2.7,1.36,1.11,2.52,2.4,3.64,3.83,6.55,2.05,13.48,5.29,17.65,10.76-.55.49-1.18.78-1.89.94l-8.01,1.8,3.88,10.1,2.53,9.36c.08.3.02.59.32.73h0Z"/>
    <path class="st46" d="M328.39,35.5c-3.02,1.02-5.92,1.6-9,2.13-1.76-4-3.83-7.65-6.31-11.41,4.6,1.43,8.72,3.64,12.46,6.45l2.85,2.82h0Z"/>
    <path class="st46" d="M251.86,5.99c.14.04.35,0,.57.15l-2.19.54c-9.87,3.41-17.01,10.24-22.46,19.08-5.82.35-11.41,1.24-16.32,4.3,0-.54.05-.91-.22-1.11l-.07-.67c11.09-11.23,25.32-19.01,40.69-22.29h0Z"/>
    <path class="st73" d="M266.84,4.47c-.66.16-1.39.36-2.01.04,2.18-1.81,4.78-1.69,7.6-1.52.28.02.33.37.24.54-.33.66-3.81-.3-5.83.95Z"/>
    <path class="st46" d="M245.4,60.15c-.25.38-.38.34-.23-.1-.25.45-.91.18-.7-.3.02.51-1.75-.29-1.75-.39,0-.12.02-.25.03-.36-.28.42-.43.34-.31-.14-.25.39-.32.35-.21-.09-.25.43-.39.37-.39-.18-.37.47-.37.33-.35-.16,0-.1-.21-.02-.38.22.07-.51.03-.46-.31-.07-.29.32-.3.97.18.38-.07.49.18.62.41.18-.16.47.13.6.38.17-.12.44-.05.47.2.09-.12.48.04.55.31.14-.22.42-.1.47.33.14.06.61.07.61.56.25.06.54.17.59.34.14-.1.45-.04.48.22.1-.12.49.04.56.32.14.06.64.69.82,1.24.55-.14.35.03.43.32.52l-.37,4.76c-9.83.42-19.43,1.5-29.16,3.75.74-5.29,1.78-10.18,3.03-15.04,3.67,2.01,8.14.45,9.66-3.39.28-1.05.39-2.09.34-3.1-.55-1.31-.39-2.09.51-2.35l.68-.31c.38-.27,3.08-1.85,3.3-1.84.06,0,.12.04.17.08,4.54-1.01,9.13-1.9,13.75-2.69.61.2.78.47.47,1.23-.95,5.89-1.65,11.79-2.12,17.71l-.44-.03h0v.02Z"/>
    <path class="st20" d="M229.59,45.98l-.81.71c.67,1.64.56,3.26-.03,4.74-.16-.57.03-1.09.22-1.67.42-1.3-.66-2.52-.13-3.52.16-.3.55-.18.75-.27h0Z"/>
    <path class="st20" d="M234.15,43.57l-.39.35-3.47,1.75c.09-.25.36-.43.66-.58l2.15-1.16c.36-.2.71-.41,1.06-.36h0Z"/>
    <path class="st5" d="M236.27,57l-6.81-3.21c-.32-.15-.47-.41-.34-.64.21-.39.44-.39.82-.2l6.67,3.26c.25.12.35.36.34.53,0,.23-.3.44-.68.26h0Z"/>
    <path class="st45" d="M285.14,23.52c-9.57,2.21-25.48,7.8-34.69,11.75-.18-.33-.09-.63,0-1.02,1.11-5.08,2.42-9.99,4.37-14.81,2.01-4.97,5.81-12.65,10.93-14.17,3.93-1.16,7.96.42,10.8,3.14,1.49,1.43,2.64,2.79,3.71,4.55,1.89,3.1,3.33,6.35,4.48,9.8.1.3.22.53.42.75h0Z"/>
    <path class="st32" d="M304.91,19.83c-6.21.57-12.32,1.97-18.4,3.38-.14,0-.29-.02-.46-.08s-.1-.28-.16-.44c-1.03-2.88-2.11-5.62-3.62-8.28-2.13-3.73-4.23-6.66-7.92-8.9,11.7,1.48,22.8,6.03,31.28,14.09-.34.05-.57.06-.73.22h0Z"/>
    <path class="st46" d="M284.87,24.34l.77-.07c1.29,3.95,2.31,7.99,3.11,12.06.06.26.05.55.05.83s-.03.57-.07.85c-.63.21-1.03.75-1.24,1.35l-.23.66c-8.57-1.28-17.1-1.48-25.72-.86l-12.3,1.32.78-4.22c10.75-4.51,23.62-8.98,34.86-11.91h0Z"/>
    <path class="st19" d="M248.54,36.86l-.65,3.82-10.42,1.86c-.43.08-.8.21-1.16.03,3.96-2.13,8.09-3.96,12.23-5.7h0Z"/>
    <path class="st1" d="M286.43,23.93c1.27,4.65,2.56,9.3,3.34,14.06-.32-.08-.75-.09-1.05.02-.87-4.57-1.96-9.09-3.36-13.56-.04-.13-.47-.1-.49-.1l1.56-.4h0Z"/>
    <path class="st64" d="M326.77,60.57l1.71,10.39,7.52,2.58c3.27,1.37,6.34,2.99,9.1,5.19.92.95,1.93,1.77,2.47,2.95.79,1.73.36,3.47.06,5.23-.43,2.56-1.07,4.83-2.39,7.07-1.74,2.98-3.95,5.45-6.59,7.71-2.97,2.53-6.09,4.71-9.58,6.46l-2.74,1.35c-.51-.02-1.09-.91-1.36-1.36-.39-.08-.54-.26-.47-.56,2.62-11.51,4.3-23.66,2.61-35.83-4.24-.77-8.45-1.62-12.65-2.53l.04-.42.91-.63.34-.09,11.17,2.14c-.32-2.68-.67-5.37-1.37-7.98l.1-.91,1.11-.74h0Z"/>
    <path class="st46" d="M331.99,94.09c3.47-.29,6.83-1.16,10.08-2.37,1.54-.68,2.86-1.41,4.18-2.63-.83,2.66-2.21,5.08-3.99,7.33-1.84,2.34-3.94,4.28-6.34,6.06-3.19,2.3-6.42,4.32-10.2,6.09,3.1-12.19,4.28-24.22,2.81-36.79,5.9,1.74,12.24,4.15,16.64,8.11.74.86,1.74,1.66,2.03,2.83.93,3.89-2.33,7.39-6.06,8.76-2.98,1.23-6.03,1.78-9.17,2.61h0Z"/>
    <path class="st46" d="M224.8,110.29l5.28,2.21c6.43,2.36,12.92,4.22,19.64,5.56,2.16,9.67,4.97,18.87,9.79,27.43.33.24.71.29,1.15.03-2.98-5.29-5.28-10.8-7.03-16.65l-2.75-10.63c12.43,2.37,25.09,2.7,37.61,1.84l-.8,4.96c-.19.14-.4.73-.79.44-1.16-.87-2.49-1.17-3.93-.79-1.2.31-2,1.44-2.7,2.57-1.2.41-2.71.53-3.78,1.42s-1.2,2.24-1.19,3.55c-1.11.14-2.33.64-2.99,1.48-.85,1.07-.63,2.52-.57,3.63-.93.47-2.31.96-2.78,2.13s-.44,2.47.17,3.6c-.06,1.11.52,1.95,1.36,2.73l-11.25.33c-.36,0-.92.35-1.28.08-3.32-2.57-7.41-3.84-11.62-3.21-4.32.66-9.94,3.19-11.53,7.31-4.23-1.89-9.65-.93-13.55,1.46-1.32.8-2.09,2.01-2.78,3.34l-.59-3.9c-.56-2.09-1.72-3.84-2.87-5.66l-3.73-5.87c-1.78-3.4-3.17-6.91-4.32-10.57l1.3-3.43c1.8-4.77-.87-7.19.02-10.95l9.39-2.29c.32-.08.56-.06.71.08,3.18,9.59,7.87,19.6,15.15,26.38-6.83-7.55-11.74-16.94-14.7-26.64l.45-.31,5.53-1.63h-.02Z"/>
    <path class="st58" d="M219.29,111.92c-.25.28-.02.47.09.83,2.57,8.4,6.6,16.11,11.96,23.05,1.54,2,3.19,3.59,4.91,5.39l2.45,2.57c-1.71-.88-2.92-2.25-4.26-3.53l-3.22-3.07c-2.98-3.3-5.26-6.99-7.42-10.89-2.43-4.36-4.18-8.89-5.73-13.62-.06-.19-.3-.23-.41-.23l1.62-.49h0Z"/>
    <path class="st9" d="M210.49,129.79c5.42,5.75,11.78,10.16,18.63,14.26-6.81-2.62-14.91-9.03-19.78-14.32-.6-.65-1.2-1.29-.93-2.21,4.86,3.76,11.42,4.14,17.23,3.66-1.57.75-3.18.68-4.8.71-3.59.06-7.01-.57-10.36-2.1h0Z"/>
  </g>
  <g>
    <g>
      <polygon class="st68" points="246.74 356.16 238.04 335.57 228.04 311.46 208.96 356.11 197.39 356.11 222.94 298.32 233.37 298.27 245.19 325.6 258.58 356.11 246.74 356.16"/>
      <polygon class="st68" points="298.94 356.09 288.09 356.11 288.16 308.31 270.45 308.26 270.53 298.28 317.21 298.29 317.19 308.26 298.92 308.33 298.94 356.09"/>
      <g>
        <path class="st68" d="M513.49,355.63c-11.82,3.81-24.54.74-33.77-7.71l6.18-7.73c6.18,5.85,16.83,9.6,24.23,6.3,2.85-1.27,4.25-3.59,4.13-6.54-.12-2.73-2.03-4.93-4.95-5.78l-13.6-3.93c-3.65-1.05-7.19-2.56-9.76-5.51-3.74-4.29-4.52-10.27-2.57-15.9,4.93-14.21,27.95-14.57,39.98-4.73l-5.45,8.11-7.87-3.95c-7.22-2.54-16.59-1.24-16.96,5.28-.14,2.56,1.28,5.08,3.84,5.89l11.27,3.58c8.82,2.8,16.56,5.49,16.7,16.38.09,7.44-3.87,13.83-11.39,16.25h0Z"/>
        <polygon class="st68" points="449.18 356.13 441.32 337.39 430.59 311.43 411.5 356.09 399.83 356.09 425.53 298.31 435.99 298.26 448.01 326.26 461.06 356.14 449.18 356.13"/>
        <polygon class="st68" points="381.22 346.23 381.26 356.14 341.24 356.15 341.26 298.38 352.22 298.29 352.16 346.22 381.22 346.23"/>
      </g>
      <g>
        <polygon class="st27" points="59.29 298.49 34.54 356.01 24.21 356.14 0 298.39 12.22 298.35 29.65 342.12 47.34 298.36 59.29 298.49"/>
        <polygon class="st27" points="183.85 298.48 166.07 339.6 159.2 356.12 149.01 356.1 124.4 298.41 136.68 298.31 154.28 342.06 171.96 298.29 183.85 298.48"/>
        <rect class="st27" x="86.17" y="298.33" width="10.93" height="57.8"/>
      </g>
    </g>
    <path class="st27" d="M479.68,388.92c.64-.3,1.37-.3,2.36-.21l-3.65,14.1c-.58.31-1.38.27-2.13.07l-2.83-9.59-3.09,9.52c-.26.39-1.53.34-2.02,0l-3.58-14.08,2.26-.02,2.5,9.76,3.07-9.83,1.69.02,2.99,9.81,2.44-9.55h0Z"/>
    <path class="st27" d="M409.49,402.95l-.2-9.08-2.9,5.92c-.53.66-1.97.65-2.38-.18-.93-1.89-1.34-3.71-2.76-5.39l-.18,8.77-2.3-.02.04-14.26c.72-.14,1.88-.25,2.26.08l4.11,8.42,4.15-8.3c.28-.5,1.74-.36,2.18-.16l.02,14.3-2.04-.1h0Z"/>
    <path class="st27" d="M253.23,402.89c-.81.17-1.36.1-2.09.02l-6.44-9.84-.19,9.91-2.03.03v-14.24c1.48-.33,2.09.05,2.68.92l5.57,8.12c.81-3.3.28-5.88.38-8.97.58-.22,1.41-.2,2.17,0l-.04,14.06h0ZM250.91,397.8l-.2.2.2.2.2-.2-.2-.2Z"/>
    <path class="st27" d="M275.88,402.85c-.47.29-1.69.33-2.08-.08l-6.29-9.31-.25,9.47c-.58.09-1.27.16-2.12.02l.02-14.22c.66-.16,1.67-.2,2.13.13l6.29,9.61.24-9.75,2.09.03-.02,14.11h0Z"/>
    <path class="st27" d="M33.34,402.99l-2.88-5.68c-.56-.55-2.03-.42-3.03-.23l-.06,5.88c-.76.14-1.58.12-2.31,0v-14.32h6.14c2.16,0,3.84,1.5,4.15,3.45s-.75,3.65-2.67,4.67l3,6.19-2.34.03h0ZM31.37,394.99c1.36-.04,1.81-1.25,1.79-2.19-.02-.89-.46-2.08-1.62-2.09l-4.2-.06.06,4.45,3.97-.1h0Z"/>
    <path class="st27" d="M100.76,402.81c-.04.54-1.85.21-2.21-.32l-6.22-9.37-.22,9.82c-.75.08-1.3.11-2.1-.02v-14c.34-.36,1.77-.42,2.14,0l6.38,9.52.18-9.63c.72-.15,1.31-.16,2.2-.06l-.16,14.07h0Z"/>
    <path class="st27" d="M521.55,403.05l-3.05-5.89c-.56-.5-2.15-.26-2.89.02l-.15,5.78c-.69.1-1.29.14-2.05.02l-.07-14.37,6.85.2c1.85.06,3.03,1.87,3.21,3.25.27,2.09-.43,3.74-2.64,4.64l3.1,6.34h-2.31ZM519.95,394.87c1.08-.31,1.31-1.39,1.33-2.08.02-.77-.28-1.71-1.23-1.97-1.47-.4-2.97-.24-4.53-.19l.05,4.37c1.39.1,2.85.31,4.37-.12h0Z"/>
    <path class="st27" d="M52.09,397.3c-.46-.88-.28-1.33-.2-2.08l4.95.02c-.04,1.75.24,3.31-.27,4.79-.71,2.05-2.82,3.07-4.79,3.13s-4.41-.98-4.98-3.24c-.64-2.48-.58-5.42-.07-7.92.5-2.44,2.98-3.49,5.09-3.46,2.24.04,4.33,1.26,4.92,3.79l-2.17.46c-.4-1.61-1.69-2.37-3.14-2.27s-2.8,1.22-2.8,2.88v4.81c0,1.97,1.57,3.02,3.24,2.93,1.64-.08,3.2-1.39,2.71-3.41-.15-.62-1.46-.96-2.47-.42h0Z"/>
    <path class="st27" d="M386.65,396.83h-5.92c-.28,1.51-.26,2.8-.02,4.2l6.93.04-.02,1.96-9.21-.03-.09-14.31h9.32v1.91s-6.86.01-6.86.01c-.37,1.2-.34,2.64.05,4.03l5.81.12v2.06s0,0,0,0Z"/>
    <path class="st27" d="M13.39,399.52c-.64,3.14-4.04,4.07-6.46,3.5-2.94-.69-4.15-3.41-3.93-6.44.12-1.67-.19-3.35.46-4.92.85-2.06,2.72-3.1,4.74-3.13,2.02-.04,4.39.84,5.04,3.16s.69,5.18.15,7.82h0ZM11.5,397.58l-.23-5.06c-.06-1.37-1.59-1.93-2.72-1.98-1.09-.05-2.62.37-2.95,1.73-.53,2.16-.5,4.62-.1,6.81.32,1.78,2.26,2.33,3.81,1.95,1.29-.32,2.28-1.59,2.2-3.44Z"/>
    <path class="st27" d="M454.73,396.37c.34,3.9-1.63,6.65-5.2,6.79-3.34.13-5.78-2.54-5.49-6.16.14-1.75-.19-3.68.44-5.37.74-1.98,2.63-2.91,4.32-3.05,2.18-.18,4.13.55,5.26,2.49.89,1.53.5,3.39.67,5.3h0ZM452.46,398.11c.13-4.11.54-7.41-2.89-7.57-1.18-.06-2.53.38-2.95,1.7-.56,1.79-.29,3.69-.33,5.52-.05,1.98,1.16,3.31,2.9,3.39,1.76.08,3.21-1.04,3.27-3.04h0Z"/>
    <path class="st27" d="M230.81,399.46c-.36,2.51-2.78,3.62-4.78,3.69-1.99.08-4.43-.91-5.03-3.19-.67-2.6-.69-5.74,0-8.32.58-2.16,2.89-3.05,4.68-3.1,2.05-.05,4.47.84,5.03,3.17s.46,5.15.1,7.74h0ZM228.78,398.6c.16-1.96.25-4.03-.11-5.96-.32-1.69-1.88-2.25-3.34-2.06-1.22.16-2.5,1.01-2.51,2.55l-.03,4.97c-.01,1.86,1.33,2.99,2.91,3.04s2.95-.78,3.1-2.54h0Z"/>
    <path class="st27" d="M155.38,396.75l-6.02.02-.02,4.27h6.98s.04,1.98.04,1.98h-9.28s.01-14.36.01-14.36l9.27.05-.04,1.93-6.87.02c-.29,1.31-.26,2.55-.04,4l5.88.06.08,2.01h0Z"/>
    <path class="st27" d="M295.87,396.73l-5.92.07-.02,4.25h7.03v1.97h-9.21v-14.43h9.13c.16.69.13,1.38.03,2.04l-6.88.03c-.28,1.33-.23,2.56-.05,4.04l5.87.04.02,2h0Z"/>
    <path class="st27" d="M501,396.74h-5.76c-.38,1.39-.3,2.74-.2,4.3l7.05.03v1.92s-9.23-.02-9.23-.02l.03-14.37,9.22.09c.06.73.08,1.33-.11,1.95h-6.87c-.25,1.34-.18,2.56-.02,4.03l5.86.07.05,1.99h0Z"/>
    <path class="st27" d="M75.98,399.93h-5.72s-1.16,2.84-1.16,2.84c-.5.45-1.61.33-2.27.16l5.23-13.99c.18-.48,1.9-.56,2.08-.08l5.12,14.05c-.61.21-1.77.33-2.21-.14-.57-.62-.51-1.75-1.08-2.85h0ZM75.29,397.79l-2.24-6.09-2.12,6.18c1.81.15,2.94.22,4.36-.09h0Z"/>
    <path class="st27" d="M425.69,397.25l-.11,5.71c-.68.08-1.36.12-2.2-.02v-14.26l6.74.11c2,.03,3.25,2.06,3.41,3.7.2,2.07-.75,3.96-2.87,4.57-1.48.42-2.86.24-4.97.2h0ZM431.36,393.15c.09-.84-.16-1.89-1.16-2.23-1.47-.5-3.16-.34-4.61-.14l.1,4.57c3.24.18,5.41.25,5.67-2.2h0Z"/>
    <path class="st27" d="M135.94,403l-9.55.04-.02-1.89,6.66-10.48-6.24-.04c-.18-.6-.22-1.2-.12-1.96l9.08-.04c.43,1.06-.05,2.02-.64,2.94l-5.98,9.38,6.75.04.06,2.01h0Z"/>
    <path class="st27" d="M202.12,398.2c0,1.52,1.14,2.64,2.37,2.85,1.53.27,2.94-.31,3.46-1.99l2.22.33c-.7,2.6-2.76,3.77-4.96,3.77s-4.59-1.18-4.98-3.64c-.38-2.42-.45-5.12-.02-7.52s2.94-3.46,5.01-3.47c2.3-.02,4.26,1.16,4.94,3.7-.48.28-1.65.53-2.1.23-.72-1.39-1.76-2.08-3.19-1.93s-2.72,1.17-2.72,2.9l-.02,4.78h0Z"/>
    <path class="st27" d="M310.05,398.3c0,1.73,1.29,2.65,2.55,2.79,1.44.16,2.5-.56,3.28-1.85.43-.28,1.54-.04,2.1.28-.55,2.38-2.76,3.66-4.99,3.66-2.36,0-4.6-1.51-5.06-4.03l-.16-4.94c-.11-3.32,2.14-5.75,5.43-5.67,2.35.06,4.23,1.28,4.82,3.74-.66.25-1.24.3-2.11.36-.58-1.54-1.81-2.26-3.3-2.09s-2.6,1.25-2.59,2.93l.02,4.84h0Z"/>
    <path class="st27" d="M334.21,402.88c-.38.19-1.09.22-2.1.14l-.18-12.28-4.07-.11v-1.96s10.36-.02,10.36-.02v1.94l-3.97.05-.05,12.25Z"/>
    <circle class="st68" cx="357.73" cy="396.37" r="3.81"/>
    <circle class="st68" cx="177.99" cy="396.38" r="3.79"/>
    <rect class="st27" x="106.64" y="394.74" width="14.36" height="2.24" transform="translate(-282.3 508.78) rotate(-89.87)"/>
    <rect class="st81" x="250.76" y="397.86" width=".28" height=".28" transform="translate(-207.94 293.99) rotate(-45)"/>
  </g>
</svg>