<?xml version="1.0" encoding="UTF-8"?>
<svg id="Layer_1" xmlns="http://www.w3.org/2000/svg" version="1.1" viewBox="0 0 1310.4 264.24">
  <!-- Generator: Adobe Illustrator 30.6.0, SVG Export Plug-In . SVG Version: 2.1.4 Build 109)  -->
  <defs>
    <style>
      .st0 {
        fill: #e6e0d3;
      }

      .st1 {
        fill: #eb9104;
      }

      .st2 {
        fill: #03060d;
      }
    </style>
  </defs>
  <g>
    <polygon class="st1" points="616 146.85 594.28 95.45 569.31 35.24 521.68 146.73 492.79 146.71 556.59 2.44 582.63 2.31 612.14 70.55 645.56 146.71 616 146.85"/>
    <polygon class="st1" points="746.32 146.66 719.24 146.73 719.4 27.38 675.2 27.26 675.39 2.35 791.93 2.36 791.89 27.25 746.28 27.43 746.32 146.66"/>
    <g>
      <path class="st1" d="M1281.96,145.52c-29.52,9.52-61.26,1.84-84.3-19.26l15.44-19.3c15.43,14.6,42.01,23.97,60.48,15.72,7.11-3.18,10.61-8.96,10.3-16.32-.29-6.81-5.06-12.31-12.37-14.42l-33.96-9.82c-9.1-2.63-17.95-6.39-24.36-13.75-9.33-10.71-11.28-25.65-6.41-39.7,12.31-35.47,69.79-36.37,99.81-11.82l-13.6,20.24-19.66-9.87c-18.03-6.34-41.42-3.09-42.34,13.19-.36,6.4,3.2,12.67,9.58,14.7l28.13,8.94c22.03,7,41.35,13.71,41.68,40.89.22,18.58-9.67,34.52-28.44,40.57Z"/>
      <polygon class="st1" points="1121.39 146.78 1101.79 99.98 1074.98 35.18 1027.33 146.66 998.19 146.67 1062.36 2.41 1088.46 2.3 1118.49 72.2 1151.05 146.79 1121.39 146.78"/>
      <polygon class="st1" points="951.73 122.05 951.83 146.79 851.92 146.81 851.98 2.6 879.34 2.36 879.19 122.04 951.73 122.05"/>
    </g>
    <g>
      <polygon class="st0" points="148.03 2.87 86.24 146.47 60.43 146.79 0 2.62 30.5 2.52 74.03 111.79 118.19 2.54 148.03 2.87"/>
      <polygon class="st0" points="458.99 2.84 414.59 105.49 397.44 146.74 372.02 146.7 310.58 2.66 341.22 2.42 385.16 111.64 429.31 2.38 458.99 2.84"/>
      <rect class="st0" x="215.12" y="2.48" width="27.28" height="144.31"/>
    </g>
  </g>
  <path class="st0" d="M1197.54,228.64c1.59-.76,3.42-.76,5.9-.52l-9.12,35.2c-1.46.78-3.45.67-5.33.18l-7.06-23.93-7.72,23.77c-.64.97-3.81.85-5.04,0l-8.94-35.16,5.63-.04,6.25,24.36,7.67-24.54,4.22.04,7.46,24.48,6.08-23.84Z"/>
  <path class="st0" d="M1022.31,263.65l-.49-22.66-7.25,14.79c-1.33,1.66-4.92,1.63-5.94-.46-2.31-4.71-3.35-9.25-6.88-13.45l-.46,21.89-5.73-.04.09-35.6c1.81-.34,4.7-.63,5.65.2l10.27,21.02,10.36-20.72c.69-1.24,4.34-.9,5.44-.41l.05,35.7-5.1-.26Z"/>
  <path class="st0" d="M632.19,263.5c-2.02.43-3.39.26-5.21.05l-16.09-24.56-.48,24.73-5.08.07-.03-35.54c3.73-.82,5.24.13,6.72,2.29l13.9,20.27c2.02-8.24.69-14.67.94-22.4,1.45-.54,3.53-.49,5.42-.02l-.09,35.1ZM626.4,250.8l-.5.5.5.5.5-.5-.5-.5Z"/>
  <path class="st0" d="M688.74,263.4c-1.17.72-4.22.82-5.2-.19l-15.7-23.25-.63,23.63c-1.45.22-3.17.39-5.3.04l.04-35.49c1.64-.4,4.18-.5,5.31.33l15.71,23.99.59-24.35,5.23.07-.05,35.22Z"/>
  <path class="st0" d="M83.24,263.77l-7.2-14.18c-1.41-1.37-5.07-1.06-7.57-.57l-.15,14.69c-1.89.34-3.95.31-5.76.02v-35.76s15.33-.02,15.33-.02c5.39,0,9.59,3.77,10.35,8.63s-1.87,9.12-6.67,11.65l7.5,15.45-5.83.07ZM78.32,243.78c3.39-.09,4.51-3.11,4.47-5.47-.04-2.23-1.14-5.19-4.05-5.23l-10.49-.14.16,11.11,9.91-.26Z"/>
  <path class="st0" d="M251.55,263.31c-.1,1.34-4.62.53-5.51-.8l-15.52-23.4-.55,24.51c-1.87.2-3.25.28-5.24-.05l.03-34.96c.83-.91,4.39-1.04,5.31.01l15.93,23.77.45-24.04c1.8-.37,3.26-.4,5.48-.16l-.39,35.12Z"/>
  <path class="st0" d="M1302.08,263.9l-7.62-14.71c-1.4-1.25-5.36-.66-7.21.06l-.38,14.43c-1.72.25-3.21.35-5.13.06l-.17-35.88,17.11.5c4.61.14,7.57,4.68,8.01,8.12.67,5.22-1.07,9.33-6.58,11.58l7.74,15.84h-5.75ZM1298.09,243.49c2.69-.77,3.27-3.47,3.32-5.19.05-1.91-.69-4.27-3.07-4.92-3.68-1.01-7.41-.6-11.3-.47l.13,10.9c3.46.25,7.11.78,10.92-.31Z"/>
  <path class="st0" d="M130.04,249.56c-1.15-2.2-.7-3.33-.51-5.2l12.35.05c-.09,4.37.6,8.26-.67,11.96-1.77,5.12-7.05,7.67-11.96,7.81s-11-2.45-12.44-8.08c-1.59-6.2-1.46-13.53-.18-19.78,1.26-6.1,7.43-8.72,12.7-8.64,5.6.09,10.81,3.14,12.28,9.45l-5.41,1.14c-.99-4.03-4.23-5.92-7.84-5.66s-7,3.05-7,7.18l-.02,12.02c0,4.93,3.95,7.53,8.12,7.32,4.09-.2,7.98-3.48,6.76-8.51-.38-1.56-3.64-2.4-6.17-1.04Z"/>
  <path class="st0" d="M965.3,248.37h-14.79c-.71,3.76-.65,6.99-.04,10.49l17.31.09-.04,4.89-22.99-.07-.23-35.72h23.26s-.02,4.77-.02,4.77l-17.11.03c-.92,2.99-.84,6.6.12,10.06l14.51.31.03,5.14Z"/>
  <path class="st0" d="M33.43,255.1c-1.59,7.83-10.08,10.17-16.12,8.75-7.34-1.72-10.36-8.51-9.81-16.07.3-4.16-.48-8.37,1.14-12.29,2.13-5.15,6.79-7.73,11.83-7.82s10.95,2.1,12.59,7.9,1.72,12.92.38,19.53ZM28.7,250.25l-.58-12.64c-.16-3.42-3.96-4.82-6.8-4.95-2.71-.12-6.53.92-7.37,4.33-1.32,5.39-1.26,11.54-.26,16.99.81,4.44,5.64,5.81,9.52,4.87,3.23-.79,5.7-3.96,5.49-8.6Z"/>
  <path class="st0" d="M1135.26,247.24c.84,9.73-4.06,16.6-12.98,16.95-8.33.32-14.42-6.35-13.71-15.37.34-4.37-.48-9.19,1.09-13.41,1.84-4.95,6.56-7.26,10.79-7.62,5.44-.46,10.32,1.37,13.14,6.21,2.23,3.83,1.26,8.46,1.67,13.23ZM1129.58,251.57c.32-10.25,1.34-18.49-7.22-18.89-2.95-.14-6.32.94-7.37,4.24-1.41,4.46-.73,9.2-.83,13.77-.12,4.94,2.9,8.26,7.25,8.46,4.4.21,8.02-2.59,8.17-7.59Z"/>
  <path class="st0" d="M576.22,254.94c-.89,6.26-6.93,9.03-11.94,9.22-4.98.19-11.07-2.27-12.55-7.97-1.68-6.49-1.72-14.33,0-20.77,1.44-5.4,7.22-7.61,11.69-7.73,5.13-.13,11.16,2.1,12.56,7.92s1.15,12.85.24,19.32ZM571.17,252.81c.4-4.9.62-10.07-.28-14.87-.79-4.22-4.7-5.62-8.35-5.15-3.05.39-6.25,2.52-6.27,6.37l-.08,12.42c-.03,4.64,3.33,7.46,7.26,7.58s7.37-1.95,7.73-6.35Z"/>
  <path class="st0" d="M387.91,248.18l-15.03.05-.05,10.67,17.43.02.11,4.93-23.18-.02.03-35.82,23.15.13-.09,4.82-17.16.05c-.72,3.27-.66,6.37-.11,9.99l14.69.16.21,5.02Z"/>
  <path class="st0" d="M738.66,248.13l-14.77.17-.06,10.61,17.55.02v4.91s-22.99,0-22.99,0v-36.03s22.8-.03,22.8-.03c.41,1.76.32,3.47.07,5.13l-17.17.07c-.69,3.33-.58,6.38-.12,10.08l14.66.09.04,4.99Z"/>
  <path class="st0" d="M1250.78,248.16l-14.39-.03c-.95,3.51-.74,6.88-.51,10.76l17.59.08-.02,4.79-23.03-.04.07-35.87,23.03.23c.16,1.82.19,3.33-.27,4.87l-17.14.03c-.63,3.31-.46,6.37-.06,10.03l14.63.18.12,4.96Z"/>
  <path class="st0" d="M189.68,256.13l-14.27.02-2.89,7.08c-1.24,1.12-4.02.83-5.66.4l13.06-34.92c.45-1.19,4.75-1.41,5.2-.19l12.78,35.08c-1.53.53-4.43.83-5.52-.34-1.43-1.55-1.28-4.38-2.7-7.11ZM187.96,250.78l-5.6-15.2-5.29,15.43c4.53.37,7.33.54,10.89-.23Z"/>
  <path class="st0" d="M1062.75,249.42l-.28,14.25c-1.69.2-3.39.31-5.48-.04v-35.61s16.82.27,16.82.27c4.99.08,8.12,5.14,8.52,9.23.5,5.16-1.86,9.88-7.16,11.4-3.7,1.06-7.15.59-12.41.5ZM1076.91,239.2c.22-2.09-.39-4.72-2.9-5.57-3.67-1.24-7.88-.85-11.51-.35l.26,11.42c8.08.46,13.5.62,14.15-5.5Z"/>
  <path class="st0" d="M339.39,263.79l-23.84.1-.04-4.73,16.62-26.16-15.58-.1c-.44-1.5-.56-2.99-.3-4.89l22.67-.11c1.08,2.65-.12,5.05-1.59,7.35l-14.92,23.41,16.84.1.14,5.02Z"/>
  <path class="st0" d="M504.61,251.79c-.01,3.8,2.85,6.58,5.91,7.12,3.81.67,7.35-.77,8.63-4.97l5.54.83c-1.75,6.5-6.89,9.42-12.38,9.42-5.49,0-11.46-2.94-12.44-9.08-.96-6.03-1.12-12.78-.04-18.78s7.34-8.63,12.51-8.67c5.73-.05,10.64,2.89,12.33,9.23-1.19.69-4.12,1.33-5.24.58-1.79-3.48-4.39-5.2-7.97-4.82s-6.78,2.93-6.8,7.23l-.04,11.93Z"/>
  <path class="st0" d="M774.06,252.06c.02,4.31,3.21,6.62,6.36,6.97,3.59.41,6.25-1.39,8.19-4.62,1.07-.69,3.85-.11,5.25.69-1.37,5.94-6.88,9.14-12.47,9.13-5.89,0-11.48-3.77-12.63-10.07l-.4-12.34c-.27-8.28,5.34-14.35,13.56-14.16,5.86.14,10.55,3.19,12.04,9.33-1.65.62-3.1.74-5.26.9-1.45-3.85-4.53-5.64-8.24-5.23s-6.48,3.11-6.46,7.32l.06,12.09Z"/>
  <path class="st0" d="M834.36,263.48c-.96.47-2.73.55-5.24.35l-.45-30.66-10.15-.27-.02-4.9,25.89-.06v4.84s-9.91.12-9.91.12l-.12,30.58Z"/>
  <circle class="st1" cx="893.08" cy="247.24" r="9.51"/>
  <circle class="st1" cx="444.37" cy="247.25" r="9.47"/>
  <rect class="st0" x="266.22" y="243.18" width="35.85" height="5.59" transform="translate(37.53 529.55) rotate(-89.87)"/>
  <rect class="st2" x="626.05" y="250.94" width=".71" height=".71" transform="translate(5.77 516.54) rotate(-45)"/>
</svg>