<?xml version="1.0" encoding="UTF-8"?>
<svg id="Layer_1" xmlns="http://www.w3.org/2000/svg" version="1.1" viewBox="0 0 716.57 978.3">
  <!-- Generator: Adobe Illustrator 30.6.0, SVG Export Plug-In . SVG Version: 2.1.4 Build 109)  -->
  <defs>
    <style>
      .st0 {
        fill: #f98207;
      }

      .st1 {
        fill: #fc8307;
      }

      .st2 {
        fill: #fa8409;
      }

      .st3 {
        fill: #fa8308;
      }

      .st4 {
        fill: #fb8406;
      }

      .st5 {
        fill: #fa8307;
      }

      .st6 {
        fill: #f88308;
      }

      .st7 {
        fill: #f98308;
      }

      .st8 {
        fill: #f98208;
      }

      .st9 {
        fill: #fa8206;
      }

      .st10 {
        fill: #fb8307;
      }
    </style>
  </defs>
  <circle class="st10" cx="579.34" cy="86.57" r="34.31"/>
  <path class="st0" d="M67.99,435.12c2.8,3.82,2.88,11.21,1.67,12.52-.53.56-1.67,1.26-2.91,1.26h-22.13c-7.01-.01-13.68-1.5-20.39-3.45s-13.21-5.37-18.15-10.63c-10.27-10.93-6-27.32,1.75-39.56s17.62-22.66,28.74-31.76c1.51-1.23,3.73.47,4.23,1.51.55,1.14,1.16,3.26-.01,4.58l-4.32,4.85c-10.25,11.53-18.36,20-22.6,35.6-2.06,7.59,1.07,15.07,8.23,18.64s14.98,5.49,23.12,5.5l18.71.03c1.4,0,2.9-.7,4.07.9Z"/>
  <circle class="st8" cx="59.16" cy="324.62" r="21.67"/>
  <path d="M492.54,499.37c-.17-2.94-1.91-5.67-4.43-7.09-3.06-1.72-7.03,2.31-8.45.5-1.14-1.46-.16-3.66.73-5.01,2.28-3.44,1.57-7.64-2.04-9.34-2.75-1.29-7.85-.05-8.09,3.63-.11,1.66,1.39,3.59-.16,5.25-1.84,1.98-4.9,2.18-7.4,1,2.47-3.87.95-7.94-1.98-10.87-3.52-3.52-7.97-4.1-12.27-1.4-2.15,1.35-2.82,4.07-4.56,5.79-2.4,2.37-6.78.92-9.76-.16,1.4-2.02,2.26-3.52,1.99-5.71-.21-1.67-1.27-3.5-3.08-4.6-3.4-2.05-7.01-1.34-11.06.22.98-3.63,3.04-5.99,5.55-7.97,4.71-3.74,10.56-3.33,15.45.59,2.9-4.61,2.37-10.7-1.5-14.02-5.05-4.33-11.5-3.49-17.07-.77-4.69,2.28-8.38,5.58-8.21,11.8-7.69-3.85-9.54-4.05-16.95.96-2.44-5.06-7.69-7.64-12.95-5.51-3.3,1.33-6.18,3.58-8.11,6.6-2.83,4.43.02,9.37-1.1,10.29-1.26,1.02-7.52-1.51-12.86,5.71-2.88,3.9-2.65,8.9-.78,13.42-8.13-.66-14.18,5.46-14.74,13.4-.22,3.14.44,5.55,2.99,7.55,1.98,1.55-1.2,8.19,6.69,11.05,1.73.63,3.67.87,5.09,2.59l-22.04,3.36-8.65,1.72c-1.42.28-2.53,1.29-2.83,2.42-.31,1.16.11,2.7,1.07,3.77l21.99,24.5,22.73,25.62c6.3,7.11,12.17,19.98,13.79,20.43.64.18,1.55-.09,2.18-.69l22.33-21.06,6.23-5.62c5.09.27,9.66-2.14,12.27-6.56,2.81-4.77,5.7-8.96,9.65-13.07.85-.89,1.6-3.58,3.47-3.31,2.76.41,4.74.17,5.75-2.13l7.79-17.87c1.16-2.67,4.4-3.86,6.17-6.06,3.38-4.19,5.01-9.14,7.72-14.17,4.37,2,8.4,2.65,12.68.2,6.72-3.83,7.21-11.29,6.74-19.39ZM451.51,534.78l-5.02,15.71c-.27.84-1.04,1.55-1.59,1.8-1.78.82-10.16-5.92-11.66-1.7-.85,2.4,2.74,3.68,1.93,4.78-1.16,1.58-13.82-3.79-14.36.62-.1.8.4,1.87,1.45,2.17l9.98,2.8c.7.2.86.62.84,1.07-.1,2.25-4.18-1.1-7.01-.1-.82.29-.98,1.33-.82,1.97.54,2.17,3.14,2.35,3.72,3.94,1.17,3.21-2.97,7.5-5.45,6.83-7.05-1.93-12.75-7.04-16.05-13.32-3.15-6,4.18-10.19,11.04-13.04,2.66-1.11,3.74-3.74,2.74-6.33l-3.72-9.64c-1.81-4.7-.36-10.12,3.76-13.15,2.75-2.03,5.95,6.11,11.73,9.83,4.01,2.59,9.52,2.55,13.68.38-.87-4.76-8.78-4.64-10.77-10.58,4.98-2.44,6.26,3.79,13.8,5.74l11.26,2.91c-2.26,3.83-7.61,1.51-9.47,7.35Z"/>
  <path d="M682.45,362.89c-1.91-6.18-6.22-11.34-11.92-13.8-2.48-1.07-4.66,1.33-5.43,2.92-2.48,5.12,5.62,8.44,6.77,16.01.48.85-.63,1.08-.73.18l-.63-.79c-2.73-3.42-5.35-8.32-9.29-6.61-.91.39-1.76,1.42-1.94,2.65-.45,2.99,1.18,4.75,3.22,6.51,3.59,3.09,4.6,8.43,3.41,12.91l-9.33,5.51c-6.89,4.85-10.62,12.78-10.65,21.11l-.04,11.69c-2.12,8.82-6.24,16.61-10.14,24.68-4.63,9.57-10.05,17.98-16.5,26.39-6.8,8.86-12.61,18.13-16.72,28.54l-4.08,18.01c-.65,2.85-3.96,3.76-6.52,3.2-12.9-2.83-25.97-2.24-38.02,3.07-20.02,8.83-27.45,24.03-34.32,26.35-1.37.46-2.41-1.41-2.4-2.27.04-2.8,1.94-5.14.35-6.44-.71-.58-1.95-.47-2.95-.02-15.16,6.79-26.94,18.11-34.5,32.85l-10.27,22.82c-4.23,9.39-8.28,18.34-14.29,26.74-15.32,21.38-40.71,27.39-65.68,20.97-1.04-.27-1.94.58-1.99,1.15-.26,3.17,7.05,7.29,12.16,9.06,7.55,2.62,15.14,3.92,23.55,4.84-1.32,10.03-7.35,21.58-15.25,27.55-4.66,3.52-8.61-4.81-16.98-5.82l6.01,13.45c3.29,7.37-2,16.31-10.66,19.8-6.5,2.62-13.35,4.03-20.75,4.22l4.55-14.37c2.25-7.11,5.74-17.09,1.66-21.48-2.55,2.5-3.46,5.4-4.36,8.44-3.34,11.31-10.67,28.85-22.7,28.71l-20.63-.23c-6.4-.68-11.45-5.18-12.34-11.4-.63-4.38,1.21-8.13,4.9-10.36,4.52-2.74,9.21-4.77,14.28-6.5l28.26-9.64c2.7-.92,5.18-1.95,7.21-4.07-3.59-1.46-7.1-1.74-10.7-1.2l-22.77,3.41c-12.08,1.81-23.6,4.72-31.01-6.02-4.37-6.33-7.27-13.51-6.81-21.29.09-1.55.92-2.76,1.97-3.3,1.33-.67,2.29.08,3.77.69,21.24,8.73,44.95,9.04,66.31.61,2.69-1.06,5.34-2.54,6.42-5.46-18.09,2.29-35.47,1.12-51.86-5.69-9.71-4.04-17.21-10.95-22.26-20.01l-7.41-17.13c-2.72-6.29-4.6-12.73-8.47-18.5-7.84-11.71-24.32-26.02-38.6-26.87-1.16,4.4,2.68,7.87.6,10.23-2.54,2.89-7.53-.38-12.03-3.14-21.16-12.96-39.09-13.57-61.87-3.8-1.06.46-2.34,1.01-3.33.39-.66-.41-1.48-1.34-1.69-2.54l-1.86-10.43c-6.66-25.36-21.87-36.31-27.77-49.93l-7.77-17.92c-1.81-4.17-1.69-8.36-.72-12.86,2.8-12.96-2.29-23.65-14.81-27.92-1.89-.64-3.21-1.87-3.54-3.92-1.3-8.13.8-13.06,7.94-16.48,2.83-1.35,4.19-3.68,3.08-6.34-.97-2.34-3.37-3.82-6.1-2.92-6.06,1.99-11.15,5.96-14.28,11.48-2.44,4.3-2.18,8.77-3,14.09-2.3-5.1-2.45-10.84-.96-16.19,2.32-8.29,11.39-10.24,9.78-15.01-.42-1.24-1.91-3.42-3.89-3.5-11.24-.48-20.82,6.96-23.9,17.66-2.15,7.5-1.68,14.72-.01,22.24.88,3.95,1.4,7.61,3.95,10.87l15.8,20.24c3.12,3.99,5.47,7.63,5.79,12.77l2.23,36.24c.58,9.46.5,18.47,2.24,27.71,3.76,19.92,11.91,26.91,14.74,37.89,3.69,14.29,19.58,11.77,32.57,17.09,29.38,12.04,53.84,15.19,86.06,8.99l-2.52,18.32c-1.25,15.24-.17,30.23,3.84,45.02.78,2.88.74,5.65.26,8.64l-2.29,14.23c-3.37,3.2-7.9,5.48-10.67,9.53-6.3,9.19-7.2,20.78-2.87,31.1-3.02,4.69-5.8,8.96-7.59,14.13-9.57,27.66-6.98,55.12,6.82,80.85,6.25,11.65,14.2,21.67,23.42,31.08.21.21,1.1.83,1.01,1.1-.12.38-.81.19-1.14.15l-15.85-1.9-23.24-3.69c-3.86-.61-7.68-1.64-10.96-3.67l-12.14-7.51c-9.02-5.58-20.88-5.87-29.93.23-7.59,5.12-11.07,14.3-11.18,23.11l-.17,13.81c-.08,6.44-1.55,12.67-4.33,18.42l-9.37,19.37c-5.99,12.39-6.57,33.71,4.25,41.55,2.99,2.17,10.17,3.69,13.03,1.01,3.65-3.43.41-10.06-2.27-12.67-.28-1.06.51-1.44.79-1.35,8.95,2.79,3.99,13.61,8.44,14.75,3.17.81,6.49.51,9.64-.17,1.92-7.74-4.18-11.91-3.54-13.88.42-1.31,5.26,1.02,6.68,6.98.52,2.2.24,4.29,1.63,6.61,2.9,1.03,8.52,1.7,11.17-.14,2.8-7-4.39-11.8-3.97-13.47.42-1.69,7.08,1.35,8.41,9.87.34,2.18,1.44,4.23,3.68,4.32l7.11.3c3.79.16,6.41-1.89,6.74-5.64.63-7.26-5.14-12.86-11.86-15.59-4.82-1.96-7.19-6.64-5.64-11.76,2.54-8.4,6.8-15.9,11.45-23.63,4.17.39,8.02,1.34,11.58,3.3l17.75,9.8,37.94,23.29c19.43,11.28,39.61,19.45,61.73,23.98,18.7,3.83,37.37,5.56,56.43,4.61,20.59-1.03,39.52-8.53,47.93-27.88,5.47-12.58,6.71-25.74,4.72-39.35-1.99-13.59-5.23-26.45-10.39-39.12l-9.44-23.18c-.47-.5.16-1.31.9-.72,10.07-2.46,19.68-5.35,29.16-9.5,10.89-4.76,20.41-10.85,30.9-17.44,3.18-19.39,14.04-36.43,30.28-48.1,5.8-4.17,21.2-12.87,21.69-11.69.08.18-.54.67-.71.84l-15.54,16.33c-10.5,11.03-17.28,24.7-21.15,39.43-2.58,9.8-1.6,19.05-.28,28.93.69,5.14-1.27,10.61-2.4,15.57l-6.79,29.92c-2.45,10.78-5.86,20.9-10.99,30.67-6.27,11.93-13.48,25.06-8.04,38.08,4.69,11.23,20.36,11.25,32.36,7.69,11.68-3.46,23.03-3.92,34.85-.87,13.13,3.39,26.3,3.96,39.71,2.06,8.53.75,16.57,1.27,25.04.43,3.28-.87,5.17-3.91,5.17-7.24,0-4.53-2.18-8.07-5.96-10.22-2.95-1.68-6.05-3.25-9.6-3.01-3.2.22-5.85-1.03-8.74-1.83-6.03-1.68-10.7-4.52-15.47-8.51l-17.63-14.76c-5.16-4.32-16.59-7.99-13.9-18.11,2.06-7.74,4.75-15,8.68-21.96l16.13-28.58c9.51-15.48,17.78-31.18,24.8-47.96,3.74-8.94,5.92-17.99,8.13-27.32,1.06-4.45,2.52-7.96,4.68-11.98,7.71-14.35,10.94-30.9,8.05-46.87-2.06-11.37-8.66-20.02-19.01-24.68-11.01-4.96-22.72-6.4-34.84-5.66-11.18.69-20.81,4.66-29.18,12.16-10.88,9.75-19.64,21.22-27.31,33.8l-20.07,37.73c2.54-27.8,15.13-66.01,41.93-76.43,1.16-.45,2.66-2.07,1.78-3.1-6.96-1.43-13.88-.71-21.1.37-21.82,3.27-42.2,10.36-62.7,19.85-.44-5.11-2.42-9.49-6.17-12.87l-3.94-3.55,11.94-16.04c4.85-8.03,7.78-16.57,9.8-25.68.38-1.73,2.53-2.2,3.81-2.99,18.07-11.15,28.78-29.07,36.38-48.72l16.23-.97c34.59-2.07,67.16-14.33,95.42-34.29,5.73-4.05,10.9-8.45,17.42-10.78l17.98-6.43c5.52-1.97,9.37-6.13,10.86-11.89,1.01-3.9,2.42-7.34,4.38-10.93,11.43-20.8,15.37-36.44,17.5-60.18l3.23-36c.68-7.54,3.09-13.6,7.08-19.98,4.87-7.78,10.22-15.7,12.29-24.87,1.99-8.83.31-18.39-2.29-26.81ZM256.38,729.54c-2.31-2.56-4.65-5.05-5.19-8.82,15.64,7.65,31.31,12.12,48.04,14.88,17.48,2.89,34.31,2.97,51.83.52,15.48-2.16,30.04-5.89,44.29-12.94-1.97,4.59-4.88,7.76-8.6,11.1-13.29,11.93-29.73,18.36-47.21,20.29-10.07,1.11-19.42,1.08-29.41-.41-20.04-2.99-40.05-9.4-53.76-24.61ZM419.93,894.11c4.48,14.78,7.13,30.65,1.87,45.02-3.72,10.17-11.69,17.38-22.18,20.13-17.55,4.59-36.07-2.68-45.84-17.92-1.53-2.38-3.45-4.17-6.07-5.01l-12.07-3.89c-10.01-3.23-19.97-5.91-29.07-11.31-8.33-4.95-14.69-11.84-19.75-20.06-1.23-2-1.23-6.43,1.4-7.24,6.46-1.99,13.26-.5,19.6,1.6,13.16,4.35,24.16,12.07,34.29,21.4l14.98,13.8c.67.62,2.13.56,2.71.2,1.95-1.19,1.37-7.1-.65-11.16l-7.02-14.14c-7.19-12.61-15.5-24.04-24.41-35.47l-10.21-14.28c-2.33-3.26-1.71-7.12,1.43-9.76,3.74-3.15,8.21-5.04,13.11-6.51,14.83-4.44,30.43-4.27,45.52-1.08.59.13,1.29-.18,1.51-.45.26-.32.02-1.16-.67-1.6-23.68-14.95-52.25-16.68-77.94-5.72l-18.6,10.01,4.44-10.11c6.5-10.98,16.76-18.92,28.71-23.24l19.83-7.16c5.87-2.12,16.21-7.64,18.8-11.49.2-.3-.32-1.41-.77-1.34l-20.11,3.58c-17.69,1.93-35.73-.12-51.89-7.43-8.23-3.72-15.36-8.77-20.09-16.88,18.18,4.71,35.42,6.66,53.69,6.74,21.66.09,42.64-3.42,62.61-11.73,11.89-4.95,21.69-12.14,31.75-20.55-8.37,22.62-21.3,44.46-42.91,55.22-1.66.82-2.86,1.29-3.35,2.73-.43,1.24-.97,3.63.38,4.5,16.14,10.39,28.38,25.53,37.03,42.49l4.18,8.19c6.54,12.84,11.57,26.11,15.76,39.93ZM426.29,778.31c6.59-23.04,18.39-44.01,39.97-55.6-6.64,10.43-12,20.82-15.37,32.47l-7.13,24.67-5.48,17.17c-2.69,8.41-7.26,15.75-13.24,22.55-4.58,5.2-15.53,13.1-17.33,8.14,4.86-9.19,9.3-18.14,12.26-28.12l6.32-21.28Z"/>
  <path d="M190.71,218.16c2.24.33,4.47,1.34,6.03,3.4,12.53,16.53,30.67,22.39,50.9,18.32.56.05.85,1.59.81,2.37-1.61,29.89-2.18,59.3-.18,89.28,1.35,20.28,3.93,39.74,6.94,59.36.88,1.38.89,2.21.03,2.51-32.08,9.98-66.42,19.49-100.85,27.12-1.33.29-2.69.4-4.07.5s-2.77.11-4.16.1c-4.63-1.17-7.92-3.98-9.31-8.69-3.02-10.22-10.31-15.19-20.86-16.41-8.61-10.37-22.01-8.25-32.23.32-4.03-8.38-6.6-16.5-8.58-25.05l-3.58-15.46c4.96-2.86,9.46-5.88,13.07-10.37,9.11-11.33,9.52-26.95,1.54-39.08-1.51-2.3-2.77-4.74-2.48-7.34-1.75-.96-.29-3.63.75-4.77,28.15-30.88,62.35-54.62,98.32-75.74,2-1.17,6.93-3.02,7.92-.34Z"/>
  <path d="M535.59,98.15c4.41,16.14,16.65,28.23,32.9,32.72,2.92.81,5.25,3.57,6.57,6.4,16,34.32,26.37,70.79,31.17,108.45.53,4.14-1.54,7.27-2.83,10.56l.09,1.38c-28.56,15.75-57.69,30.05-87.4,42.9-2.51.45-5.87.69-7.01-1.96-.14-.99-1.31-1.5-1.92-2.38-7.28-10.55-17.57-17.9-29.86-21.62-2.48-.75-4.48-3.84-4.51-6.75-.34-33.01-3.1-65.49-7.95-98.26-2.81-18.98-6.48-37.07-11.05-55.57-.81-3.27,2.39-6.93,4.48-8.43-.29-.86-.13-1.2.38-1.68.8-.75,4.17-1.4,5.41-1.57,20.89-2.93,41.02-5.6,62.01-7.57,3.37-.32,8.18-.25,9.49,3.38Z"/>
  <path d="M430.86,111.28c5.16.07,9.72,4.19,11.09,9.64,12.69,50.64,17.49,97.17,18.73,149.33.05,2.07-1.1,2.94-2.96,3.18-9.37,1.22-17.85,5.16-25.56,10.47-1.93,1.33-4.34,1.76-6.41,1.46-.6,1.31-1.91,1.28-3.95-.09-42.52-26.73-86.58-52.36-131.44-74.64-3.15-2.09-6.17-4.14-5.62-8.32,1.83-8.56.97-17.24-2.13-25.7-1.52-4.14-1.52-8.54.89-12.09-1.4-1.71,1.93-3.68,3.48-4.4,11.21-5.23,22.63-10.49,34.16-15.27,34.89-14.48,69.49-24.92,104.36-33.99,2.46-.93,4.24-.79,5.34.41Z"/>
  <path d="M282.75,222.25c.94-1.22,2.33-1.25,4.18-.1,42.48,22.8,84.75,46.31,125.22,72.5,1.82,1.14,2.46,2.41,1.93,3.82,1.35,1.86,2.2,5.5,1.42,7.92-2.82,8.79-3.58,17.49-2.18,26.28.67,4.5-2.32,6.81-6.15,8.41-40.97,16-85.19,33.15-128.72,45.75l-1.1-.98c-5.37.17-9.67-3.84-10.23-9.48l-3.51-35.09c-3.39-33.89-2.64-67.5-.47-101.41.28-4.34,2.59-7.12,5.48-9.9l5.32-5.11c2.35-2.26,5.79-3.06,8.83-2.63Z"/>
  <path d="M420.6,354.84c1.95.16,3.72,1.3,5.02,2.76,7.46,8.43,16.93,14.22,27.92,16.7,1.83.41,3.09,1.99,2.88,3.77l-2.15,17.98-6.36,35.2c-.18,1.01-.6,1.78-1.34,2.5-7.79-3.76-14.58-1.5-22.01,3.22-3.37-2.65-7.04-4.88-11.49-5.17-9.13-.6-17.02,4.76-20.68,13.18-6.53-2.9-12.87-2.49-18.51,1.21-5.04,3.31-7.98,9.36-8.13,15.7-5.05.64-10.37,2.78-13.22,6.75-3.17,4.42-3.4,9.68-2.11,14.91-4.75,1.32-9.41,3.76-12.3,8.23-4.36,6.74-5.15,14.77-1.27,21.99l3.63,6.77-19.44,3.7c-2.43.46-7.1-2.13-8.54-4.52-12.71-21.13-22.04-43.38-29.14-66.96l-9.56-37.53c-1.02-4.01.6-8.31,3.49-10.93-1.11-1.4.48-2.23,1.83-2.88l53.36-17.08c27.65-10.16,55.42-20.31,83.33-30.43,2.31-.78,3.91-.47,4.8.92Z"/>
  <path d="M206.79,151.72l-3.18.19c-1.12.96-2.56.63-4.31-.98-12.19-11.94-24.61-23.67-37.28-35.17-3.63-3-3.87-8.33.81-9.63l8.12,6.04c7.07-10.81,2.89-28.27-6.43-37.77-1.05-1.07-.56-2.38.37-3.23,8.57-7.92,17.55-14.55,27.26-21.14,24.6-16.69,51.01-29.35,79.57-37.92,23.98-7.2,48.22-11.5,73.86-12.09-2.85,3.59-6.63,4.87-9.87,7.54-15.79,12.98-28.41,28.61-38.78,46.31-12.43,21.2-21.37,43.67-28.25,67.23l-5.82,19.94c-2.56,5.91-9.91,5.25-15.14,4.54-16.92-2.27-32.24,6.06-40.93,6.14Z"/>
  <path d="M250.72,411.55c5.54,1.04,9.39,4.42,10.12,9.84,4.9,22.92,11.21,45.08,20.06,66.78l10.45,23.3c.38.85.3,1.85-.1,2.32s-1.1.82-1.9.81l-9.2-.15c-18.2-.29-34.84,7.76-46.46,21.73l-6.98-3.62c-15.71-5.45-26.54-5.08-42.53-.29-5.95-3.83-11.09-8.38-15.53-13.85l-12.91-15.92c-6.62-8.16-10.84-17.91-14.32-27.85-1.53-4.36,5.11-15.77-1.82-29.55-.81-1.62-.68-4.79,1.21-5.56-.64-1.69,4.63-3.48,6.2-3.84,35.2-7.44,69.43-15.82,102.68-25.16l1.02.99Z"/>
  <path d="M158.5,129.4l.6-.56c10.28,9.04,20.4,18.44,30.35,28.23,2.43,1.87,3.2,3.54,2.29,5.02,1.31,3.21.96,6.8-.5,10.15-3.96,9.05-5.36,18.78-3.83,28.35-.08,2.21-1.43,4.05-4.07,5.53-39.41,24.09-77.78,52.42-107.41,87.68l-1.48-.15c-3.37.16-7.93-.18-10.68-2.78-1.2-1.77-1.05-4.8-.99-7.16,1.45-56.58,19.12-111.55,52.06-158.1,11.27,8.33,24.47,11.11,36.93,5.33,2.21-1.04,4.41-1.56,6.73-1.52Z"/>
  <path d="M425.91,96.86l-.22,1.32c-45.61,10.92-93.58,27.58-135.87,48.09l-1.31-.74c-2.58.01-5.17-.88-6.68-2.71s-2.93-4.63-2.22-7.18l6.14-22.04c8.17-25.77,20-49.88,35.9-71.75,9.69-13.32,25.79-31.11,40.4-37.41,2.56-1.11,5.28-1.21,7.9-.15,5.48,2.23,10.19,5.28,14.7,9.2,21.83,19.03,35.95,43.86,45.94,70.93,1.68,4.56-1.41,9.68-4.67,12.44Z"/>
  <path d="M535.03,76.23c-1.02,4.11-5.21,5.32-8.94,6.13-23.76,2.25-47.43,4.72-70.89,9.14l-.92-1.09c-4.89-.67-8.77-3.91-10.56-8.78-10.64-28.9-26.04-56.26-49.73-76.28-.85-.72-1.11-1.98-.79-2.61.38-.72,1.5-1.57,2.84-1.44,51.89,4.99,101.5,24,143.33,54.98,6.01,4.46-2.37,8.41-4.34,19.95Z"/>
  <path class="st9" d="M656.98,245.86l-17.5,11.47-16.35,9.41c-1.39.8-2.85,1.61-3.51,2.84-4.59,3.09-9.37,5.91-14.34,8.46l-2.62.06-3.74,1.79-34.73,17.27-42.32,18.88c-2.07.93-3.94,1.85-5.29,3.4-.53-.2-1.14-.66-1.24-1.4-1.46-10.5-5.7-15.7-6.25-19.43,3.29,1.37,6.37,1.31,9.74-.22l23.24-10.54,59.59-30.31c.77-.39,1.19-1.13,1.73-1.26,3.24-.75,5.9-2.88,8.91-4.62l7.87-4.53-.17-1.34c10.57-6.4,20.97-13.02,31.19-19.88l1.37.52,21.2-16.19,11.38-11.31c4.01-3.98,6.91-8.89,9.03-14.18,4.45-11.13-3.1-20.37-13.57-24.58-6.98-2.81-14.14-4.38-21.65-5.25l-11.41-1.31c-3.81-.44-7.12-1.2-8.87-4.93l-3.67-7.85c-.42-.9-.47-2.03-.09-2.69,1.6-2.75,7.79-1.87,13.34-1.51,20.72,1.33,45.92,4.11,60.24,19.45,6.69,7.17,9.27,16.47,7.57,26.05-4.2,23.7-29.43,43.18-48.69,56.54l-10.39,7.2Z"/>
  <path class="st7" d="M420.6,354.84c-3.15-.25-6.01.46-9.08,1.61l-60.51,22.58-18.15,6.48-53.28,17.05c-.88.28-1.66,1.18-2.3,1.75-.22-.26-.66-.37-1.15-.24l-24.16,6.43c-.68.18-1.08.85-1.25,1.06l-37.41,10.01c-22.02,5.89-43.59,11.16-65.98,15.33l-6.52,2.66c-2.64.15-4.33-1.42-5.09-4.09-1.08-3.79-1.5-9.59,2.32-12.02,2.3-1.4,5.72-1.82,8.1-2.35,25.25-5.64,50.24-11.62,75.33-18.94l32.32-9.43c1-.29,1.54-.95,1.4-1.85-.06.16.66,1.46,1.13,1.31l21-6.34,7-1.83c30.3-9.7,60-19.84,89.69-31.38l32.68-12.69c3.38-1.31,5.96-3.81,6.61-7.27,1.93,12.1,8.79,18.55,8.25,20.45-.16.55-.74,1.17-.97,1.72Z"/>
  <circle class="st7" cx="464.26" cy="324.22" r="39.26"/>
  <circle class="st5" cx="236.16" cy="192.87" r="36.89"/>
  <path d="M652.57,226.43l-4.6,3.34-27.79,17.36c-2.58-.37-5.34-2.44-5.8-5.52-3.42-22.76-7.92-45.03-14.88-67.07l-11.62-31.91c-1.56-4.28-.3-9.75,4.19-11.59l12.68-5.17c1.9-.77,3.61-.11,4.69,1.41,7.58,10.72,13.73,21.72,19.9,33.38,9.26,17.47,16.01,35.57,21.19,54.64,1.04,3.84,2.21,7.31,2.05,11.16Z"/>
  <path class="st4" d="M535.59,98.15c-3.12-2.32-6.4-2.43-10.4-2.09-20.49,1.76-40.64,3.88-60.9,7.48-2.35.42-4.19.75-6,2.05l-24.58,4.82c-.96.2-2.54-.42-2.86.87l-4.31.57-45.59,12.61c-31.6,9.83-61.97,21.84-91.8,35.94-2.28,1.08-4.48,2.4-5.65,4.13-2.63.06-3.5,3.25-4.79,2.96-1-.23-3.69-5.18-7.87-9.06-.73-.68-.83-1.93-.49-2.72.2-.47.69-1.14,1.48-1.54l16.66-8.63,11.58-5.33c18.2-8.38,36.2-16.08,55.26-22.49,19.12-6.43,37.66-12.57,57.17-17.47l13.4-3.37,17.06-4.16,11.31-2.3,33.11-5.36,36.72-3.65c4.37-.43,8.23-2.09,10.92-5.17-1.23,7.17-1.34,14.98.56,21.92Z"/>
  <path class="st1" d="M162.84,106.12c-.21,1.49-3.17,3.32-2.29,5.45,1.55,3.44,5.23,5.72,7.98,8.32l18.91,17.85,12.09,11.74c2.31,2.25,4.38,2.26,7.25,2.23-1,.65-2.18.52-3.85.49.56.84,1.03,1.42,1.14,2.2.16,1.17-5.14,7.03-7.84,8.7-1.32.81-3.39-.81-4.5-1.03-.81-1.98-2.68-3.7-4.34-5.29l-10.68-10.18-18.22-17.21-6.41-5.89-3.11-2.98c-8.65,4.05-19.07,3-26.52-3.58-10.39-9.18-10.95-25.49-1.15-35.54,7.18-7.36,18.94-9.56,28.05-4.86,8.83,4.55,14.21,13.22,14.41,22.91l-.92,6.67Z"/>
  <path class="st8" d="M425.75,285.36c.2,2.37-.45,4.26-1.74,6.33l-4.48,7.19c-.44.7-1.26,1.27-1.89,1.25-.68-.01-1.36-.59-2.01-1.17l-1.01-.9c-.12-.1-.43-.05-.55.42-2.22-3.06-5.62-5.11-9.15-7.24l-56.89-34.27-61.67-33.72c-1.2-.65-2.62-.85-3.62-.99,1.82-.97-1.7-.93-4.22-3.02-.42-.35-.1-1.78.25-2.32,2.95-4.61,4.88-9.48,5.98-14.59,1.37,3.82,4.01,6.23,7.68,8.03l14.33,7.05,27.99,14.92,56.36,32.36,31.31,19.52c.99.62,2.46,1.02,3.35,1.15Z"/>
  <path class="st2" d="M190.71,218.16c-2.39-.36-4.89.01-7.32,1.41-34.95,20.09-69.52,44.76-97,74.24-1.39,1.5-2.5,3.57-2.68,5.2-1.28,1.1-2.72.94-4.18-.07l-4.71-3.28c-.38-.27-.77-.78-.8-1.08-.03-.27.24-.71.43-.93l4.84-5.7c17.62-19.48,36.86-37,58.07-52.61,13.71-10.09,27.51-19.01,41.86-27.93,3.19-1.98,5.85-3.97,8.18-6.82l3.86,11.75c.46,1.4,1.74,3.38.25,4.31l-1.18.74c-.2.12.19.66.38.79Z"/>
  <path class="st3" d="M515.31,346.31c.85,1.76,2.05,3.42,3.68,4.84l20.68,17.94c11.8,10.24,22.1,21.42,31.72,34.2l-7.6,7.17-15.73-16.15-29.23-25.8c-3.69-3.26-7.38-5.93-11.49-8.09-1.53-1.64-3.68-2.88-2.32-4.77l6.45-8.95c.77-1.06,2.87-.57,3.83-.38Z"/>
  <path d="M656.98,245.86l-1.42-.53c-11.99,7.84-24.12,15.43-36.38,22.76-.34.4,0,1.07.43,1.49-1.51,2.82-2.06,5.88-2.07,9.34l-.04,29.4-4.88,39.82c-3.53,19.67-9.15,38.37-16.43,57.32-2.32-.53-3.68-1.81-5.84-3.11,8.56-22.55,13.72-45.72,16.55-69.77,1.94-16.51,2.87-32.5,1.67-48.96-.23-3.1-3.25-5.14-5.92-5.51l-1.25-.76c-26.6,13.6-53.8,26.22-81.29,38.16-2.77.96-3.95,2.27-3.54,3.94-1.3,1.48-.16,8.58-2.16,16.76-.86,3.54-.6,7.04.89,10.12-.83,1.4-.28,2.92,1.64,4.57l23.38,20.41c4.67,3.5,29.99,29.89,29.31,31.96-.12.38-5.53,5.58-5.89,5.41-15.27-16.44-32.42-31.13-49.8-45.61-2.14-2.04-4.35-2.91-6.61-2.63-3.7-.92-6.96.35-9.92,2.86-7.04,5.98-15.08,9.66-24.12,11.33-2.35.43-4.37,2.19-4.75,4.61l-9.31,59.61c-.14.9-.66,1.74-.26,2.55.3.6,1.33.91,2.44.87,10.53-.32,19.3,7.81,18.28,18.83,8.1-1.19,15.38,3.78,15.87,11.9l-.96,4.58c9.65,3.07,14,11.83,12.46,21.26-.91,5.61-2.02,10.5-4.99,16.14,7.58-2.09,12.55-6.7,18.13-11.41,18.55-15.63,33.84-34.28,46.49-55.15,2.14.87,3.7,1.86,5.7,3.47-9.14,15.15-19.9,28.92-32.22,41.68l-16.36,14.9-10.89,8.69,8.1,4.11c1.18.6,2.46.3,3.46-.55,8.89-7.55,19.3-12.85,30.83-15.02l17.37-1.53,19.85-21.83,18.38-23.35c9.23-11.73,16.1-24.85,22.04-38.47,2.51-5.75-3.96-23.76,12.57-38.96,1.1-1.01,2.46-3.14,2.65-4.69l2.7-21.67c.71-5.72,2.57-10.63,7.55-13.98,4.9-31.78,4.56-63.7-1.43-95.36Z"/>
  <circle class="st6" cx="581.66" cy="427.34" r="17.89"/>
</svg>